<?xml version="1.0" encoding="UTF-8"?>
<!DOCTYPE svg PUBLIC "-//W3C//DTD SVG 1.1//EN" "http://www.w3.org/Graphics/SVG/1.1/DTD/svg11.dtd">
<svg xmlns="http://www.w3.org/2000/svg" version="1.1" width="150px" height="150px" style="shape-rendering:geometricPrecision; text-rendering:geometricPrecision; image-rendering:optimizeQuality; fill-rule:evenodd; clip-rule:evenodd" xmlns:xlink="http://www.w3.org/1999/xlink">
<g><path style="opacity:1" fill="#b3b4b3" d="M 4.5,-0.5 C 7.83333,-0.5 11.1667,-0.5 14.5,-0.5C 14.5,1.16667 14.5,2.83333 14.5,4.5C 11.1667,4.5 7.83333,4.5 4.5,4.5C 4.5,2.83333 4.5,1.16667 4.5,-0.5 Z"/></g>
<g><path style="opacity:1" fill="#7c7d7c" d="M 14.5,-0.5 C 36.1667,-0.5 57.8333,-0.5 79.5,-0.5C 79.5,1.16667 79.5,2.83333 79.5,4.5C 77.8333,4.5 76.1667,4.5 74.5,4.5C 54.5,4.5 34.5,4.5 14.5,4.5C 14.5,2.83333 14.5,1.16667 14.5,-0.5 Z"/></g>
<g><path style="opacity:1" fill="#b2b2b2" d="M 79.5,-0.5 C 82.8333,-0.5 86.1667,-0.5 89.5,-0.5C 89.5,1.16667 89.5,2.83333 89.5,4.5C 87.8333,4.5 86.1667,4.5 84.5,4.5C 84.5,6.16667 84.5,7.83333 84.5,9.5C 81.1667,9.5 77.8333,9.5 74.5,9.5C 74.5,7.83333 74.5,6.16667 74.5,4.5C 76.1667,4.5 77.8333,4.5 79.5,4.5C 79.5,2.83333 79.5,1.16667 79.5,-0.5 Z"/></g>
<g><path style="opacity:1" fill="#7d7d7d" d="M 89.5,-0.5 C 104.5,-0.5 119.5,-0.5 134.5,-0.5C 134.5,1.16667 134.5,2.83333 134.5,4.5C 119.5,4.5 104.5,4.5 89.5,4.5C 89.5,2.83333 89.5,1.16667 89.5,-0.5 Z"/></g>
<g><path style="opacity:0.938" fill="#b0b0b0" d="M 134.5,-0.5 C 138.167,-0.5 141.833,-0.5 145.5,-0.5C 145.5,1.16667 145.5,2.83333 145.5,4.5C 146.833,4.5 148.167,4.5 149.5,4.5C 149.5,7.83333 149.5,11.1667 149.5,14.5C 147.833,14.5 146.167,14.5 144.5,14.5C 144.5,11.1667 144.5,7.83333 144.5,4.5C 141.167,4.5 137.833,4.5 134.5,4.5C 134.5,2.83333 134.5,1.16667 134.5,-0.5 Z"/></g>
<g><path style="opacity:1" fill="#b3b4b3" d="M -0.5,4.5 C 1.16667,4.5 2.83333,4.5 4.5,4.5C 4.5,7.83333 4.5,11.1667 4.5,14.5C 2.83333,14.5 1.16667,14.5 -0.5,14.5C -0.5,11.1667 -0.5,7.83333 -0.5,4.5 Z"/></g>
<g><path style="opacity:1" fill="#7c7d7c" d="M 4.5,4.5 C 7.83333,4.5 11.1667,4.5 14.5,4.5C 14.5,6.16667 14.5,7.83333 14.5,9.5C 12.8333,9.5 11.1667,9.5 9.5,9.5C 9.5,11.1667 9.5,12.8333 9.5,14.5C 7.83333,14.5 6.16667,14.5 4.5,14.5C 4.5,11.1667 4.5,7.83333 4.5,4.5 Z"/></g>
<g><path style="opacity:1" fill="#5d5d5d" d="M 14.5,4.5 C 34.5,4.5 54.5,4.5 74.5,4.5C 74.5,6.16667 74.5,7.83333 74.5,9.5C 72.8333,9.5 71.1667,9.5 69.5,9.5C 54.5,9.5 39.5,9.5 24.5,9.5C 21.1667,9.5 17.8333,9.5 14.5,9.5C 14.5,7.83333 14.5,6.16667 14.5,4.5 Z"/></g>
<g><path style="opacity:1" fill="#7f7f7f" d="M 89.5,4.5 C 89.5,6.16667 89.5,7.83333 89.5,9.5C 87.8333,9.5 86.1667,9.5 84.5,9.5C 84.5,7.83333 84.5,6.16667 84.5,4.5C 86.1667,4.5 87.8333,4.5 89.5,4.5 Z"/></g>
<g><path style="opacity:1" fill="#5e5d5e" d="M 89.5,4.5 C 104.5,4.5 119.5,4.5 134.5,4.5C 134.5,6.16667 134.5,7.83333 134.5,9.5C 119.5,9.5 104.5,9.5 89.5,9.5C 89.5,7.83333 89.5,6.16667 89.5,4.5 Z"/></g>
<g><path style="opacity:1" fill="#7b7b7b" d="M 134.5,4.5 C 137.833,4.5 141.167,4.5 144.5,4.5C 144.5,7.83333 144.5,11.1667 144.5,14.5C 143.167,14.5 141.833,14.5 140.5,14.5C 139.549,13.0813 139.216,11.4147 139.5,9.5C 137.833,9.5 136.167,9.5 134.5,9.5C 134.5,7.83333 134.5,6.16667 134.5,4.5 Z"/></g>
<g><path style="opacity:1" fill="#525252" d="M 24.5,9.5 C 39.5,9.5 54.5,9.5 69.5,9.5C 69.5,11.1667 69.5,12.8333 69.5,14.5C 67.8333,14.5 66.1667,14.5 64.5,14.5C 64.5,16.1667 64.5,17.8333 64.5,19.5C 62.8333,19.5 61.1667,19.5 59.5,19.5C 59.5,21.1667 59.5,22.8333 59.5,24.5C 57.8333,24.5 56.1667,24.5 54.5,24.5C 54.5,27.8333 54.5,31.1667 54.5,34.5C 57.8333,34.5 61.1667,34.5 64.5,34.5C 64.5,32.8333 64.5,31.1667 64.5,29.5C 66.1667,29.5 67.8333,29.5 69.5,29.5C 69.5,27.8333 69.5,26.1667 69.5,24.5C 71.1667,24.5 72.8333,24.5 74.5,24.5C 74.5,22.8333 74.5,21.1667 74.5,19.5C 76.1667,19.5 77.8333,19.5 79.5,19.5C 79.5,17.8333 79.5,16.1667 79.5,14.5C 81.1667,14.5 82.8333,14.5 84.5,14.5C 84.5,12.8333 84.5,11.1667 84.5,9.5C 86.1667,9.5 87.8333,9.5 89.5,9.5C 104.5,9.5 119.5,9.5 134.5,9.5C 136.167,9.5 137.833,9.5 139.5,9.5C 139.216,11.4147 139.549,13.0813 140.5,14.5C 140.5,28.1667 140.5,41.8333 140.5,55.5C 138.833,55.5 137.167,55.5 135.5,55.5C 135.5,56.8333 135.5,58.1667 135.5,59.5C 136.833,59.5 138.167,59.5 139.5,59.5C 139.5,66.1667 139.5,72.8333 139.5,79.5C 141.167,79.5 142.833,79.5 144.5,79.5C 146.167,79.5 147.833,79.5 149.5,79.5C 149.5,82.8333 149.5,86.1667 149.5,89.5C 147.833,89.5 146.167,89.5 144.5,89.5C 144.5,91.1667 144.5,92.8333 144.5,94.5C 142.833,94.5 141.167,94.5 139.5,94.5C 139.325,96.6208 139.659,98.6208 140.5,100.5C 140.5,111.833 140.5,123.167 140.5,134.5C 139.549,135.919 139.216,137.585 139.5,139.5C 137.585,139.216 135.919,139.549 134.5,140.5C 126.167,140.5 117.833,140.5 109.5,140.5C 109.5,138.5 109.5,136.5 109.5,134.5C 111.167,134.5 112.833,134.5 114.5,134.5C 114.5,131.5 114.5,128.5 114.5,125.5C 111.167,125.5 107.833,125.5 104.5,125.5C 104.5,126.833 104.5,128.167 104.5,129.5C 100.5,128.833 98.8333,130.5 99.5,134.5C 95.5,133.833 93.8333,135.5 94.5,139.5C 89.5,139.5 84.5,139.5 79.5,139.5C 79.5,137.833 79.5,136.167 79.5,134.5C 81.1667,134.5 82.8333,134.5 84.5,134.5C 83.8333,130.5 85.5,128.833 89.5,129.5C 88.8333,125.5 90.5,123.833 94.5,124.5C 94.5,121.167 94.5,117.833 94.5,114.5C 93.1667,114.5 91.8333,114.5 90.5,114.5C 90.7845,112.585 90.4511,110.919 89.5,109.5C 87.8333,109.5 86.1667,109.5 84.5,109.5C 84.5,111.167 84.5,112.833 84.5,114.5C 82.8333,114.5 81.1667,114.5 79.5,114.5C 79.5,116.167 79.5,117.833 79.5,119.5C 79.5,121.167 79.5,122.833 79.5,124.5C 75.5,123.833 73.8333,125.5 74.5,129.5C 70.5,128.833 68.8333,130.5 69.5,134.5C 68.1667,134.5 66.8333,134.5 65.5,134.5C 65.5,136.5 65.5,138.5 65.5,140.5C 48.5,140.5 31.5,140.5 14.5,140.5C 13.0813,139.549 11.4147,139.216 9.5,139.5C 9.5,137.833 9.5,136.167 9.5,134.5C 9.5,126.167 9.5,117.833 9.5,109.5C 9.5,107.833 9.5,106.167 9.5,104.5C 11.1667,104.5 12.8333,104.5 14.5,104.5C 14.5,102.833 14.5,101.167 14.5,99.5C 16.1667,99.5 17.8333,99.5 19.5,99.5C 19.5,97.8333 19.5,96.1667 19.5,94.5C 21.1667,94.5 22.8333,94.5 24.5,94.5C 24.5,91.1667 24.5,87.8333 24.5,84.5C 21.1667,84.5 17.8333,84.5 14.5,84.5C 14.5,86.1667 14.5,87.8333 14.5,89.5C 12.8333,89.5 11.1667,89.5 9.5,89.5C 9.5,81.1667 9.5,72.8333 9.5,64.5C 9.5,62.8333 9.5,61.1667 9.5,59.5C 7.83333,59.5 6.16667,59.5 4.5,59.5C 4.5,56.1667 4.5,52.8333 4.5,49.5C 7.83333,49.5 11.1667,49.5 14.5,49.5C 17.8333,49.5 21.1667,49.5 24.5,49.5C 24.5,47.8333 24.5,46.1667 24.5,44.5C 26.1667,44.5 27.8333,44.5 29.5,44.5C 29.5,42.8333 29.5,41.1667 29.5,39.5C 31.1667,39.5 32.8333,39.5 34.5,39.5C 34.5,37.8333 34.5,36.1667 34.5,34.5C 36.1667,34.5 37.8333,34.5 39.5,34.5C 39.5,31.1667 39.5,27.8333 39.5,24.5C 36.1667,24.5 32.8333,24.5 29.5,24.5C 29.5,21.1667 29.5,17.8333 29.5,14.5C 27.8333,14.5 26.1667,14.5 24.5,14.5C 24.5,12.8333 24.5,11.1667 24.5,9.5 Z"/></g>
<g><path style="opacity:1" fill="#7c7c7c" d="M 69.5,9.5 C 71.1667,9.5 72.8333,9.5 74.5,9.5C 77.8333,9.5 81.1667,9.5 84.5,9.5C 84.5,11.1667 84.5,12.8333 84.5,14.5C 82.8333,14.5 81.1667,14.5 79.5,14.5C 79.5,16.1667 79.5,17.8333 79.5,19.5C 77.8333,19.5 76.1667,19.5 74.5,19.5C 71.1667,19.5 67.8333,19.5 64.5,19.5C 64.5,17.8333 64.5,16.1667 64.5,14.5C 66.1667,14.5 67.8333,14.5 69.5,14.5C 69.5,12.8333 69.5,11.1667 69.5,9.5 Z"/></g>
<g><path style="opacity:1" fill="#7c7d7c" d="M -0.5,14.5 C 1.16667,14.5 2.83333,14.5 4.5,14.5C 4.5,24.5 4.5,34.5 4.5,44.5C 2.83333,44.5 1.16667,44.5 -0.5,44.5C -0.5,34.5 -0.5,24.5 -0.5,14.5 Z"/></g>
<g><path style="opacity:1" fill="#5d5d5d" d="M 4.5,14.5 C 6.16667,14.5 7.83333,14.5 9.5,14.5C 9.5,24.5 9.5,34.5 9.5,44.5C 7.83333,44.5 6.16667,44.5 4.5,44.5C 4.5,34.5 4.5,24.5 4.5,14.5 Z"/></g>
<g><path style="opacity:1" fill="#b3b4b3" d="M 125.5,14.5 C 126.833,14.5 128.167,14.5 129.5,14.5C 129.5,16.1667 129.5,17.8333 129.5,19.5C 128.167,19.5 126.833,19.5 125.5,19.5C 125.5,17.8333 125.5,16.1667 125.5,14.5 Z"/></g>
<g><path style="opacity:1" fill="#808080" d="M 129.5,14.5 C 131.167,14.5 132.833,14.5 134.5,14.5C 134.5,16.1667 134.5,17.8333 134.5,19.5C 132.833,19.5 131.167,19.5 129.5,19.5C 129.5,17.8333 129.5,16.1667 129.5,14.5 Z"/></g>
<g><path style="opacity:1" fill="#5d5c5d" d="M 140.5,14.5 C 141.833,14.5 143.167,14.5 144.5,14.5C 144.5,36.1667 144.5,57.8333 144.5,79.5C 142.833,79.5 141.167,79.5 139.5,79.5C 139.5,72.8333 139.5,66.1667 139.5,59.5C 138.167,59.5 136.833,59.5 135.5,59.5C 135.5,58.1667 135.5,56.8333 135.5,55.5C 137.167,55.5 138.833,55.5 140.5,55.5C 140.5,41.8333 140.5,28.1667 140.5,14.5 Z"/></g>
<g><path style="opacity:1" fill="#7a7a7a" d="M 144.5,14.5 C 146.167,14.5 147.833,14.5 149.5,14.5C 149.5,36.1667 149.5,57.8333 149.5,79.5C 147.833,79.5 146.167,79.5 144.5,79.5C 144.5,57.8333 144.5,36.1667 144.5,14.5 Z"/></g>
<g><path style="opacity:1" fill="#5d5c5d" d="M 64.5,19.5 C 67.8333,19.5 71.1667,19.5 74.5,19.5C 74.5,21.1667 74.5,22.8333 74.5,24.5C 72.8333,24.5 71.1667,24.5 69.5,24.5C 69.5,26.1667 69.5,27.8333 69.5,29.5C 67.8333,29.5 66.1667,29.5 64.5,29.5C 64.5,31.1667 64.5,32.8333 64.5,34.5C 61.1667,34.5 57.8333,34.5 54.5,34.5C 54.5,31.1667 54.5,27.8333 54.5,24.5C 56.1667,24.5 57.8333,24.5 59.5,24.5C 59.5,22.8333 59.5,21.1667 59.5,19.5C 61.1667,19.5 62.8333,19.5 64.5,19.5 Z"/></g>
<g><path style="opacity:1" fill="#7a7a7a" d="M 125.5,14.5 C 125.5,16.1667 125.5,17.8333 125.5,19.5C 126.833,19.5 128.167,19.5 129.5,19.5C 129.5,21.1667 129.5,22.8333 129.5,24.5C 127.833,24.5 126.167,24.5 124.5,24.5C 124.187,20.9581 124.521,17.6248 125.5,14.5 Z"/></g>
<g><path style="opacity:1" fill="#4d4d4d" d="M 14.5,9.5 C 17.8333,9.5 21.1667,9.5 24.5,9.5C 24.5,11.1667 24.5,12.8333 24.5,14.5C 26.1667,14.5 27.8333,14.5 29.5,14.5C 29.5,17.8333 29.5,21.1667 29.5,24.5C 29.5,26.1667 29.5,27.8333 29.5,29.5C 27.8333,29.5 26.1667,29.5 24.5,29.5C 24.5,31.1667 24.5,32.8333 24.5,34.5C 22.8333,34.5 21.1667,34.5 19.5,34.5C 19.5,36.1667 19.5,37.8333 19.5,39.5C 17.8333,39.5 16.1667,39.5 14.5,39.5C 14.5,42.8333 14.5,46.1667 14.5,49.5C 11.1667,49.5 7.83333,49.5 4.5,49.5C 4.5,52.8333 4.5,56.1667 4.5,59.5C 4.5,61.1667 4.5,62.8333 4.5,64.5C 2.83333,64.5 1.16667,64.5 -0.5,64.5C -0.5,57.8333 -0.5,51.1667 -0.5,44.5C 1.16667,44.5 2.83333,44.5 4.5,44.5C 6.16667,44.5 7.83333,44.5 9.5,44.5C 9.5,34.5 9.5,24.5 9.5,14.5C 9.5,12.8333 9.5,11.1667 9.5,9.5C 11.1667,9.5 12.8333,9.5 14.5,9.5 Z"/></g>
<g><path style="opacity:1" fill="#7c7d7c" d="M 14.5,19.5 C 16.1667,19.5 17.8333,19.5 19.5,19.5C 19.5,21.1667 19.5,22.8333 19.5,24.5C 17.8333,24.5 16.1667,24.5 14.5,24.5C 14.5,22.8333 14.5,21.1667 14.5,19.5 Z"/></g>
<g><path style="opacity:1" fill="#7c7d7c" d="M 19.5,14.5 C 21.1667,14.5 22.8333,14.5 24.5,14.5C 24.5,16.1667 24.5,17.8333 24.5,19.5C 22.8333,19.5 21.1667,19.5 19.5,19.5C 19.5,17.8333 19.5,16.1667 19.5,14.5 Z"/></g>
<g><path style="opacity:1" fill="#b3b4b3" d="M 19.5,14.5 C 19.5,16.1667 19.5,17.8333 19.5,19.5C 17.8333,19.5 16.1667,19.5 14.5,19.5C 14.5,17.8333 14.5,16.1667 14.5,14.5C 16.1667,14.5 17.8333,14.5 19.5,14.5 Z"/></g>
<g><path style="opacity:1" fill="#5d5d5d" d="M 29.5,24.5 C 32.8333,24.5 36.1667,24.5 39.5,24.5C 39.5,27.8333 39.5,31.1667 39.5,34.5C 37.8333,34.5 36.1667,34.5 34.5,34.5C 34.5,36.1667 34.5,37.8333 34.5,39.5C 32.8333,39.5 31.1667,39.5 29.5,39.5C 29.5,41.1667 29.5,42.8333 29.5,44.5C 27.8333,44.5 26.1667,44.5 24.5,44.5C 24.5,46.1667 24.5,47.8333 24.5,49.5C 21.1667,49.5 17.8333,49.5 14.5,49.5C 14.5,46.1667 14.5,42.8333 14.5,39.5C 16.1667,39.5 17.8333,39.5 19.5,39.5C 19.5,37.8333 19.5,36.1667 19.5,34.5C 21.1667,34.5 22.8333,34.5 24.5,34.5C 24.5,32.8333 24.5,31.1667 24.5,29.5C 26.1667,29.5 27.8333,29.5 29.5,29.5C 29.5,27.8333 29.5,26.1667 29.5,24.5 Z"/></g>
<g><path style="opacity:1" fill="#5d5c5d" d="M 124.5,24.5 C 124.5,27.8333 124.5,31.1667 124.5,34.5C 122.833,34.5 121.167,34.5 119.5,34.5C 119.5,36.1667 119.5,37.8333 119.5,39.5C 116.167,39.5 112.833,39.5 109.5,39.5C 109.5,36.1667 109.5,32.8333 109.5,29.5C 111.167,29.5 112.833,29.5 114.5,29.5C 114.5,27.8333 114.5,26.1667 114.5,24.5C 117.833,24.5 121.167,24.5 124.5,24.5 Z"/></g>
<g><path style="opacity:1" fill="#7b7b7b" d="M 4.5,59.5 C 6.16667,59.5 7.83333,59.5 9.5,59.5C 9.5,61.1667 9.5,62.8333 9.5,64.5C 7.83333,64.5 6.16667,64.5 4.5,64.5C 4.5,62.8333 4.5,61.1667 4.5,59.5 Z"/></g>
<g><path style="opacity:1" fill="#7c7c7c" d="M -0.5,64.5 C 1.16667,64.5 2.83333,64.5 4.5,64.5C 4.5,74.5 4.5,84.5 4.5,94.5C 6.16667,94.5 7.83333,94.5 9.5,94.5C 9.5,92.8333 9.5,91.1667 9.5,89.5C 11.1667,89.5 12.8333,89.5 14.5,89.5C 14.5,92.8333 14.5,96.1667 14.5,99.5C 14.5,101.167 14.5,102.833 14.5,104.5C 12.8333,104.5 11.1667,104.5 9.5,104.5C 9.5,106.167 9.5,107.833 9.5,109.5C 7.83333,109.5 6.16667,109.5 4.5,109.5C 4.5,106.167 4.5,102.833 4.5,99.5C 2.83333,99.5 1.16667,99.5 -0.5,99.5C -0.5,87.8333 -0.5,76.1667 -0.5,64.5 Z"/></g>
<g><path style="opacity:1" fill="#5e5d5e" d="M 4.5,64.5 C 6.16667,64.5 7.83333,64.5 9.5,64.5C 9.5,72.8333 9.5,81.1667 9.5,89.5C 9.5,91.1667 9.5,92.8333 9.5,94.5C 7.83333,94.5 6.16667,94.5 4.5,94.5C 4.5,84.5 4.5,74.5 4.5,64.5 Z"/></g>
<g><path style="opacity:1" fill="#5d5c5d" d="M 14.5,99.5 C 14.5,96.1667 14.5,92.8333 14.5,89.5C 14.5,87.8333 14.5,86.1667 14.5,84.5C 17.8333,84.5 21.1667,84.5 24.5,84.5C 24.5,87.8333 24.5,91.1667 24.5,94.5C 22.8333,94.5 21.1667,94.5 19.5,94.5C 19.5,96.1667 19.5,97.8333 19.5,99.5C 17.8333,99.5 16.1667,99.5 14.5,99.5 Z"/></g>
<g><path style="opacity:1" fill="#706f70" d="M 149.5,89.5 C 149.5,93.1667 149.5,96.8333 149.5,100.5C 148.167,100.5 146.833,100.5 145.5,100.5C 145.5,111.833 145.5,123.167 145.5,134.5C 145.167,134.5 144.833,134.5 144.5,134.5C 144.5,123.167 144.5,111.833 144.5,100.5C 143.167,100.5 141.833,100.5 140.5,100.5C 139.659,98.6208 139.325,96.6208 139.5,94.5C 141.167,94.5 142.833,94.5 144.5,94.5C 144.5,92.8333 144.5,91.1667 144.5,89.5C 146.167,89.5 147.833,89.5 149.5,89.5 Z"/></g>
<g><path style="opacity:1" fill="#b2b2b2" d="M -0.5,99.5 C 1.16667,99.5 2.83333,99.5 4.5,99.5C 4.5,102.833 4.5,106.167 4.5,109.5C 2.83333,109.5 1.16667,109.5 -0.5,109.5C -0.5,106.167 -0.5,102.833 -0.5,99.5 Z"/></g>
<g><path style="opacity:1" fill="#5d5d5d" d="M 140.5,100.5 C 141.833,100.5 143.167,100.5 144.5,100.5C 144.5,111.833 144.5,123.167 144.5,134.5C 143.167,134.5 141.833,134.5 140.5,134.5C 140.5,123.167 140.5,111.833 140.5,100.5 Z"/></g>
<g><path style="opacity:1" fill="#7c7d7c" d="M 149.5,100.5 C 149.5,111.833 149.5,123.167 149.5,134.5C 148.167,134.5 146.833,134.5 145.5,134.5C 145.5,123.167 145.5,111.833 145.5,100.5C 146.833,100.5 148.167,100.5 149.5,100.5 Z"/></g>
<g><path style="opacity:1" fill="#7d7d7d" d="M -0.5,109.5 C 1.16667,109.5 2.83333,109.5 4.5,109.5C 4.5,117.833 4.5,126.167 4.5,134.5C 2.83333,134.5 1.16667,134.5 -0.5,134.5C -0.5,126.167 -0.5,117.833 -0.5,109.5 Z"/></g>
<g><path style="opacity:1" fill="#5e5d5e" d="M 4.5,109.5 C 6.16667,109.5 7.83333,109.5 9.5,109.5C 9.5,117.833 9.5,126.167 9.5,134.5C 7.83333,134.5 6.16667,134.5 4.5,134.5C 4.5,126.167 4.5,117.833 4.5,109.5 Z"/></g>
<g><path style="opacity:1" fill="#5d5c5d" d="M 29.5,109.5 C 32.8333,109.5 36.1667,109.5 39.5,109.5C 39.5,112.833 39.5,116.167 39.5,119.5C 37.8333,119.5 36.1667,119.5 34.5,119.5C 34.5,121.167 34.5,122.833 34.5,124.5C 31.1667,124.5 27.8333,124.5 24.5,124.5C 24.5,121.167 24.5,117.833 24.5,114.5C 26.1667,114.5 27.8333,114.5 29.5,114.5C 29.5,112.833 29.5,111.167 29.5,109.5 Z"/></g>
<g><path style="opacity:1" fill="#727272" d="M 89.5,109.5 C 89.5,111.5 89.5,113.5 89.5,115.5C 88.1667,115.5 86.8333,115.5 85.5,115.5C 85.5,116.833 85.5,118.167 85.5,119.5C 83.5,119.5 81.5,119.5 79.5,119.5C 79.5,117.833 79.5,116.167 79.5,114.5C 81.1667,114.5 82.8333,114.5 84.5,114.5C 84.5,112.833 84.5,111.167 84.5,109.5C 86.1667,109.5 87.8333,109.5 89.5,109.5 Z"/></g>
<g><path style="opacity:1" fill="#5d5c5d" d="M 89.5,109.5 C 90.4511,110.919 90.7845,112.585 90.5,114.5C 91.8333,114.5 93.1667,114.5 94.5,114.5C 94.5,117.833 94.5,121.167 94.5,124.5C 90.5,123.833 88.8333,125.5 89.5,129.5C 85.5,128.833 83.8333,130.5 84.5,134.5C 82.8333,134.5 81.1667,134.5 79.5,134.5C 79.5,136.167 79.5,137.833 79.5,139.5C 84.5,139.5 89.5,139.5 94.5,139.5C 93.8333,135.5 95.5,133.833 99.5,134.5C 98.8333,130.5 100.5,128.833 104.5,129.5C 104.5,128.167 104.5,126.833 104.5,125.5C 107.833,125.5 111.167,125.5 114.5,125.5C 114.5,128.5 114.5,131.5 114.5,134.5C 112.833,134.5 111.167,134.5 109.5,134.5C 109.5,136.5 109.5,138.5 109.5,140.5C 117.833,140.5 126.167,140.5 134.5,140.5C 134.5,141.833 134.5,143.167 134.5,144.5C 94.5,144.5 54.5,144.5 14.5,144.5C 14.5,143.167 14.5,141.833 14.5,140.5C 31.5,140.5 48.5,140.5 65.5,140.5C 65.5,138.5 65.5,136.5 65.5,134.5C 66.8333,134.5 68.1667,134.5 69.5,134.5C 68.8333,130.5 70.5,128.833 74.5,129.5C 73.8333,125.5 75.5,123.833 79.5,124.5C 79.5,122.833 79.5,121.167 79.5,119.5C 81.5,119.5 83.5,119.5 85.5,119.5C 85.5,118.167 85.5,116.833 85.5,115.5C 86.8333,115.5 88.1667,115.5 89.5,115.5C 89.5,113.5 89.5,111.5 89.5,109.5 Z"/></g>
<g><path style="opacity:1" fill="#7c7d7c" d="M 14.5,125.5 C 16.1667,125.5 17.8333,125.5 19.5,125.5C 19.5,126.833 19.5,128.167 19.5,129.5C 17.8333,129.5 16.1667,129.5 14.5,129.5C 14.5,128.167 14.5,126.833 14.5,125.5 Z"/></g>
<g><path style="opacity:1" fill="#878787" d="M 129.5,125.5 C 128.167,125.5 126.833,125.5 125.5,125.5C 125.5,126.833 125.5,128.167 125.5,129.5C 124.549,128.081 124.216,126.415 124.5,124.5C 126.415,124.216 128.081,124.549 129.5,125.5 Z"/></g>
<g><path style="opacity:1" fill="#b3b4b3" d="M 129.5,125.5 C 129.5,126.833 129.5,128.167 129.5,129.5C 128.167,129.5 126.833,129.5 125.5,129.5C 125.5,128.167 125.5,126.833 125.5,125.5C 126.833,125.5 128.167,125.5 129.5,125.5 Z"/></g>
<g><path style="opacity:1" fill="#808080" d="M 129.5,125.5 C 131.167,125.5 132.833,125.5 134.5,125.5C 134.5,126.833 134.5,128.167 134.5,129.5C 132.833,129.5 131.167,129.5 129.5,129.5C 129.5,128.167 129.5,126.833 129.5,125.5 Z"/></g>
<g><path style="opacity:1" fill="#808080" d="M 125.5,129.5 C 126.833,129.5 128.167,129.5 129.5,129.5C 129.5,131.167 129.5,132.833 129.5,134.5C 128.167,134.5 126.833,134.5 125.5,134.5C 125.5,132.833 125.5,131.167 125.5,129.5 Z"/></g>
<g><path style="opacity:0.938" fill="#b0b0b0" d="M -0.5,134.5 C 1.16667,134.5 2.83333,134.5 4.5,134.5C 4.5,137.833 4.5,141.167 4.5,144.5C 7.83333,144.5 11.1667,144.5 14.5,144.5C 14.5,146.167 14.5,147.833 14.5,149.5C 11.1667,149.5 7.83333,149.5 4.5,149.5C 4.5,148.167 4.5,146.833 4.5,145.5C 2.83333,145.5 1.16667,145.5 -0.5,145.5C -0.5,141.833 -0.5,138.167 -0.5,134.5 Z"/></g>
<g><path style="opacity:1" fill="#7b7b7b" d="M 4.5,134.5 C 6.16667,134.5 7.83333,134.5 9.5,134.5C 9.5,136.167 9.5,137.833 9.5,139.5C 11.4147,139.216 13.0813,139.549 14.5,140.5C 14.5,141.833 14.5,143.167 14.5,144.5C 11.1667,144.5 7.83333,144.5 4.5,144.5C 4.5,141.167 4.5,137.833 4.5,134.5 Z"/></g>
<g><path style="opacity:1" fill="#797979" d="M 140.5,134.5 C 141.833,134.5 143.167,134.5 144.5,134.5C 144.5,137.833 144.5,141.167 144.5,144.5C 141.167,144.5 137.833,144.5 134.5,144.5C 134.5,143.167 134.5,141.833 134.5,140.5C 135.919,139.549 137.585,139.216 139.5,139.5C 139.216,137.585 139.549,135.919 140.5,134.5 Z"/></g>
<g><path style="opacity:1" fill="#9d9d9d" d="M 144.5,134.5 C 144.833,134.5 145.167,134.5 145.5,134.5C 146.833,134.5 148.167,134.5 149.5,134.5C 149.5,134.833 149.5,135.167 149.5,135.5C 148.167,135.5 146.833,135.5 145.5,135.5C 145.5,138.833 145.5,142.167 145.5,145.5C 142.167,145.5 138.833,145.5 135.5,145.5C 135.5,146.833 135.5,148.167 135.5,149.5C 135.167,149.5 134.833,149.5 134.5,149.5C 134.5,147.833 134.5,146.167 134.5,144.5C 137.833,144.5 141.167,144.5 144.5,144.5C 144.5,141.167 144.5,137.833 144.5,134.5 Z"/></g>
<g><path style="opacity:0.938" fill="#b3b4b3" d="M 149.5,135.5 C 149.5,138.833 149.5,142.167 149.5,145.5C 148.167,145.5 146.833,145.5 145.5,145.5C 145.5,142.167 145.5,138.833 145.5,135.5C 146.833,135.5 148.167,135.5 149.5,135.5 Z"/></g>
<g><path style="opacity:1" fill="#7a7a7a" d="M 14.5,144.5 C 54.5,144.5 94.5,144.5 134.5,144.5C 134.5,146.167 134.5,147.833 134.5,149.5C 94.5,149.5 54.5,149.5 14.5,149.5C 14.5,147.833 14.5,146.167 14.5,144.5 Z"/></g>
<g><path style="opacity:0.938" fill="#b3b4b3" d="M 145.5,145.5 C 145.5,146.833 145.5,148.167 145.5,149.5C 142.167,149.5 138.833,149.5 135.5,149.5C 135.5,148.167 135.5,146.833 135.5,145.5C 138.833,145.5 142.167,145.5 145.5,145.5 Z"/></g>
</svg>
