<?xml version="1.0" encoding="UTF-8"?>
<svg xmlns="http://www.w3.org/2000/svg" xmlns:xlink="http://www.w3.org/1999/xlink" width="150px" height="30px" viewBox="0 0 150 30" version="1.1">
<g id="surface1">
<path style=" stroke:none;fill-rule:evenodd;fill:rgb(27.058824%,27.45098%,27.058824%);fill-opacity:1;" d="M -0.15625 -0.046875 C 49.84375 -0.046875 99.84375 -0.046875 149.84375 -0.046875 C 149.84375 9.953125 149.84375 19.953125 149.84375 29.953125 C 99.84375 29.953125 49.84375 29.953125 -0.15625 29.953125 C -0.15625 19.953125 -0.15625 9.953125 -0.15625 -0.046875 Z M -0.15625 -0.046875 "/>
<path style=" stroke:none;fill-rule:evenodd;fill:rgb(0%,71.764706%,93.72549%);fill-opacity:1;" d="M 9.863281 1.453125 C 9.863281 1.953125 9.863281 2.453125 9.863281 2.953125 C 8.195312 2.953125 6.523438 2.953125 4.855469 2.953125 C 4.855469 2.453125 4.855469 1.953125 4.855469 1.453125 C 6.523438 1.453125 8.195312 1.453125 9.863281 1.453125 Z M 9.863281 1.453125 "/>
<path style=" stroke:none;fill-rule:evenodd;fill:rgb(12.156863%,13.72549%,38.039216%);fill-opacity:1;" d="M 9.863281 1.453125 C 11.535156 1.453125 13.203125 1.453125 14.875 1.453125 C 14.875 1.953125 14.875 2.453125 14.875 2.953125 C 13.203125 2.953125 11.535156 2.953125 9.863281 2.953125 C 9.863281 2.453125 9.863281 1.953125 9.863281 1.453125 Z M 9.863281 1.453125 "/>
<path style=" stroke:none;fill-rule:evenodd;fill:rgb(18.431373%,20.784314%,60%);fill-opacity:1;" d="M 14.875 1.453125 C 16.542969 1.453125 18.214844 1.453125 19.886719 1.453125 C 19.886719 3.953125 19.886719 6.453125 19.886719 8.953125 C 18.214844 8.953125 16.542969 8.953125 14.875 8.953125 C 14.875 8.453125 14.875 7.953125 14.875 7.453125 C 13.203125 7.453125 11.535156 7.453125 9.863281 7.453125 C 9.863281 5.953125 9.863281 4.453125 9.863281 2.953125 C 11.535156 2.953125 13.203125 2.953125 14.875 2.953125 C 14.875 2.453125 14.875 1.953125 14.875 1.453125 Z M 14.875 1.453125 "/>
<path style=" stroke:none;fill-rule:evenodd;fill:rgb(12.156863%,13.72549%,38.039216%);fill-opacity:1;" d="M 19.886719 1.453125 C 21.554688 1.453125 23.226562 1.453125 24.894531 1.453125 C 24.894531 1.953125 24.894531 2.453125 24.894531 2.953125 C 28.234375 2.953125 31.574219 2.953125 34.917969 2.953125 C 38.257812 2.953125 41.597656 2.953125 44.9375 2.953125 C 48.277344 2.953125 51.617188 2.953125 54.957031 2.953125 C 58.296875 2.953125 61.640625 2.953125 64.980469 2.953125 C 71.660156 2.953125 78.339844 2.953125 85.019531 2.953125 C 88.359375 2.953125 91.703125 2.953125 95.042969 2.953125 C 98.382812 2.953125 101.722656 2.953125 105.0625 2.953125 C 108.402344 2.953125 111.742188 2.953125 115.082031 2.953125 C 118.425781 2.953125 121.765625 2.953125 125.105469 2.953125 C 125.105469 2.453125 125.105469 1.953125 125.105469 1.453125 C 126.773438 1.453125 128.445312 1.453125 130.113281 1.453125 C 130.113281 3.953125 130.113281 6.453125 130.113281 8.953125 C 131.785156 8.953125 133.457031 8.953125 135.125 8.953125 C 135.125 8.453125 135.125 7.953125 135.125 7.453125 C 136.796875 7.453125 138.464844 7.453125 140.136719 7.453125 C 140.136719 7.953125 140.136719 8.453125 140.136719 8.953125 C 140.136719 9.453125 140.136719 9.953125 140.136719 10.453125 C 141.804688 10.453125 143.476562 10.453125 145.144531 10.453125 C 145.144531 11.453125 145.144531 12.453125 145.144531 13.453125 C 141.804688 13.453125 138.464844 13.453125 135.125 13.453125 C 135.125 14.453125 135.125 15.453125 135.125 16.453125 C 138.464844 16.453125 141.804688 16.453125 145.144531 16.453125 C 145.144531 17.453125 145.144531 18.453125 145.144531 19.453125 C 143.476562 19.453125 141.804688 19.453125 140.136719 19.453125 C 140.136719 19.953125 140.136719 20.453125 140.136719 20.953125 C 140.136719 21.453125 140.136719 21.953125 140.136719 22.453125 C 138.464844 22.453125 136.796875 22.453125 135.125 22.453125 C 135.125 21.953125 135.125 21.453125 135.125 20.953125 C 133.457031 20.953125 131.785156 20.953125 130.113281 20.953125 C 130.113281 23.453125 130.113281 25.953125 130.113281 28.453125 C 128.445312 28.453125 126.773438 28.453125 125.105469 28.453125 C 125.105469 27.953125 125.105469 27.453125 125.105469 26.953125 C 121.765625 26.953125 118.425781 26.953125 115.082031 26.953125 C 111.742188 26.953125 108.402344 26.953125 105.0625 26.953125 C 101.722656 26.953125 98.382812 26.953125 95.042969 26.953125 C 91.703125 26.953125 88.359375 26.953125 85.019531 26.953125 C 78.339844 26.953125 71.660156 26.953125 64.980469 26.953125 C 61.640625 26.953125 58.296875 26.953125 54.957031 26.953125 C 51.617188 26.953125 48.277344 26.953125 44.9375 26.953125 C 41.597656 26.953125 38.257812 26.953125 34.917969 26.953125 C 31.574219 26.953125 28.234375 26.953125 24.894531 26.953125 C 24.894531 27.453125 24.894531 27.953125 24.894531 28.453125 C 23.226562 28.453125 21.554688 28.453125 19.886719 28.453125 C 19.886719 25.953125 19.886719 23.453125 19.886719 20.953125 C 18.214844 20.953125 16.542969 20.953125 14.875 20.953125 C 14.875 21.453125 14.875 21.953125 14.875 22.453125 C 13.203125 22.453125 11.535156 22.453125 9.863281 22.453125 C 9.863281 21.953125 9.863281 21.453125 9.863281 20.953125 C 9.863281 20.453125 9.863281 19.953125 9.863281 19.453125 C 8.195312 19.453125 6.523438 19.453125 4.855469 19.453125 C 4.855469 18.453125 4.855469 17.453125 4.855469 16.453125 C 8.195312 16.453125 11.535156 16.453125 14.875 16.453125 C 14.875 15.453125 14.875 14.453125 14.875 13.453125 C 11.535156 13.453125 8.195312 13.453125 4.855469 13.453125 C 4.855469 12.453125 4.855469 11.453125 4.855469 10.453125 C 6.523438 10.453125 8.195312 10.453125 9.863281 10.453125 C 9.863281 9.953125 9.863281 9.453125 9.863281 8.953125 C 9.863281 8.453125 9.863281 7.953125 9.863281 7.453125 C 11.535156 7.453125 13.203125 7.453125 14.875 7.453125 C 14.875 7.953125 14.875 8.453125 14.875 8.953125 C 16.542969 8.953125 18.214844 8.953125 19.886719 8.953125 C 19.886719 6.453125 19.886719 3.953125 19.886719 1.453125 Z M 19.886719 1.453125 "/>
<path style=" stroke:none;fill-rule:evenodd;fill:rgb(18.431373%,20.784314%,60%);fill-opacity:1;" d="M 24.894531 1.453125 C 28.234375 1.453125 31.574219 1.453125 34.917969 1.453125 C 34.917969 1.953125 34.917969 2.453125 34.917969 2.953125 C 31.574219 2.953125 28.234375 2.953125 24.894531 2.953125 C 24.894531 2.453125 24.894531 1.953125 24.894531 1.453125 Z M 24.894531 1.453125 "/>
<path style=" stroke:none;fill-rule:evenodd;fill:rgb(30.196078%,42.745098%,95.294118%);fill-opacity:1;" d="M 34.917969 1.453125 C 38.257812 1.453125 41.597656 1.453125 44.9375 1.453125 C 44.9375 1.953125 44.9375 2.453125 44.9375 2.953125 C 41.597656 2.953125 38.257812 2.953125 34.917969 2.953125 C 34.917969 2.453125 34.917969 1.953125 34.917969 1.453125 Z M 34.917969 1.453125 "/>
<path style=" stroke:none;fill-rule:evenodd;fill:rgb(43.921569%,60.392157%,81.960784%);fill-opacity:1;" d="M 44.9375 1.453125 C 48.277344 1.453125 51.617188 1.453125 54.957031 1.453125 C 54.957031 1.953125 54.957031 2.453125 54.957031 2.953125 C 51.617188 2.953125 48.277344 2.953125 44.9375 2.953125 C 44.9375 2.453125 44.9375 1.953125 44.9375 1.453125 Z M 44.9375 1.453125 "/>
<path style=" stroke:none;fill-rule:evenodd;fill:rgb(54.901961%,65.098039%,77.647059%);fill-opacity:1;" d="M 54.957031 1.453125 C 58.296875 1.453125 61.640625 1.453125 64.980469 1.453125 C 64.980469 1.953125 64.980469 2.453125 64.980469 2.953125 C 61.640625 2.953125 58.296875 2.953125 54.957031 2.953125 C 54.957031 2.453125 54.957031 1.953125 54.957031 1.453125 Z M 54.957031 1.453125 "/>
<path style=" stroke:none;fill-rule:evenodd;fill:rgb(68.627451%,78.431373%,90.588235%);fill-opacity:1;" d="M 64.980469 1.453125 C 71.660156 1.453125 78.339844 1.453125 85.019531 1.453125 C 85.019531 1.953125 85.019531 2.453125 85.019531 2.953125 C 78.339844 2.953125 71.660156 2.953125 64.980469 2.953125 C 64.980469 2.453125 64.980469 1.953125 64.980469 1.453125 Z M 64.980469 1.453125 "/>
<path style=" stroke:none;fill-rule:evenodd;fill:rgb(54.901961%,65.098039%,77.647059%);fill-opacity:1;" d="M 85.019531 1.453125 C 88.359375 1.453125 91.703125 1.453125 95.042969 1.453125 C 95.042969 1.953125 95.042969 2.453125 95.042969 2.953125 C 91.703125 2.953125 88.359375 2.953125 85.019531 2.953125 C 85.019531 2.453125 85.019531 1.953125 85.019531 1.453125 Z M 85.019531 1.453125 "/>
<path style=" stroke:none;fill-rule:evenodd;fill:rgb(43.921569%,60.392157%,81.960784%);fill-opacity:1;" d="M 95.042969 1.453125 C 98.382812 1.453125 101.722656 1.453125 105.0625 1.453125 C 105.0625 1.953125 105.0625 2.453125 105.0625 2.953125 C 101.722656 2.953125 98.382812 2.953125 95.042969 2.953125 C 95.042969 2.453125 95.042969 1.953125 95.042969 1.453125 Z M 95.042969 1.453125 "/>
<path style=" stroke:none;fill-rule:evenodd;fill:rgb(30.196078%,42.745098%,95.294118%);fill-opacity:1;" d="M 105.0625 1.453125 C 108.402344 1.453125 111.742188 1.453125 115.082031 1.453125 C 115.082031 1.953125 115.082031 2.453125 115.082031 2.953125 C 111.742188 2.953125 108.402344 2.953125 105.0625 2.953125 C 105.0625 2.453125 105.0625 1.953125 105.0625 1.453125 Z M 105.0625 1.453125 "/>
<path style=" stroke:none;fill-rule:evenodd;fill:rgb(18.431373%,20.784314%,60%);fill-opacity:1;" d="M 115.082031 1.453125 C 118.425781 1.453125 121.765625 1.453125 125.105469 1.453125 C 125.105469 1.953125 125.105469 2.453125 125.105469 2.953125 C 121.765625 2.953125 118.425781 2.953125 115.082031 2.953125 C 115.082031 2.453125 115.082031 1.953125 115.082031 1.453125 Z M 115.082031 1.453125 "/>
<path style=" stroke:none;fill-rule:evenodd;fill:rgb(18.431373%,20.784314%,60%);fill-opacity:1;" d="M 130.113281 1.453125 C 131.785156 1.453125 133.457031 1.453125 135.125 1.453125 C 135.125 1.953125 135.125 2.453125 135.125 2.953125 C 136.796875 2.953125 138.464844 2.953125 140.136719 2.953125 C 140.136719 4.453125 140.136719 5.953125 140.136719 7.453125 C 138.464844 7.453125 136.796875 7.453125 135.125 7.453125 C 135.125 7.953125 135.125 8.453125 135.125 8.953125 C 133.457031 8.953125 131.785156 8.953125 130.113281 8.953125 C 130.113281 6.453125 130.113281 3.953125 130.113281 1.453125 Z M 130.113281 1.453125 "/>
<path style=" stroke:none;fill-rule:evenodd;fill:rgb(12.156863%,13.72549%,38.039216%);fill-opacity:1;" d="M 135.125 1.453125 C 136.796875 1.453125 138.464844 1.453125 140.136719 1.453125 C 140.136719 1.953125 140.136719 2.453125 140.136719 2.953125 C 138.464844 2.953125 136.796875 2.953125 135.125 2.953125 C 135.125 2.453125 135.125 1.953125 135.125 1.453125 Z M 135.125 1.453125 "/>
<path style=" stroke:none;fill-rule:evenodd;fill:rgb(0%,71.764706%,93.72549%);fill-opacity:1;" d="M 140.136719 1.453125 C 141.804688 1.453125 143.476562 1.453125 145.144531 1.453125 C 145.144531 1.953125 145.144531 2.453125 145.144531 2.953125 C 143.476562 2.953125 141.804688 2.953125 140.136719 2.953125 C 140.136719 2.453125 140.136719 1.953125 140.136719 1.453125 Z M 140.136719 1.453125 "/>
<path style=" stroke:none;fill-rule:evenodd;fill:rgb(60%,85.098039%,91.372549%);fill-opacity:1;" d="M 4.855469 2.953125 C 6.523438 2.953125 8.195312 2.953125 9.863281 2.953125 C 9.863281 4.453125 9.863281 5.953125 9.863281 7.453125 C 9.863281 7.953125 9.863281 8.453125 9.863281 8.953125 C 8.195312 8.953125 6.523438 8.953125 4.855469 8.953125 C 4.855469 6.953125 4.855469 4.953125 4.855469 2.953125 Z M 4.855469 2.953125 "/>
<path style=" stroke:none;fill-rule:evenodd;fill:rgb(60%,85.098039%,91.372549%);fill-opacity:1;" d="M 140.136719 2.953125 C 141.804688 2.953125 143.476562 2.953125 145.144531 2.953125 C 145.144531 4.953125 145.144531 6.953125 145.144531 8.953125 C 143.476562 8.953125 141.804688 8.953125 140.136719 8.953125 C 140.136719 8.453125 140.136719 7.953125 140.136719 7.453125 C 140.136719 5.953125 140.136719 4.453125 140.136719 2.953125 Z M 140.136719 2.953125 "/>
<path style=" stroke:none;fill-rule:evenodd;fill:rgb(42.745098%,47.45098%,53.72549%);fill-opacity:1;" d="M 34.917969 5.953125 C 34.917969 6.453125 34.917969 6.953125 34.917969 7.453125 C 33.246094 7.453125 31.574219 7.453125 29.90625 7.453125 C 29.90625 7.953125 29.90625 8.453125 29.90625 8.953125 C 28.234375 8.953125 26.566406 8.953125 24.894531 8.953125 C 24.894531 7.953125 24.894531 6.953125 24.894531 5.953125 C 28.234375 5.953125 31.574219 5.953125 34.917969 5.953125 Z M 34.917969 5.953125 "/>
<path style=" stroke:none;fill-rule:evenodd;fill:rgb(61.960784%,65.882353%,70.588235%);fill-opacity:1;" d="M 34.917969 5.953125 C 43.265625 5.953125 51.617188 5.953125 59.96875 5.953125 C 59.96875 6.953125 59.96875 7.953125 59.96875 8.953125 C 58.296875 8.953125 56.628906 8.953125 54.957031 8.953125 C 54.957031 8.453125 54.957031 7.953125 54.957031 7.453125 C 49.949219 7.453125 44.9375 7.453125 39.925781 7.453125 C 39.925781 7.953125 39.925781 8.453125 39.925781 8.953125 C 38.257812 8.953125 36.585938 8.953125 34.917969 8.953125 C 34.917969 9.453125 34.917969 9.953125 34.917969 10.453125 C 33.246094 10.453125 31.574219 10.453125 29.90625 10.453125 C 29.90625 10.953125 29.90625 11.453125 29.90625 11.953125 C 28.234375 11.953125 26.566406 11.953125 24.894531 11.953125 C 24.894531 13.953125 24.894531 15.953125 24.894531 17.953125 C 26.566406 17.953125 28.234375 17.953125 29.90625 17.953125 C 29.90625 18.453125 29.90625 18.953125 29.90625 19.453125 C 31.574219 19.453125 33.246094 19.453125 34.917969 19.453125 C 34.917969 19.953125 34.917969 20.453125 34.917969 20.953125 C 36.585938 20.953125 38.257812 20.953125 39.925781 20.953125 C 39.925781 21.453125 39.925781 21.953125 39.925781 22.453125 C 44.9375 22.453125 49.949219 22.453125 54.957031 22.453125 C 54.957031 21.953125 54.957031 21.453125 54.957031 20.953125 C 56.628906 20.953125 58.296875 20.953125 59.96875 20.953125 C 59.96875 21.953125 59.96875 22.953125 59.96875 23.953125 C 51.617188 23.953125 43.265625 23.953125 34.917969 23.953125 C 34.917969 23.453125 34.917969 22.953125 34.917969 22.453125 C 33.246094 22.453125 31.574219 22.453125 29.90625 22.453125 C 29.90625 21.953125 29.90625 21.453125 29.90625 20.953125 C 28.234375 20.953125 26.566406 20.953125 24.894531 20.953125 C 24.894531 20.453125 24.894531 19.953125 24.894531 19.453125 C 23.226562 19.453125 21.554688 19.453125 19.886719 19.453125 C 19.886719 16.453125 19.886719 13.453125 19.886719 10.453125 C 21.554688 10.453125 23.226562 10.453125 24.894531 10.453125 C 24.894531 9.953125 24.894531 9.453125 24.894531 8.953125 C 26.566406 8.953125 28.234375 8.953125 29.90625 8.953125 C 29.90625 8.453125 29.90625 7.953125 29.90625 7.453125 C 31.574219 7.453125 33.246094 7.453125 34.917969 7.453125 C 34.917969 6.953125 34.917969 6.453125 34.917969 5.953125 Z M 34.917969 5.953125 "/>
<path style=" stroke:none;fill-rule:evenodd;fill:rgb(0%,71.764706%,93.72549%);fill-opacity:1;" d="M 59.96875 5.953125 C 61.640625 5.953125 63.308594 5.953125 64.980469 5.953125 C 64.980469 7.953125 64.980469 9.953125 64.980469 11.953125 C 64.980469 13.953125 64.980469 15.953125 64.980469 17.953125 C 64.980469 19.953125 64.980469 21.953125 64.980469 23.953125 C 63.308594 23.953125 61.640625 23.953125 59.96875 23.953125 C 59.96875 22.953125 59.96875 21.953125 59.96875 20.953125 C 59.96875 19.953125 59.96875 18.953125 59.96875 17.953125 C 59.96875 15.953125 59.96875 13.953125 59.96875 11.953125 C 59.96875 10.953125 59.96875 9.953125 59.96875 8.953125 C 59.96875 7.953125 59.96875 6.953125 59.96875 5.953125 Z M 59.96875 5.953125 "/>
<path style=" stroke:none;fill-rule:evenodd;fill:rgb(61.960784%,65.882353%,70.588235%);fill-opacity:1;" d="M 64.980469 5.953125 C 66.648438 5.953125 68.320312 5.953125 69.988281 5.953125 C 69.988281 7.453125 69.988281 8.953125 69.988281 10.453125 C 69.988281 10.953125 69.988281 11.453125 69.988281 11.953125 C 68.320312 11.953125 66.648438 11.953125 64.980469 11.953125 C 64.980469 9.953125 64.980469 7.953125 64.980469 5.953125 Z M 64.980469 5.953125 "/>
<path style=" stroke:none;fill-rule:evenodd;fill:rgb(43.921569%,60.392157%,81.960784%);fill-opacity:1;" d="M 69.988281 5.953125 C 73.328125 5.953125 76.671875 5.953125 80.011719 5.953125 C 80.011719 7.453125 80.011719 8.953125 80.011719 10.453125 C 76.671875 10.453125 73.328125 10.453125 69.988281 10.453125 C 69.988281 8.953125 69.988281 7.453125 69.988281 5.953125 Z M 69.988281 5.953125 "/>
<path style=" stroke:none;fill-rule:evenodd;fill:rgb(61.960784%,65.882353%,70.588235%);fill-opacity:1;" d="M 80.011719 5.953125 C 81.679688 5.953125 83.351562 5.953125 85.019531 5.953125 C 85.019531 7.953125 85.019531 9.953125 85.019531 11.953125 C 83.351562 11.953125 81.679688 11.953125 80.011719 11.953125 C 80.011719 11.453125 80.011719 10.953125 80.011719 10.453125 C 80.011719 8.953125 80.011719 7.453125 80.011719 5.953125 Z M 80.011719 5.953125 "/>
<path style=" stroke:none;fill-rule:evenodd;fill:rgb(0%,71.764706%,93.72549%);fill-opacity:1;" d="M 85.019531 5.953125 C 86.691406 5.953125 88.359375 5.953125 90.03125 5.953125 C 90.03125 6.953125 90.03125 7.953125 90.03125 8.953125 C 90.03125 9.953125 90.03125 10.953125 90.03125 11.953125 C 90.03125 13.953125 90.03125 15.953125 90.03125 17.953125 C 90.03125 18.953125 90.03125 19.953125 90.03125 20.953125 C 90.03125 21.953125 90.03125 22.953125 90.03125 23.953125 C 88.359375 23.953125 86.691406 23.953125 85.019531 23.953125 C 85.019531 21.953125 85.019531 19.953125 85.019531 17.953125 C 85.019531 15.953125 85.019531 13.953125 85.019531 11.953125 C 85.019531 9.953125 85.019531 7.953125 85.019531 5.953125 Z M 85.019531 5.953125 "/>
<path style=" stroke:none;fill-rule:evenodd;fill:rgb(61.960784%,65.882353%,70.588235%);fill-opacity:1;" d="M 90.03125 5.953125 C 98.382812 5.953125 106.734375 5.953125 115.082031 5.953125 C 115.082031 6.453125 115.082031 6.953125 115.082031 7.453125 C 116.753906 7.453125 118.425781 7.453125 120.09375 7.453125 C 120.09375 7.953125 120.09375 8.453125 120.09375 8.953125 C 121.765625 8.953125 123.433594 8.953125 125.105469 8.953125 C 125.105469 9.453125 125.105469 9.953125 125.105469 10.453125 C 126.773438 10.453125 128.445312 10.453125 130.113281 10.453125 C 130.113281 13.453125 130.113281 16.453125 130.113281 19.453125 C 128.445312 19.453125 126.773438 19.453125 125.105469 19.453125 C 125.105469 19.953125 125.105469 20.453125 125.105469 20.953125 C 123.433594 20.953125 121.765625 20.953125 120.09375 20.953125 C 120.09375 21.453125 120.09375 21.953125 120.09375 22.453125 C 118.425781 22.453125 116.753906 22.453125 115.082031 22.453125 C 115.082031 22.953125 115.082031 23.453125 115.082031 23.953125 C 106.734375 23.953125 98.382812 23.953125 90.03125 23.953125 C 90.03125 22.953125 90.03125 21.953125 90.03125 20.953125 C 91.703125 20.953125 93.371094 20.953125 95.042969 20.953125 C 95.042969 21.453125 95.042969 21.953125 95.042969 22.453125 C 100.050781 22.453125 105.0625 22.453125 110.074219 22.453125 C 110.074219 21.953125 110.074219 21.453125 110.074219 20.953125 C 111.742188 20.953125 113.414062 20.953125 115.082031 20.953125 C 115.082031 20.453125 115.082031 19.953125 115.082031 19.453125 C 116.753906 19.453125 118.425781 19.453125 120.09375 19.453125 C 120.09375 18.953125 120.09375 18.453125 120.09375 17.953125 C 121.765625 17.953125 123.433594 17.953125 125.105469 17.953125 C 125.105469 15.953125 125.105469 13.953125 125.105469 11.953125 C 123.433594 11.953125 121.765625 11.953125 120.09375 11.953125 C 120.09375 11.453125 120.09375 10.953125 120.09375 10.453125 C 118.425781 10.453125 116.753906 10.453125 115.082031 10.453125 C 115.082031 9.953125 115.082031 9.453125 115.082031 8.953125 C 113.414062 8.953125 111.742188 8.953125 110.074219 8.953125 C 110.074219 8.453125 110.074219 7.953125 110.074219 7.453125 C 105.0625 7.453125 100.050781 7.453125 95.042969 7.453125 C 95.042969 7.953125 95.042969 8.453125 95.042969 8.953125 C 93.371094 8.953125 91.703125 8.953125 90.03125 8.953125 C 90.03125 7.953125 90.03125 6.953125 90.03125 5.953125 Z M 90.03125 5.953125 "/>
<path style=" stroke:none;fill-rule:evenodd;fill:rgb(42.745098%,47.45098%,53.72549%);fill-opacity:1;" d="M 115.082031 5.953125 C 118.425781 5.953125 121.765625 5.953125 125.105469 5.953125 C 125.105469 6.953125 125.105469 7.953125 125.105469 8.953125 C 123.433594 8.953125 121.765625 8.953125 120.09375 8.953125 C 120.09375 8.453125 120.09375 7.953125 120.09375 7.453125 C 118.425781 7.453125 116.753906 7.453125 115.082031 7.453125 C 115.082031 6.953125 115.082031 6.453125 115.082031 5.953125 Z M 115.082031 5.953125 "/>
<path style=" stroke:none;fill-rule:evenodd;fill:rgb(43.921569%,60.392157%,81.960784%);fill-opacity:1;" d="M 59.96875 8.953125 C 59.96875 9.953125 59.96875 10.953125 59.96875 11.953125 C 58.296875 11.953125 56.628906 11.953125 54.957031 11.953125 C 54.957031 11.453125 54.957031 10.953125 54.957031 10.453125 C 53.289062 10.453125 51.617188 10.453125 49.949219 10.453125 C 49.949219 9.953125 49.949219 9.453125 49.949219 8.953125 C 46.605469 8.953125 43.265625 8.953125 39.925781 8.953125 C 39.925781 8.453125 39.925781 7.953125 39.925781 7.453125 C 44.9375 7.453125 49.949219 7.453125 54.957031 7.453125 C 54.957031 7.953125 54.957031 8.453125 54.957031 8.953125 C 56.628906 8.953125 58.296875 8.953125 59.96875 8.953125 Z M 59.96875 8.953125 "/>
<path style=" stroke:none;fill-rule:evenodd;fill:rgb(43.921569%,60.392157%,81.960784%);fill-opacity:1;" d="M 110.074219 8.953125 C 106.734375 8.953125 103.394531 8.953125 100.050781 8.953125 C 100.050781 9.453125 100.050781 9.953125 100.050781 10.453125 C 98.382812 10.453125 96.710938 10.453125 95.042969 10.453125 C 95.042969 10.953125 95.042969 11.453125 95.042969 11.953125 C 93.371094 11.953125 91.703125 11.953125 90.03125 11.953125 C 90.03125 10.953125 90.03125 9.953125 90.03125 8.953125 C 91.703125 8.953125 93.371094 8.953125 95.042969 8.953125 C 95.042969 8.453125 95.042969 7.953125 95.042969 7.453125 C 100.050781 7.453125 105.0625 7.453125 110.074219 7.453125 C 110.074219 7.953125 110.074219 8.453125 110.074219 8.953125 Z M 110.074219 8.953125 "/>
<path style=" stroke:none;fill-rule:evenodd;fill:rgb(0%,71.764706%,93.72549%);fill-opacity:1;" d="M 4.855469 8.953125 C 6.523438 8.953125 8.195312 8.953125 9.863281 8.953125 C 9.863281 9.453125 9.863281 9.953125 9.863281 10.453125 C 8.195312 10.453125 6.523438 10.453125 4.855469 10.453125 C 4.855469 9.953125 4.855469 9.453125 4.855469 8.953125 Z M 4.855469 8.953125 "/>
<path style=" stroke:none;fill-rule:evenodd;fill:rgb(0%,71.764706%,93.72549%);fill-opacity:1;" d="M 39.925781 8.953125 C 43.265625 8.953125 46.605469 8.953125 49.949219 8.953125 C 49.949219 9.453125 49.949219 9.953125 49.949219 10.453125 C 46.605469 10.453125 43.265625 10.453125 39.925781 10.453125 C 39.925781 10.953125 39.925781 11.453125 39.925781 11.953125 C 38.257812 11.953125 36.585938 11.953125 34.917969 11.953125 C 34.917969 12.453125 34.917969 12.953125 34.917969 13.453125 C 33.246094 13.453125 31.574219 13.453125 29.90625 13.453125 C 29.90625 14.453125 29.90625 15.453125 29.90625 16.453125 C 31.574219 16.453125 33.246094 16.453125 34.917969 16.453125 C 34.917969 16.953125 34.917969 17.453125 34.917969 17.953125 C 36.585938 17.953125 38.257812 17.953125 39.925781 17.953125 C 39.925781 18.453125 39.925781 18.953125 39.925781 19.453125 C 43.265625 19.453125 46.605469 19.453125 49.949219 19.453125 C 49.949219 19.953125 49.949219 20.453125 49.949219 20.953125 C 46.605469 20.953125 43.265625 20.953125 39.925781 20.953125 C 38.257812 20.953125 36.585938 20.953125 34.917969 20.953125 C 34.917969 20.453125 34.917969 19.953125 34.917969 19.453125 C 33.246094 19.453125 31.574219 19.453125 29.90625 19.453125 C 29.90625 18.953125 29.90625 18.453125 29.90625 17.953125 C 28.234375 17.953125 26.566406 17.953125 24.894531 17.953125 C 24.894531 15.953125 24.894531 13.953125 24.894531 11.953125 C 26.566406 11.953125 28.234375 11.953125 29.90625 11.953125 C 29.90625 11.453125 29.90625 10.953125 29.90625 10.453125 C 31.574219 10.453125 33.246094 10.453125 34.917969 10.453125 C 34.917969 9.953125 34.917969 9.453125 34.917969 8.953125 C 36.585938 8.953125 38.257812 8.953125 39.925781 8.953125 Z M 39.925781 8.953125 "/>
<path style=" stroke:none;fill-rule:evenodd;fill:rgb(0%,71.764706%,93.72549%);fill-opacity:1;" d="M 110.074219 8.953125 C 111.742188 8.953125 113.414062 8.953125 115.082031 8.953125 C 115.082031 9.453125 115.082031 9.953125 115.082031 10.453125 C 116.753906 10.453125 118.425781 10.453125 120.09375 10.453125 C 120.09375 10.953125 120.09375 11.453125 120.09375 11.953125 C 121.765625 11.953125 123.433594 11.953125 125.105469 11.953125 C 125.105469 13.953125 125.105469 15.953125 125.105469 17.953125 C 123.433594 17.953125 121.765625 17.953125 120.09375 17.953125 C 120.09375 18.453125 120.09375 18.953125 120.09375 19.453125 C 118.425781 19.453125 116.753906 19.453125 115.082031 19.453125 C 115.082031 19.953125 115.082031 20.453125 115.082031 20.953125 C 113.414062 20.953125 111.742188 20.953125 110.074219 20.953125 C 106.734375 20.953125 103.394531 20.953125 100.050781 20.953125 C 100.050781 20.453125 100.050781 19.953125 100.050781 19.453125 C 103.394531 19.453125 106.734375 19.453125 110.074219 19.453125 C 110.074219 18.953125 110.074219 18.453125 110.074219 17.953125 C 111.742188 17.953125 113.414062 17.953125 115.082031 17.953125 C 115.082031 17.453125 115.082031 16.953125 115.082031 16.453125 C 116.753906 16.453125 118.425781 16.453125 120.09375 16.453125 C 120.09375 15.453125 120.09375 14.453125 120.09375 13.453125 C 118.425781 13.453125 116.753906 13.453125 115.082031 13.453125 C 115.082031 12.953125 115.082031 12.453125 115.082031 11.953125 C 113.414062 11.953125 111.742188 11.953125 110.074219 11.953125 C 110.074219 11.453125 110.074219 10.953125 110.074219 10.453125 C 106.734375 10.453125 103.394531 10.453125 100.050781 10.453125 C 100.050781 9.953125 100.050781 9.453125 100.050781 8.953125 C 103.394531 8.953125 106.734375 8.953125 110.074219 8.953125 Z M 110.074219 8.953125 "/>
<path style=" stroke:none;fill-rule:evenodd;fill:rgb(0%,71.764706%,93.72549%);fill-opacity:1;" d="M 140.136719 8.953125 C 141.804688 8.953125 143.476562 8.953125 145.144531 8.953125 C 145.144531 9.453125 145.144531 9.953125 145.144531 10.453125 C 143.476562 10.453125 141.804688 10.453125 140.136719 10.453125 C 140.136719 9.953125 140.136719 9.453125 140.136719 8.953125 Z M 140.136719 8.953125 "/>
<path style=" stroke:none;fill-rule:evenodd;fill:rgb(60%,85.098039%,91.372549%);fill-opacity:1;" d="M 49.949219 10.453125 C 51.617188 10.453125 53.289062 10.453125 54.957031 10.453125 C 54.957031 10.953125 54.957031 11.453125 54.957031 11.953125 C 54.957031 13.953125 54.957031 15.953125 54.957031 17.953125 C 54.957031 18.453125 54.957031 18.953125 54.957031 19.453125 C 53.289062 19.453125 51.617188 19.453125 49.949219 19.453125 C 46.605469 19.453125 43.265625 19.453125 39.925781 19.453125 C 39.925781 18.953125 39.925781 18.453125 39.925781 17.953125 C 38.257812 17.953125 36.585938 17.953125 34.917969 17.953125 C 34.917969 17.453125 34.917969 16.953125 34.917969 16.453125 C 33.246094 16.453125 31.574219 16.453125 29.90625 16.453125 C 29.90625 15.453125 29.90625 14.453125 29.90625 13.453125 C 31.574219 13.453125 33.246094 13.453125 34.917969 13.453125 C 34.917969 12.953125 34.917969 12.453125 34.917969 11.953125 C 36.585938 11.953125 38.257812 11.953125 39.925781 11.953125 C 39.925781 11.453125 39.925781 10.953125 39.925781 10.453125 C 43.265625 10.453125 46.605469 10.453125 49.949219 10.453125 Z M 49.949219 10.453125 "/>
<path style=" stroke:none;fill-rule:evenodd;fill:rgb(30.196078%,42.745098%,95.294118%);fill-opacity:1;" d="M 69.988281 10.453125 C 73.328125 10.453125 76.671875 10.453125 80.011719 10.453125 C 80.011719 10.953125 80.011719 11.453125 80.011719 11.953125 C 76.671875 11.953125 73.328125 11.953125 69.988281 11.953125 C 69.988281 11.453125 69.988281 10.953125 69.988281 10.453125 Z M 69.988281 10.453125 "/>
<path style=" stroke:none;fill-rule:evenodd;fill:rgb(60%,85.098039%,91.372549%);fill-opacity:1;" d="M 100.050781 10.453125 C 103.394531 10.453125 106.734375 10.453125 110.074219 10.453125 C 110.074219 10.953125 110.074219 11.453125 110.074219 11.953125 C 111.742188 11.953125 113.414062 11.953125 115.082031 11.953125 C 115.082031 12.453125 115.082031 12.953125 115.082031 13.453125 C 116.753906 13.453125 118.425781 13.453125 120.09375 13.453125 C 120.09375 14.453125 120.09375 15.453125 120.09375 16.453125 C 118.425781 16.453125 116.753906 16.453125 115.082031 16.453125 C 115.082031 16.953125 115.082031 17.453125 115.082031 17.953125 C 113.414062 17.953125 111.742188 17.953125 110.074219 17.953125 C 110.074219 18.453125 110.074219 18.953125 110.074219 19.453125 C 106.734375 19.453125 103.394531 19.453125 100.050781 19.453125 C 98.382812 19.453125 96.710938 19.453125 95.042969 19.453125 C 95.042969 18.953125 95.042969 18.453125 95.042969 17.953125 C 95.042969 15.953125 95.042969 13.953125 95.042969 11.953125 C 95.042969 11.453125 95.042969 10.953125 95.042969 10.453125 C 96.710938 10.453125 98.382812 10.453125 100.050781 10.453125 Z M 100.050781 10.453125 "/>
<path style=" stroke:none;fill-rule:evenodd;fill:rgb(61.960784%,65.882353%,70.588235%);fill-opacity:1;" d="M 54.957031 11.953125 C 56.628906 11.953125 58.296875 11.953125 59.96875 11.953125 C 59.96875 13.953125 59.96875 15.953125 59.96875 17.953125 C 58.296875 17.953125 56.628906 17.953125 54.957031 17.953125 C 54.957031 15.953125 54.957031 13.953125 54.957031 11.953125 Z M 54.957031 11.953125 "/>
<path style=" stroke:none;fill-rule:evenodd;fill:rgb(30.196078%,42.745098%,95.294118%);fill-opacity:1;" d="M 64.980469 11.953125 C 66.648438 11.953125 68.320312 11.953125 69.988281 11.953125 C 69.988281 13.953125 69.988281 15.953125 69.988281 17.953125 C 68.320312 17.953125 66.648438 17.953125 64.980469 17.953125 C 64.980469 15.953125 64.980469 13.953125 64.980469 11.953125 Z M 64.980469 11.953125 "/>
<path style=" stroke:none;fill-rule:evenodd;fill:rgb(43.921569%,60.392157%,81.960784%);fill-opacity:1;" d="M 69.988281 11.953125 C 73.328125 11.953125 76.671875 11.953125 80.011719 11.953125 C 80.011719 13.953125 80.011719 15.953125 80.011719 17.953125 C 76.671875 17.953125 73.328125 17.953125 69.988281 17.953125 C 69.988281 15.953125 69.988281 13.953125 69.988281 11.953125 Z M 69.988281 11.953125 "/>
<path style=" stroke:none;fill-rule:evenodd;fill:rgb(30.196078%,42.745098%,95.294118%);fill-opacity:1;" d="M 80.011719 11.953125 C 81.679688 11.953125 83.351562 11.953125 85.019531 11.953125 C 85.019531 13.953125 85.019531 15.953125 85.019531 17.953125 C 83.351562 17.953125 81.679688 17.953125 80.011719 17.953125 C 80.011719 15.953125 80.011719 13.953125 80.011719 11.953125 Z M 80.011719 11.953125 "/>
<path style=" stroke:none;fill-rule:evenodd;fill:rgb(61.960784%,65.882353%,70.588235%);fill-opacity:1;" d="M 90.03125 11.953125 C 91.703125 11.953125 93.371094 11.953125 95.042969 11.953125 C 95.042969 13.953125 95.042969 15.953125 95.042969 17.953125 C 93.371094 17.953125 91.703125 17.953125 90.03125 17.953125 C 90.03125 15.953125 90.03125 13.953125 90.03125 11.953125 Z M 90.03125 11.953125 "/>
<path style=" stroke:none;fill-rule:evenodd;fill:rgb(18.431373%,20.784314%,60%);fill-opacity:1;" d="M 4.855469 13.453125 C 8.195312 13.453125 11.535156 13.453125 14.875 13.453125 C 14.875 14.453125 14.875 15.453125 14.875 16.453125 C 11.535156 16.453125 8.195312 16.453125 4.855469 16.453125 C 4.855469 15.453125 4.855469 14.453125 4.855469 13.453125 Z M 4.855469 13.453125 "/>
<path style=" stroke:none;fill-rule:evenodd;fill:rgb(18.431373%,20.784314%,60%);fill-opacity:1;" d="M 145.144531 13.453125 C 145.144531 14.453125 145.144531 15.453125 145.144531 16.453125 C 141.804688 16.453125 138.464844 16.453125 135.125 16.453125 C 135.125 15.453125 135.125 14.453125 135.125 13.453125 C 138.464844 13.453125 141.804688 13.453125 145.144531 13.453125 Z M 145.144531 13.453125 "/>
<path style=" stroke:none;fill-rule:evenodd;fill:rgb(43.921569%,60.392157%,81.960784%);fill-opacity:1;" d="M 54.957031 17.953125 C 56.628906 17.953125 58.296875 17.953125 59.96875 17.953125 C 59.96875 18.953125 59.96875 19.953125 59.96875 20.953125 C 58.296875 20.953125 56.628906 20.953125 54.957031 20.953125 C 54.957031 21.453125 54.957031 21.953125 54.957031 22.453125 C 49.949219 22.453125 44.9375 22.453125 39.925781 22.453125 C 39.925781 21.953125 39.925781 21.453125 39.925781 20.953125 C 43.265625 20.953125 46.605469 20.953125 49.949219 20.953125 C 49.949219 20.453125 49.949219 19.953125 49.949219 19.453125 C 51.617188 19.453125 53.289062 19.453125 54.957031 19.453125 C 54.957031 18.953125 54.957031 18.453125 54.957031 17.953125 Z M 54.957031 17.953125 "/>
<path style=" stroke:none;fill-rule:evenodd;fill:rgb(61.960784%,65.882353%,70.588235%);fill-opacity:1;" d="M 64.980469 17.953125 C 66.648438 17.953125 68.320312 17.953125 69.988281 17.953125 C 69.988281 18.453125 69.988281 18.953125 69.988281 19.453125 C 69.988281 20.953125 69.988281 22.453125 69.988281 23.953125 C 68.320312 23.953125 66.648438 23.953125 64.980469 23.953125 C 64.980469 21.953125 64.980469 19.953125 64.980469 17.953125 Z M 64.980469 17.953125 "/>
<path style=" stroke:none;fill-rule:evenodd;fill:rgb(30.196078%,42.745098%,95.294118%);fill-opacity:1;" d="M 69.988281 17.953125 C 73.328125 17.953125 76.671875 17.953125 80.011719 17.953125 C 80.011719 18.453125 80.011719 18.953125 80.011719 19.453125 C 76.671875 19.453125 73.328125 19.453125 69.988281 19.453125 C 69.988281 18.953125 69.988281 18.453125 69.988281 17.953125 Z M 69.988281 17.953125 "/>
<path style=" stroke:none;fill-rule:evenodd;fill:rgb(61.960784%,65.882353%,70.588235%);fill-opacity:1;" d="M 80.011719 17.953125 C 81.679688 17.953125 83.351562 17.953125 85.019531 17.953125 C 85.019531 19.953125 85.019531 21.953125 85.019531 23.953125 C 83.351562 23.953125 81.679688 23.953125 80.011719 23.953125 C 80.011719 22.453125 80.011719 20.953125 80.011719 19.453125 C 80.011719 18.953125 80.011719 18.453125 80.011719 17.953125 Z M 80.011719 17.953125 "/>
<path style=" stroke:none;fill-rule:evenodd;fill:rgb(43.921569%,60.392157%,81.960784%);fill-opacity:1;" d="M 90.03125 17.953125 C 91.703125 17.953125 93.371094 17.953125 95.042969 17.953125 C 95.042969 18.453125 95.042969 18.953125 95.042969 19.453125 C 96.710938 19.453125 98.382812 19.453125 100.050781 19.453125 C 100.050781 19.953125 100.050781 20.453125 100.050781 20.953125 C 103.394531 20.953125 106.734375 20.953125 110.074219 20.953125 C 110.074219 21.453125 110.074219 21.953125 110.074219 22.453125 C 105.0625 22.453125 100.050781 22.453125 95.042969 22.453125 C 95.042969 21.953125 95.042969 21.453125 95.042969 20.953125 C 93.371094 20.953125 91.703125 20.953125 90.03125 20.953125 C 90.03125 19.953125 90.03125 18.953125 90.03125 17.953125 Z M 90.03125 17.953125 "/>
<path style=" stroke:none;fill-rule:evenodd;fill:rgb(0%,71.764706%,93.72549%);fill-opacity:1;" d="M 4.855469 19.453125 C 6.523438 19.453125 8.195312 19.453125 9.863281 19.453125 C 9.863281 19.953125 9.863281 20.453125 9.863281 20.953125 C 8.195312 20.953125 6.523438 20.953125 4.855469 20.953125 C 4.855469 20.453125 4.855469 19.953125 4.855469 19.453125 Z M 4.855469 19.453125 "/>
<path style=" stroke:none;fill-rule:evenodd;fill:rgb(43.921569%,60.392157%,81.960784%);fill-opacity:1;" d="M 69.988281 19.453125 C 73.328125 19.453125 76.671875 19.453125 80.011719 19.453125 C 80.011719 20.953125 80.011719 22.453125 80.011719 23.953125 C 76.671875 23.953125 73.328125 23.953125 69.988281 23.953125 C 69.988281 22.453125 69.988281 20.953125 69.988281 19.453125 Z M 69.988281 19.453125 "/>
<path style=" stroke:none;fill-rule:evenodd;fill:rgb(0%,71.764706%,93.72549%);fill-opacity:1;" d="M 145.144531 19.453125 C 145.144531 19.953125 145.144531 20.453125 145.144531 20.953125 C 143.476562 20.953125 141.804688 20.953125 140.136719 20.953125 C 140.136719 20.453125 140.136719 19.953125 140.136719 19.453125 C 141.804688 19.453125 143.476562 19.453125 145.144531 19.453125 Z M 145.144531 19.453125 "/>
<path style=" stroke:none;fill-rule:evenodd;fill:rgb(60%,85.098039%,91.372549%);fill-opacity:1;" d="M 4.855469 20.953125 C 6.523438 20.953125 8.195312 20.953125 9.863281 20.953125 C 9.863281 21.453125 9.863281 21.953125 9.863281 22.453125 C 9.863281 23.953125 9.863281 25.453125 9.863281 26.953125 C 8.195312 26.953125 6.523438 26.953125 4.855469 26.953125 C 4.855469 24.953125 4.855469 22.953125 4.855469 20.953125 Z M 4.855469 20.953125 "/>
<path style=" stroke:none;fill-rule:evenodd;fill:rgb(18.431373%,20.784314%,60%);fill-opacity:1;" d="M 19.886719 28.453125 C 18.214844 28.453125 16.542969 28.453125 14.875 28.453125 C 14.875 27.953125 14.875 27.453125 14.875 26.953125 C 13.203125 26.953125 11.535156 26.953125 9.863281 26.953125 C 9.863281 25.453125 9.863281 23.953125 9.863281 22.453125 C 11.535156 22.453125 13.203125 22.453125 14.875 22.453125 C 14.875 21.953125 14.875 21.453125 14.875 20.953125 C 16.542969 20.953125 18.214844 20.953125 19.886719 20.953125 C 19.886719 23.453125 19.886719 25.953125 19.886719 28.453125 Z M 19.886719 28.453125 "/>
<path style=" stroke:none;fill-rule:evenodd;fill:rgb(42.745098%,47.45098%,53.72549%);fill-opacity:1;" d="M 24.894531 20.953125 C 26.566406 20.953125 28.234375 20.953125 29.90625 20.953125 C 29.90625 21.453125 29.90625 21.953125 29.90625 22.453125 C 31.574219 22.453125 33.246094 22.453125 34.917969 22.453125 C 34.917969 22.953125 34.917969 23.453125 34.917969 23.953125 C 31.574219 23.953125 28.234375 23.953125 24.894531 23.953125 C 24.894531 22.953125 24.894531 21.953125 24.894531 20.953125 Z M 24.894531 20.953125 "/>
<path style=" stroke:none;fill-rule:evenodd;fill:rgb(42.745098%,47.45098%,53.72549%);fill-opacity:1;" d="M 125.105469 20.953125 C 125.105469 21.953125 125.105469 22.953125 125.105469 23.953125 C 121.765625 23.953125 118.425781 23.953125 115.082031 23.953125 C 115.082031 23.453125 115.082031 22.953125 115.082031 22.453125 C 116.753906 22.453125 118.425781 22.453125 120.09375 22.453125 C 120.09375 21.953125 120.09375 21.453125 120.09375 20.953125 C 121.765625 20.953125 123.433594 20.953125 125.105469 20.953125 Z M 125.105469 20.953125 "/>
<path style=" stroke:none;fill-rule:evenodd;fill:rgb(18.431373%,20.784314%,60%);fill-opacity:1;" d="M 140.136719 22.453125 C 140.136719 23.953125 140.136719 25.453125 140.136719 26.953125 C 138.464844 26.953125 136.796875 26.953125 135.125 26.953125 C 135.125 27.453125 135.125 27.953125 135.125 28.453125 C 133.457031 28.453125 131.785156 28.453125 130.113281 28.453125 C 130.113281 25.953125 130.113281 23.453125 130.113281 20.953125 C 131.785156 20.953125 133.457031 20.953125 135.125 20.953125 C 135.125 21.453125 135.125 21.953125 135.125 22.453125 C 136.796875 22.453125 138.464844 22.453125 140.136719 22.453125 Z M 140.136719 22.453125 "/>
<path style=" stroke:none;fill-rule:evenodd;fill:rgb(60%,85.098039%,91.372549%);fill-opacity:1;" d="M 140.136719 20.953125 C 141.804688 20.953125 143.476562 20.953125 145.144531 20.953125 C 145.144531 22.953125 145.144531 24.953125 145.144531 26.953125 C 143.476562 26.953125 141.804688 26.953125 140.136719 26.953125 C 140.136719 25.453125 140.136719 23.953125 140.136719 22.453125 C 140.136719 21.953125 140.136719 21.453125 140.136719 20.953125 Z M 140.136719 20.953125 "/>
<path style=" stroke:none;fill-rule:evenodd;fill:rgb(0%,71.764706%,93.72549%);fill-opacity:1;" d="M 4.855469 26.953125 C 6.523438 26.953125 8.195312 26.953125 9.863281 26.953125 C 9.863281 27.453125 9.863281 27.953125 9.863281 28.453125 C 8.195312 28.453125 6.523438 28.453125 4.855469 28.453125 C 4.855469 27.953125 4.855469 27.453125 4.855469 26.953125 Z M 4.855469 26.953125 "/>
<path style=" stroke:none;fill-rule:evenodd;fill:rgb(12.156863%,13.72549%,38.039216%);fill-opacity:1;" d="M 9.863281 26.953125 C 11.535156 26.953125 13.203125 26.953125 14.875 26.953125 C 14.875 27.453125 14.875 27.953125 14.875 28.453125 C 13.203125 28.453125 11.535156 28.453125 9.863281 28.453125 C 9.863281 27.953125 9.863281 27.453125 9.863281 26.953125 Z M 9.863281 26.953125 "/>
<path style=" stroke:none;fill-rule:evenodd;fill:rgb(18.431373%,20.784314%,60%);fill-opacity:1;" d="M 34.917969 26.953125 C 34.917969 27.453125 34.917969 27.953125 34.917969 28.453125 C 31.574219 28.453125 28.234375 28.453125 24.894531 28.453125 C 24.894531 27.953125 24.894531 27.453125 24.894531 26.953125 C 28.234375 26.953125 31.574219 26.953125 34.917969 26.953125 Z M 34.917969 26.953125 "/>
<path style=" stroke:none;fill-rule:evenodd;fill:rgb(30.196078%,42.745098%,95.294118%);fill-opacity:1;" d="M 34.917969 26.953125 C 38.257812 26.953125 41.597656 26.953125 44.9375 26.953125 C 44.9375 27.453125 44.9375 27.953125 44.9375 28.453125 C 41.597656 28.453125 38.257812 28.453125 34.917969 28.453125 C 34.917969 27.953125 34.917969 27.453125 34.917969 26.953125 Z M 34.917969 26.953125 "/>
<path style=" stroke:none;fill-rule:evenodd;fill:rgb(43.921569%,60.392157%,81.960784%);fill-opacity:1;" d="M 44.9375 26.953125 C 48.277344 26.953125 51.617188 26.953125 54.957031 26.953125 C 54.957031 27.453125 54.957031 27.953125 54.957031 28.453125 C 51.617188 28.453125 48.277344 28.453125 44.9375 28.453125 C 44.9375 27.953125 44.9375 27.453125 44.9375 26.953125 Z M 44.9375 26.953125 "/>
<path style=" stroke:none;fill-rule:evenodd;fill:rgb(54.901961%,65.098039%,77.647059%);fill-opacity:1;" d="M 54.957031 26.953125 C 58.296875 26.953125 61.640625 26.953125 64.980469 26.953125 C 64.980469 27.453125 64.980469 27.953125 64.980469 28.453125 C 61.640625 28.453125 58.296875 28.453125 54.957031 28.453125 C 54.957031 27.953125 54.957031 27.453125 54.957031 26.953125 Z M 54.957031 26.953125 "/>
<path style=" stroke:none;fill-rule:evenodd;fill:rgb(68.627451%,78.431373%,90.588235%);fill-opacity:1;" d="M 64.980469 26.953125 C 71.660156 26.953125 78.339844 26.953125 85.019531 26.953125 C 85.019531 27.453125 85.019531 27.953125 85.019531 28.453125 C 78.339844 28.453125 71.660156 28.453125 64.980469 28.453125 C 64.980469 27.953125 64.980469 27.453125 64.980469 26.953125 Z M 64.980469 26.953125 "/>
<path style=" stroke:none;fill-rule:evenodd;fill:rgb(54.901961%,65.098039%,77.647059%);fill-opacity:1;" d="M 85.019531 26.953125 C 88.359375 26.953125 91.703125 26.953125 95.042969 26.953125 C 95.042969 27.453125 95.042969 27.953125 95.042969 28.453125 C 91.703125 28.453125 88.359375 28.453125 85.019531 28.453125 C 85.019531 27.953125 85.019531 27.453125 85.019531 26.953125 Z M 85.019531 26.953125 "/>
<path style=" stroke:none;fill-rule:evenodd;fill:rgb(43.921569%,60.392157%,81.960784%);fill-opacity:1;" d="M 95.042969 26.953125 C 98.382812 26.953125 101.722656 26.953125 105.0625 26.953125 C 105.0625 27.453125 105.0625 27.953125 105.0625 28.453125 C 101.722656 28.453125 98.382812 28.453125 95.042969 28.453125 C 95.042969 27.953125 95.042969 27.453125 95.042969 26.953125 Z M 95.042969 26.953125 "/>
<path style=" stroke:none;fill-rule:evenodd;fill:rgb(30.196078%,42.745098%,95.294118%);fill-opacity:1;" d="M 105.0625 26.953125 C 108.402344 26.953125 111.742188 26.953125 115.082031 26.953125 C 115.082031 27.453125 115.082031 27.953125 115.082031 28.453125 C 111.742188 28.453125 108.402344 28.453125 105.0625 28.453125 C 105.0625 27.953125 105.0625 27.453125 105.0625 26.953125 Z M 105.0625 26.953125 "/>
<path style=" stroke:none;fill-rule:evenodd;fill:rgb(18.431373%,20.784314%,60%);fill-opacity:1;" d="M 115.082031 26.953125 C 118.425781 26.953125 121.765625 26.953125 125.105469 26.953125 C 125.105469 27.453125 125.105469 27.953125 125.105469 28.453125 C 121.765625 28.453125 118.425781 28.453125 115.082031 28.453125 C 115.082031 27.953125 115.082031 27.453125 115.082031 26.953125 Z M 115.082031 26.953125 "/>
<path style=" stroke:none;fill-rule:evenodd;fill:rgb(12.156863%,13.72549%,38.039216%);fill-opacity:1;" d="M 140.136719 26.953125 C 140.136719 27.453125 140.136719 27.953125 140.136719 28.453125 C 138.464844 28.453125 136.796875 28.453125 135.125 28.453125 C 135.125 27.953125 135.125 27.453125 135.125 26.953125 C 136.796875 26.953125 138.464844 26.953125 140.136719 26.953125 Z M 140.136719 26.953125 "/>
<path style=" stroke:none;fill-rule:evenodd;fill:rgb(0%,71.764706%,93.72549%);fill-opacity:1;" d="M 140.136719 26.953125 C 141.804688 26.953125 143.476562 26.953125 145.144531 26.953125 C 145.144531 27.453125 145.144531 27.953125 145.144531 28.453125 C 143.476562 28.453125 141.804688 28.453125 140.136719 28.453125 C 140.136719 27.953125 140.136719 27.453125 140.136719 26.953125 Z M 140.136719 26.953125 "/>
</g>
</svg>
