<?xml version="1.0" encoding="UTF-8"?>
<svg xmlns="http://www.w3.org/2000/svg" xmlns:xlink="http://www.w3.org/1999/xlink" width="150px" height="30px" viewBox="0 0 150 30" version="1.1">
<g id="surface1">
<path style=" stroke:none;fill-rule:evenodd;fill:rgb(27.058824%,27.45098%,27.058824%);fill-opacity:1;" d="M -0.15625 -0.046875 C 49.84375 -0.046875 99.84375 -0.046875 149.84375 -0.046875 C 149.84375 1.929688 149.84375 3.902344 149.84375 5.878906 C 148.171875 5.878906 146.503906 5.878906 144.832031 5.878906 C 144.832031 4.875 144.832031 3.871094 144.832031 2.867188 C 144.832031 2.367188 144.832031 1.863281 144.832031 1.363281 C 143.164062 1.363281 141.492188 1.363281 139.824219 1.363281 C 138.152344 1.363281 136.480469 1.363281 134.8125 1.363281 C 133.140625 1.363281 131.472656 1.363281 129.800781 1.363281 C 128.132812 1.363281 126.460938 1.363281 124.792969 1.363281 C 121.449219 1.363281 118.109375 1.363281 114.769531 1.363281 C 111.429688 1.363281 108.089844 1.363281 104.75 1.363281 C 101.410156 1.363281 98.070312 1.363281 94.730469 1.363281 C 91.386719 1.363281 88.046875 1.363281 84.707031 1.363281 C 78.027344 1.363281 71.347656 1.363281 64.664062 1.363281 C 61.324219 1.363281 57.984375 1.363281 54.644531 1.363281 C 51.304688 1.363281 47.964844 1.363281 44.625 1.363281 C 41.285156 1.363281 37.945312 1.363281 34.601562 1.363281 C 31.261719 1.363281 27.921875 1.363281 24.582031 1.363281 C 22.914062 1.363281 21.242188 1.363281 19.570312 1.363281 C 17.902344 1.363281 16.230469 1.363281 14.5625 1.363281 C 12.890625 1.363281 11.222656 1.363281 9.550781 1.363281 C 7.882812 1.363281 6.210938 1.363281 4.539062 1.363281 C 4.539062 1.863281 4.539062 2.367188 4.539062 2.867188 C 4.539062 4.875 4.539062 6.882812 4.539062 8.886719 C 4.539062 9.390625 4.539062 9.890625 4.539062 10.390625 C 4.539062 11.394531 4.539062 12.398438 4.539062 13.402344 C 4.539062 14.40625 4.539062 15.40625 4.539062 16.410156 C 4.539062 17.414062 4.539062 18.417969 4.539062 19.421875 C 4.539062 19.921875 4.539062 20.421875 4.539062 20.925781 C 4.539062 22.929688 4.539062 24.9375 4.539062 26.945312 C 4.539062 27.445312 4.539062 27.945312 4.539062 28.449219 C 6.210938 28.449219 7.882812 28.449219 9.550781 28.449219 C 11.222656 28.449219 12.890625 28.449219 14.5625 28.449219 C 16.230469 28.449219 17.902344 28.449219 19.570312 28.449219 C 21.242188 28.449219 22.914062 28.449219 24.582031 28.449219 C 27.921875 28.449219 31.261719 28.449219 34.601562 28.449219 C 37.945312 28.449219 41.285156 28.449219 44.625 28.449219 C 47.964844 28.449219 51.304688 28.449219 54.644531 28.449219 C 57.984375 28.449219 61.324219 28.449219 64.664062 28.449219 C 71.347656 28.449219 78.027344 28.449219 84.707031 28.449219 C 88.046875 28.449219 91.386719 28.449219 94.730469 28.449219 C 98.070312 28.449219 101.410156 28.449219 104.75 28.449219 C 108.089844 28.449219 111.429688 28.449219 114.769531 28.449219 C 118.109375 28.449219 121.449219 28.449219 124.792969 28.449219 C 126.460938 28.449219 128.132812 28.449219 129.800781 28.449219 C 131.472656 28.449219 133.140625 28.449219 134.8125 28.449219 C 136.480469 28.449219 138.152344 28.449219 139.824219 28.449219 C 141.492188 28.449219 143.164062 28.449219 144.832031 28.449219 C 144.832031 27.945312 144.832031 27.445312 144.832031 26.945312 C 144.832031 25.941406 144.832031 24.9375 144.832031 23.933594 C 146.503906 23.933594 148.171875 23.933594 149.84375 23.933594 C 149.84375 25.941406 149.84375 27.945312 149.84375 29.953125 C 99.84375 29.953125 49.84375 29.953125 -0.15625 29.953125 C -0.15625 19.953125 -0.15625 9.953125 -0.15625 -0.046875 Z M -0.15625 -0.046875 "/>
<path style=" stroke:none;fill-rule:evenodd;fill:rgb(0%,71.764706%,93.72549%);fill-opacity:1;" d="M 9.550781 1.363281 C 9.550781 1.863281 9.550781 2.367188 9.550781 2.867188 C 7.882812 2.867188 6.210938 2.867188 4.539062 2.867188 C 4.539062 2.367188 4.539062 1.863281 4.539062 1.363281 C 6.210938 1.363281 7.882812 1.363281 9.550781 1.363281 Z M 9.550781 1.363281 "/>
<path style=" stroke:none;fill-rule:evenodd;fill:rgb(12.156863%,13.72549%,38.039216%);fill-opacity:1;" d="M 9.550781 1.363281 C 11.222656 1.363281 12.890625 1.363281 14.5625 1.363281 C 14.5625 1.863281 14.5625 2.367188 14.5625 2.867188 C 12.890625 2.867188 11.222656 2.867188 9.550781 2.867188 C 9.550781 2.367188 9.550781 1.863281 9.550781 1.363281 Z M 9.550781 1.363281 "/>
<path style=" stroke:none;fill-rule:evenodd;fill:rgb(18.431373%,20.784314%,60%);fill-opacity:1;" d="M 14.5625 1.363281 C 16.230469 1.363281 17.902344 1.363281 19.570312 1.363281 C 19.570312 3.871094 19.570312 6.378906 19.570312 8.886719 C 17.902344 8.886719 16.230469 8.886719 14.5625 8.886719 C 14.5625 8.386719 14.5625 7.882812 14.5625 7.382812 C 12.890625 7.382812 11.222656 7.382812 9.550781 7.382812 C 9.550781 5.878906 9.550781 4.371094 9.550781 2.867188 C 11.222656 2.867188 12.890625 2.867188 14.5625 2.867188 C 14.5625 2.367188 14.5625 1.863281 14.5625 1.363281 Z M 14.5625 1.363281 "/>
<path style=" stroke:none;fill-rule:evenodd;fill:rgb(12.156863%,13.72549%,38.039216%);fill-opacity:1;" d="M 19.570312 1.363281 C 21.242188 1.363281 22.914062 1.363281 24.582031 1.363281 C 24.582031 1.863281 24.582031 2.367188 24.582031 2.867188 C 27.921875 2.867188 31.261719 2.867188 34.601562 2.867188 C 37.945312 2.867188 41.285156 2.867188 44.625 2.867188 C 47.964844 2.867188 51.304688 2.867188 54.644531 2.867188 C 57.984375 2.867188 61.324219 2.867188 64.664062 2.867188 C 71.347656 2.867188 78.027344 2.867188 84.707031 2.867188 C 88.046875 2.867188 91.386719 2.867188 94.730469 2.867188 C 98.070312 2.867188 101.410156 2.867188 104.75 2.867188 C 108.089844 2.867188 111.429688 2.867188 114.769531 2.867188 C 118.109375 2.867188 121.449219 2.867188 124.792969 2.867188 C 124.792969 2.367188 124.792969 1.863281 124.792969 1.363281 C 126.460938 1.363281 128.132812 1.363281 129.800781 1.363281 C 129.800781 2.867188 129.800781 4.371094 129.800781 5.878906 C 98.070312 5.878906 66.335938 5.878906 34.601562 5.878906 C 31.261719 5.878906 27.921875 5.878906 24.582031 5.878906 C 24.582031 6.882812 24.582031 7.882812 24.582031 8.886719 C 24.582031 9.390625 24.582031 9.890625 24.582031 10.390625 C 22.914062 10.390625 21.242188 10.390625 19.570312 10.390625 C 19.570312 13.402344 19.570312 16.410156 19.570312 19.421875 C 21.242188 19.421875 22.914062 19.421875 24.582031 19.421875 C 24.582031 19.921875 24.582031 20.421875 24.582031 20.925781 C 24.582031 21.929688 24.582031 22.929688 24.582031 23.933594 C 27.921875 23.933594 31.261719 23.933594 34.601562 23.933594 C 66.335938 23.933594 98.070312 23.933594 129.800781 23.933594 C 129.800781 25.4375 129.800781 26.945312 129.800781 28.449219 C 128.132812 28.449219 126.460938 28.449219 124.792969 28.449219 C 124.792969 27.945312 124.792969 27.445312 124.792969 26.945312 C 121.449219 26.945312 118.109375 26.945312 114.769531 26.945312 C 111.429688 26.945312 108.089844 26.945312 104.75 26.945312 C 101.410156 26.945312 98.070312 26.945312 94.730469 26.945312 C 91.386719 26.945312 88.046875 26.945312 84.707031 26.945312 C 78.027344 26.945312 71.347656 26.945312 64.664062 26.945312 C 61.324219 26.945312 57.984375 26.945312 54.644531 26.945312 C 51.304688 26.945312 47.964844 26.945312 44.625 26.945312 C 41.285156 26.945312 37.945312 26.945312 34.601562 26.945312 C 31.261719 26.945312 27.921875 26.945312 24.582031 26.945312 C 24.582031 27.445312 24.582031 27.945312 24.582031 28.449219 C 22.914062 28.449219 21.242188 28.449219 19.570312 28.449219 C 19.570312 25.941406 19.570312 23.433594 19.570312 20.925781 C 17.902344 20.925781 16.230469 20.925781 14.5625 20.925781 C 14.5625 21.425781 14.5625 21.929688 14.5625 22.429688 C 12.890625 22.429688 11.222656 22.429688 9.550781 22.429688 C 9.550781 21.929688 9.550781 21.425781 9.550781 20.925781 C 9.550781 20.421875 9.550781 19.921875 9.550781 19.421875 C 7.882812 19.421875 6.210938 19.421875 4.539062 19.421875 C 4.539062 18.417969 4.539062 17.414062 4.539062 16.410156 C 7.882812 16.410156 11.222656 16.410156 14.5625 16.410156 C 14.5625 15.40625 14.5625 14.40625 14.5625 13.402344 C 11.222656 13.402344 7.882812 13.402344 4.539062 13.402344 C 4.539062 12.398438 4.539062 11.394531 4.539062 10.390625 C 6.210938 10.390625 7.882812 10.390625 9.550781 10.390625 C 9.550781 9.890625 9.550781 9.390625 9.550781 8.886719 C 9.550781 8.386719 9.550781 7.882812 9.550781 7.382812 C 11.222656 7.382812 12.890625 7.382812 14.5625 7.382812 C 14.5625 7.882812 14.5625 8.386719 14.5625 8.886719 C 16.230469 8.886719 17.902344 8.886719 19.570312 8.886719 C 19.570312 6.378906 19.570312 3.871094 19.570312 1.363281 Z M 19.570312 1.363281 "/>
<path style=" stroke:none;fill-rule:evenodd;fill:rgb(18.431373%,20.784314%,60%);fill-opacity:1;" d="M 24.582031 1.363281 C 27.921875 1.363281 31.261719 1.363281 34.601562 1.363281 C 34.601562 1.863281 34.601562 2.367188 34.601562 2.867188 C 31.261719 2.867188 27.921875 2.867188 24.582031 2.867188 C 24.582031 2.367188 24.582031 1.863281 24.582031 1.363281 Z M 24.582031 1.363281 "/>
<path style=" stroke:none;fill-rule:evenodd;fill:rgb(30.196078%,42.745098%,95.294118%);fill-opacity:1;" d="M 34.601562 1.363281 C 37.945312 1.363281 41.285156 1.363281 44.625 1.363281 C 44.625 1.863281 44.625 2.367188 44.625 2.867188 C 41.285156 2.867188 37.945312 2.867188 34.601562 2.867188 C 34.601562 2.367188 34.601562 1.863281 34.601562 1.363281 Z M 34.601562 1.363281 "/>
<path style=" stroke:none;fill-rule:evenodd;fill:rgb(43.921569%,60.392157%,81.960784%);fill-opacity:1;" d="M 44.625 1.363281 C 47.964844 1.363281 51.304688 1.363281 54.644531 1.363281 C 54.644531 1.863281 54.644531 2.367188 54.644531 2.867188 C 51.304688 2.867188 47.964844 2.867188 44.625 2.867188 C 44.625 2.367188 44.625 1.863281 44.625 1.363281 Z M 44.625 1.363281 "/>
<path style=" stroke:none;fill-rule:evenodd;fill:rgb(54.901961%,65.098039%,77.647059%);fill-opacity:1;" d="M 54.644531 1.363281 C 57.984375 1.363281 61.324219 1.363281 64.664062 1.363281 C 64.664062 1.863281 64.664062 2.367188 64.664062 2.867188 C 61.324219 2.867188 57.984375 2.867188 54.644531 2.867188 C 54.644531 2.367188 54.644531 1.863281 54.644531 1.363281 Z M 54.644531 1.363281 "/>
<path style=" stroke:none;fill-rule:evenodd;fill:rgb(68.627451%,78.431373%,90.588235%);fill-opacity:1;" d="M 64.664062 1.363281 C 71.347656 1.363281 78.027344 1.363281 84.707031 1.363281 C 84.707031 1.863281 84.707031 2.367188 84.707031 2.867188 C 78.027344 2.867188 71.347656 2.867188 64.664062 2.867188 C 64.664062 2.367188 64.664062 1.863281 64.664062 1.363281 Z M 64.664062 1.363281 "/>
<path style=" stroke:none;fill-rule:evenodd;fill:rgb(54.901961%,65.098039%,77.647059%);fill-opacity:1;" d="M 84.707031 1.363281 C 88.046875 1.363281 91.386719 1.363281 94.730469 1.363281 C 94.730469 1.863281 94.730469 2.367188 94.730469 2.867188 C 91.386719 2.867188 88.046875 2.867188 84.707031 2.867188 C 84.707031 2.367188 84.707031 1.863281 84.707031 1.363281 Z M 84.707031 1.363281 "/>
<path style=" stroke:none;fill-rule:evenodd;fill:rgb(43.921569%,60.392157%,81.960784%);fill-opacity:1;" d="M 94.730469 1.363281 C 98.070312 1.363281 101.410156 1.363281 104.75 1.363281 C 104.75 1.863281 104.75 2.367188 104.75 2.867188 C 101.410156 2.867188 98.070312 2.867188 94.730469 2.867188 C 94.730469 2.367188 94.730469 1.863281 94.730469 1.363281 Z M 94.730469 1.363281 "/>
<path style=" stroke:none;fill-rule:evenodd;fill:rgb(30.196078%,42.745098%,95.294118%);fill-opacity:1;" d="M 104.75 1.363281 C 108.089844 1.363281 111.429688 1.363281 114.769531 1.363281 C 114.769531 1.863281 114.769531 2.367188 114.769531 2.867188 C 111.429688 2.867188 108.089844 2.867188 104.75 2.867188 C 104.75 2.367188 104.75 1.863281 104.75 1.363281 Z M 104.75 1.363281 "/>
<path style=" stroke:none;fill-rule:evenodd;fill:rgb(18.431373%,20.784314%,60%);fill-opacity:1;" d="M 114.769531 1.363281 C 118.109375 1.363281 121.449219 1.363281 124.792969 1.363281 C 124.792969 1.863281 124.792969 2.367188 124.792969 2.867188 C 121.449219 2.867188 118.109375 2.867188 114.769531 2.867188 C 114.769531 2.367188 114.769531 1.863281 114.769531 1.363281 Z M 114.769531 1.363281 "/>
<path style=" stroke:none;fill-rule:evenodd;fill:rgb(18.431373%,20.784314%,60%);fill-opacity:1;" d="M 129.800781 1.363281 C 131.472656 1.363281 133.140625 1.363281 134.8125 1.363281 C 134.8125 1.863281 134.8125 2.367188 134.8125 2.867188 C 136.480469 2.867188 138.152344 2.867188 139.824219 2.867188 C 139.824219 3.871094 139.824219 4.875 139.824219 5.878906 C 136.480469 5.878906 133.140625 5.878906 129.800781 5.878906 C 129.800781 4.371094 129.800781 2.867188 129.800781 1.363281 Z M 129.800781 1.363281 "/>
<path style=" stroke:none;fill-rule:evenodd;fill:rgb(12.156863%,13.72549%,38.039216%);fill-opacity:1;" d="M 134.8125 1.363281 C 136.480469 1.363281 138.152344 1.363281 139.824219 1.363281 C 139.824219 1.863281 139.824219 2.367188 139.824219 2.867188 C 138.152344 2.867188 136.480469 2.867188 134.8125 2.867188 C 134.8125 2.367188 134.8125 1.863281 134.8125 1.363281 Z M 134.8125 1.363281 "/>
<path style=" stroke:none;fill-rule:evenodd;fill:rgb(0%,71.764706%,93.72549%);fill-opacity:1;" d="M 139.824219 1.363281 C 141.492188 1.363281 143.164062 1.363281 144.832031 1.363281 C 144.832031 1.863281 144.832031 2.367188 144.832031 2.867188 C 143.164062 2.867188 141.492188 2.867188 139.824219 2.867188 C 139.824219 2.367188 139.824219 1.863281 139.824219 1.363281 Z M 139.824219 1.363281 "/>
<path style=" stroke:none;fill-rule:evenodd;fill:rgb(60%,85.098039%,91.372549%);fill-opacity:1;" d="M 4.539062 2.867188 C 6.210938 2.867188 7.882812 2.867188 9.550781 2.867188 C 9.550781 4.371094 9.550781 5.878906 9.550781 7.382812 C 9.550781 7.882812 9.550781 8.386719 9.550781 8.886719 C 7.882812 8.886719 6.210938 8.886719 4.539062 8.886719 C 4.539062 6.882812 4.539062 4.875 4.539062 2.867188 Z M 4.539062 2.867188 "/>
<path style=" stroke:none;fill-rule:evenodd;fill:rgb(60%,85.098039%,91.372549%);fill-opacity:1;" d="M 139.824219 2.867188 C 141.492188 2.867188 143.164062 2.867188 144.832031 2.867188 C 144.832031 3.871094 144.832031 4.875 144.832031 5.878906 C 143.164062 5.878906 141.492188 5.878906 139.824219 5.878906 C 139.824219 4.875 139.824219 3.871094 139.824219 2.867188 Z M 139.824219 2.867188 "/>
<path style=" stroke:none;fill-rule:evenodd;fill:rgb(42.745098%,47.45098%,53.72549%);fill-opacity:1;" d="M 34.601562 5.878906 C 34.601562 6.378906 34.601562 6.882812 34.601562 7.382812 C 32.933594 7.382812 31.261719 7.382812 29.59375 7.382812 C 29.59375 7.882812 29.59375 8.386719 29.59375 8.886719 C 27.921875 8.886719 26.253906 8.886719 24.582031 8.886719 C 24.582031 7.882812 24.582031 6.882812 24.582031 5.878906 C 27.921875 5.878906 31.261719 5.878906 34.601562 5.878906 Z M 34.601562 5.878906 "/>
<path style=" stroke:none;fill-rule:evenodd;fill:rgb(61.960784%,65.882353%,70.588235%);fill-opacity:1;" d="M 34.601562 5.878906 C 66.335938 5.878906 98.070312 5.878906 129.800781 5.878906 C 133.140625 5.878906 136.480469 5.878906 139.824219 5.878906 C 141.492188 5.878906 143.164062 5.878906 144.832031 5.878906 C 146.503906 5.878906 148.171875 5.878906 149.84375 5.878906 C 149.84375 6.316406 149.84375 6.753906 149.84375 7.195312 C 116.648438 7.195312 83.457031 7.195312 50.261719 7.195312 C 50.261719 7.476562 50.261719 7.757812 50.261719 8.039062 C 49.21875 8.039062 48.171875 8.039062 47.128906 8.039062 C 47.128906 8.324219 47.128906 8.605469 47.128906 8.886719 C 46.191406 8.886719 45.25 8.886719 44.3125 8.886719 C 44.3125 9.199219 44.3125 9.515625 44.3125 9.828125 C 43.265625 9.828125 42.222656 9.828125 41.179688 9.828125 C 41.179688 10.046875 41.179688 10.265625 41.179688 10.484375 C 40.34375 10.484375 39.507812 10.484375 38.675781 10.484375 C 38.675781 10.707031 38.675781 10.925781 38.675781 11.144531 C 37.421875 11.144531 36.167969 11.144531 34.917969 11.144531 C 34.917969 11.519531 34.917969 11.898438 34.917969 12.273438 C 33.664062 12.273438 32.410156 12.273438 31.160156 12.273438 C 31.160156 12.585938 31.160156 12.898438 31.160156 13.214844 C 29.488281 13.214844 27.820312 13.214844 26.148438 13.214844 C 26.148438 14.308594 26.148438 15.40625 26.148438 16.503906 C 27.714844 16.503906 29.28125 16.503906 30.84375 16.503906 C 30.84375 16.914062 30.84375 17.320312 30.84375 17.726562 C 32.203125 17.726562 33.558594 17.726562 34.917969 17.726562 C 34.917969 18.101562 34.917969 18.480469 34.917969 18.855469 C 35.960938 18.855469 37.003906 18.855469 38.046875 18.855469 C 38.046875 19.167969 38.046875 19.484375 38.046875 19.796875 C 38.988281 19.796875 39.925781 19.796875 40.867188 19.796875 C 40.867188 20.046875 40.867188 20.296875 40.867188 20.546875 C 42.015625 20.546875 43.164062 20.546875 44.3125 20.546875 C 44.3125 20.863281 44.3125 21.175781 44.3125 21.488281 C 45.773438 21.488281 47.234375 21.488281 48.695312 21.488281 C 48.695312 21.800781 48.695312 22.117188 48.695312 22.429688 C 82.410156 22.429688 116.128906 22.429688 149.84375 22.429688 C 149.84375 22.929688 149.84375 23.433594 149.84375 23.933594 C 148.171875 23.933594 146.503906 23.933594 144.832031 23.933594 C 143.164062 23.933594 141.492188 23.933594 139.824219 23.933594 C 136.480469 23.933594 133.140625 23.933594 129.800781 23.933594 C 98.070312 23.933594 66.335938 23.933594 34.601562 23.933594 C 34.601562 23.433594 34.601562 22.929688 34.601562 22.429688 C 32.933594 22.429688 31.261719 22.429688 29.59375 22.429688 C 29.59375 21.929688 29.59375 21.425781 29.59375 20.925781 C 27.921875 20.925781 26.253906 20.925781 24.582031 20.925781 C 24.582031 20.421875 24.582031 19.921875 24.582031 19.421875 C 22.914062 19.421875 21.242188 19.421875 19.570312 19.421875 C 19.570312 16.410156 19.570312 13.402344 19.570312 10.390625 C 21.242188 10.390625 22.914062 10.390625 24.582031 10.390625 C 24.582031 9.890625 24.582031 9.390625 24.582031 8.886719 C 26.253906 8.886719 27.921875 8.886719 29.59375 8.886719 C 29.59375 8.386719 29.59375 7.882812 29.59375 7.382812 C 31.261719 7.382812 32.933594 7.382812 34.601562 7.382812 C 34.601562 6.882812 34.601562 6.378906 34.601562 5.878906 Z M 34.601562 5.878906 "/>
<path style=" stroke:none;fill-rule:evenodd;fill:rgb(18.431373%,20.784314%,60%);fill-opacity:1;" d="M 149.84375 7.195312 C 149.84375 9.042969 149.84375 10.894531 149.84375 12.742188 C 122.597656 12.742188 95.355469 12.742188 68.109375 12.742188 C 68.109375 11.613281 68.109375 10.484375 68.109375 9.355469 C 65.707031 9.339844 63.304688 9.355469 60.90625 9.40625 C 60.609375 9.722656 60.503906 10.050781 60.59375 10.390625 C 59.027344 10.390625 57.464844 10.390625 55.898438 10.390625 C 55.898438 10.800781 55.898438 11.207031 55.898438 11.613281 C 54.957031 11.613281 54.019531 11.613281 53.078125 11.613281 C 53.078125 11.992188 53.078125 12.367188 53.078125 12.742188 C 51.617188 12.742188 50.15625 12.742188 48.695312 12.742188 C 48.695312 13.085938 48.695312 13.433594 48.695312 13.777344 C 47.652344 13.777344 46.605469 13.777344 45.5625 13.777344 C 45.5625 14.625 45.5625 15.46875 45.5625 16.316406 C 46.605469 16.316406 47.652344 16.316406 48.695312 16.316406 C 48.695312 16.628906 48.695312 16.945312 48.695312 17.257812 C 50.15625 17.257812 51.617188 17.257812 53.078125 17.257812 C 53.078125 17.632812 53.078125 18.007812 53.078125 18.386719 C 54.019531 18.386719 54.957031 18.386719 55.898438 18.386719 C 55.898438 18.730469 55.898438 19.074219 55.898438 19.421875 C 57.464844 19.421875 59.027344 19.421875 60.59375 19.421875 C 60.59375 19.828125 60.59375 20.234375 60.59375 20.644531 C 63.101562 20.644531 65.605469 20.644531 68.109375 20.644531 C 68.109375 19.515625 68.109375 18.386719 68.109375 17.257812 C 95.355469 17.257812 122.597656 17.257812 149.84375 17.257812 C 149.84375 18.980469 149.84375 20.707031 149.84375 22.429688 C 116.128906 22.429688 82.410156 22.429688 48.695312 22.429688 C 48.695312 22.117188 48.695312 21.800781 48.695312 21.488281 C 47.234375 21.488281 45.773438 21.488281 44.3125 21.488281 C 44.3125 21.175781 44.3125 20.863281 44.3125 20.546875 C 43.164062 20.546875 42.015625 20.546875 40.867188 20.546875 C 40.867188 20.296875 40.867188 20.046875 40.867188 19.796875 C 39.925781 19.796875 38.988281 19.796875 38.046875 19.796875 C 38.046875 19.484375 38.046875 19.167969 38.046875 18.855469 C 37.003906 18.855469 35.960938 18.855469 34.917969 18.855469 C 34.917969 18.480469 34.917969 18.101562 34.917969 17.726562 C 33.558594 17.726562 32.203125 17.726562 30.84375 17.726562 C 30.84375 17.320312 30.84375 16.914062 30.84375 16.503906 C 29.28125 16.503906 27.714844 16.503906 26.148438 16.503906 C 26.148438 15.40625 26.148438 14.308594 26.148438 13.214844 C 27.820312 13.214844 29.488281 13.214844 31.160156 13.214844 C 31.160156 12.898438 31.160156 12.585938 31.160156 12.273438 C 32.410156 12.273438 33.664062 12.273438 34.917969 12.273438 C 34.917969 11.898438 34.917969 11.519531 34.917969 11.144531 C 36.167969 11.144531 37.421875 11.144531 38.675781 11.144531 C 38.675781 10.925781 38.675781 10.707031 38.675781 10.484375 C 39.507812 10.484375 40.34375 10.484375 41.179688 10.484375 C 41.179688 10.265625 41.179688 10.046875 41.179688 9.828125 C 42.222656 9.828125 43.265625 9.828125 44.3125 9.828125 C 44.3125 9.515625 44.3125 9.199219 44.3125 8.886719 C 45.25 8.886719 46.191406 8.886719 47.128906 8.886719 C 47.128906 8.605469 47.128906 8.324219 47.128906 8.039062 C 48.171875 8.039062 49.21875 8.039062 50.261719 8.039062 C 50.261719 7.757812 50.261719 7.476562 50.261719 7.195312 C 83.457031 7.195312 116.648438 7.195312 149.84375 7.195312 Z M 149.84375 7.195312 "/>
<path style=" stroke:none;fill-rule:evenodd;fill:rgb(0%,71.764706%,93.72549%);fill-opacity:1;" d="M 4.539062 8.886719 C 6.210938 8.886719 7.882812 8.886719 9.550781 8.886719 C 9.550781 9.390625 9.550781 9.890625 9.550781 10.390625 C 7.882812 10.390625 6.210938 10.390625 4.539062 10.390625 C 4.539062 9.890625 4.539062 9.390625 4.539062 8.886719 Z M 4.539062 8.886719 "/>
<path style=" stroke:none;fill-rule:evenodd;fill:rgb(60%,85.098039%,91.372549%);fill-opacity:1;" d="M 149.84375 12.742188 C 149.84375 14.246094 149.84375 15.753906 149.84375 17.257812 C 122.597656 17.257812 95.355469 17.257812 68.109375 17.257812 C 68.109375 18.386719 68.109375 19.515625 68.109375 20.644531 C 65.605469 20.644531 63.101562 20.644531 60.59375 20.644531 C 60.59375 20.234375 60.59375 19.828125 60.59375 19.421875 C 59.027344 19.421875 57.464844 19.421875 55.898438 19.421875 C 55.898438 19.074219 55.898438 18.730469 55.898438 18.386719 C 54.957031 18.386719 54.019531 18.386719 53.078125 18.386719 C 53.078125 18.007812 53.078125 17.632812 53.078125 17.257812 C 51.617188 17.257812 50.15625 17.257812 48.695312 17.257812 C 48.695312 16.945312 48.695312 16.628906 48.695312 16.316406 C 47.652344 16.316406 46.605469 16.316406 45.5625 16.316406 C 45.5625 15.46875 45.5625 14.625 45.5625 13.777344 C 46.605469 13.777344 47.652344 13.777344 48.695312 13.777344 C 48.695312 13.433594 48.695312 13.085938 48.695312 12.742188 C 50.15625 12.742188 51.617188 12.742188 53.078125 12.742188 C 53.078125 12.367188 53.078125 11.992188 53.078125 11.613281 C 54.019531 11.613281 54.957031 11.613281 55.898438 11.613281 C 55.898438 11.207031 55.898438 10.800781 55.898438 10.390625 C 57.464844 10.390625 59.027344 10.390625 60.59375 10.390625 C 60.503906 10.050781 60.609375 9.722656 60.90625 9.40625 C 63.304688 9.355469 65.707031 9.339844 68.109375 9.355469 C 68.109375 10.484375 68.109375 11.613281 68.109375 12.742188 C 95.355469 12.742188 122.597656 12.742188 149.84375 12.742188 Z M 149.84375 12.742188 "/>
<path style=" stroke:none;fill-rule:evenodd;fill:rgb(18.431373%,20.784314%,60%);fill-opacity:1;" d="M 4.539062 13.402344 C 7.882812 13.402344 11.222656 13.402344 14.5625 13.402344 C 14.5625 14.40625 14.5625 15.40625 14.5625 16.410156 C 11.222656 16.410156 7.882812 16.410156 4.539062 16.410156 C 4.539062 15.40625 4.539062 14.40625 4.539062 13.402344 Z M 4.539062 13.402344 "/>
<path style=" stroke:none;fill-rule:evenodd;fill:rgb(0%,71.764706%,93.72549%);fill-opacity:1;" d="M 4.539062 19.421875 C 6.210938 19.421875 7.882812 19.421875 9.550781 19.421875 C 9.550781 19.921875 9.550781 20.421875 9.550781 20.925781 C 7.882812 20.925781 6.210938 20.925781 4.539062 20.925781 C 4.539062 20.421875 4.539062 19.921875 4.539062 19.421875 Z M 4.539062 19.421875 "/>
<path style=" stroke:none;fill-rule:evenodd;fill:rgb(60%,85.098039%,91.372549%);fill-opacity:1;" d="M 4.539062 20.925781 C 6.210938 20.925781 7.882812 20.925781 9.550781 20.925781 C 9.550781 21.425781 9.550781 21.929688 9.550781 22.429688 C 9.550781 23.933594 9.550781 25.4375 9.550781 26.945312 C 7.882812 26.945312 6.210938 26.945312 4.539062 26.945312 C 4.539062 24.9375 4.539062 22.929688 4.539062 20.925781 Z M 4.539062 20.925781 "/>
<path style=" stroke:none;fill-rule:evenodd;fill:rgb(18.431373%,20.784314%,60%);fill-opacity:1;" d="M 19.570312 28.449219 C 17.902344 28.449219 16.230469 28.449219 14.5625 28.449219 C 14.5625 27.945312 14.5625 27.445312 14.5625 26.945312 C 12.890625 26.945312 11.222656 26.945312 9.550781 26.945312 C 9.550781 25.4375 9.550781 23.933594 9.550781 22.429688 C 11.222656 22.429688 12.890625 22.429688 14.5625 22.429688 C 14.5625 21.929688 14.5625 21.425781 14.5625 20.925781 C 16.230469 20.925781 17.902344 20.925781 19.570312 20.925781 C 19.570312 23.433594 19.570312 25.941406 19.570312 28.449219 Z M 19.570312 28.449219 "/>
<path style=" stroke:none;fill-rule:evenodd;fill:rgb(42.745098%,47.45098%,53.72549%);fill-opacity:1;" d="M 24.582031 20.925781 C 26.253906 20.925781 27.921875 20.925781 29.59375 20.925781 C 29.59375 21.425781 29.59375 21.929688 29.59375 22.429688 C 31.261719 22.429688 32.933594 22.429688 34.601562 22.429688 C 34.601562 22.929688 34.601562 23.433594 34.601562 23.933594 C 31.261719 23.933594 27.921875 23.933594 24.582031 23.933594 C 24.582031 22.929688 24.582031 21.929688 24.582031 20.925781 Z M 24.582031 20.925781 "/>
<path style=" stroke:none;fill-rule:evenodd;fill:rgb(18.431373%,20.784314%,60%);fill-opacity:1;" d="M 129.800781 23.933594 C 133.140625 23.933594 136.480469 23.933594 139.824219 23.933594 C 139.824219 24.9375 139.824219 25.941406 139.824219 26.945312 C 138.152344 26.945312 136.480469 26.945312 134.8125 26.945312 C 134.8125 27.445312 134.8125 27.945312 134.8125 28.449219 C 133.140625 28.449219 131.472656 28.449219 129.800781 28.449219 C 129.800781 26.945312 129.800781 25.4375 129.800781 23.933594 Z M 129.800781 23.933594 "/>
<path style=" stroke:none;fill-rule:evenodd;fill:rgb(60%,85.098039%,91.372549%);fill-opacity:1;" d="M 139.824219 23.933594 C 141.492188 23.933594 143.164062 23.933594 144.832031 23.933594 C 144.832031 24.9375 144.832031 25.941406 144.832031 26.945312 C 143.164062 26.945312 141.492188 26.945312 139.824219 26.945312 C 139.824219 25.941406 139.824219 24.9375 139.824219 23.933594 Z M 139.824219 23.933594 "/>
<path style=" stroke:none;fill-rule:evenodd;fill:rgb(0%,71.764706%,93.72549%);fill-opacity:1;" d="M 4.539062 26.945312 C 6.210938 26.945312 7.882812 26.945312 9.550781 26.945312 C 9.550781 27.445312 9.550781 27.945312 9.550781 28.449219 C 7.882812 28.449219 6.210938 28.449219 4.539062 28.449219 C 4.539062 27.945312 4.539062 27.445312 4.539062 26.945312 Z M 4.539062 26.945312 "/>
<path style=" stroke:none;fill-rule:evenodd;fill:rgb(12.156863%,13.72549%,38.039216%);fill-opacity:1;" d="M 9.550781 26.945312 C 11.222656 26.945312 12.890625 26.945312 14.5625 26.945312 C 14.5625 27.445312 14.5625 27.945312 14.5625 28.449219 C 12.890625 28.449219 11.222656 28.449219 9.550781 28.449219 C 9.550781 27.945312 9.550781 27.445312 9.550781 26.945312 Z M 9.550781 26.945312 "/>
<path style=" stroke:none;fill-rule:evenodd;fill:rgb(18.431373%,20.784314%,60%);fill-opacity:1;" d="M 34.601562 26.945312 C 34.601562 27.445312 34.601562 27.945312 34.601562 28.449219 C 31.261719 28.449219 27.921875 28.449219 24.582031 28.449219 C 24.582031 27.945312 24.582031 27.445312 24.582031 26.945312 C 27.921875 26.945312 31.261719 26.945312 34.601562 26.945312 Z M 34.601562 26.945312 "/>
<path style=" stroke:none;fill-rule:evenodd;fill:rgb(30.196078%,42.745098%,95.294118%);fill-opacity:1;" d="M 34.601562 26.945312 C 37.945312 26.945312 41.285156 26.945312 44.625 26.945312 C 44.625 27.445312 44.625 27.945312 44.625 28.449219 C 41.285156 28.449219 37.945312 28.449219 34.601562 28.449219 C 34.601562 27.945312 34.601562 27.445312 34.601562 26.945312 Z M 34.601562 26.945312 "/>
<path style=" stroke:none;fill-rule:evenodd;fill:rgb(43.921569%,60.392157%,81.960784%);fill-opacity:1;" d="M 44.625 26.945312 C 47.964844 26.945312 51.304688 26.945312 54.644531 26.945312 C 54.644531 27.445312 54.644531 27.945312 54.644531 28.449219 C 51.304688 28.449219 47.964844 28.449219 44.625 28.449219 C 44.625 27.945312 44.625 27.445312 44.625 26.945312 Z M 44.625 26.945312 "/>
<path style=" stroke:none;fill-rule:evenodd;fill:rgb(54.901961%,65.098039%,77.647059%);fill-opacity:1;" d="M 54.644531 26.945312 C 57.984375 26.945312 61.324219 26.945312 64.664062 26.945312 C 64.664062 27.445312 64.664062 27.945312 64.664062 28.449219 C 61.324219 28.449219 57.984375 28.449219 54.644531 28.449219 C 54.644531 27.945312 54.644531 27.445312 54.644531 26.945312 Z M 54.644531 26.945312 "/>
<path style=" stroke:none;fill-rule:evenodd;fill:rgb(68.627451%,78.431373%,90.588235%);fill-opacity:1;" d="M 64.664062 26.945312 C 71.347656 26.945312 78.027344 26.945312 84.707031 26.945312 C 84.707031 27.445312 84.707031 27.945312 84.707031 28.449219 C 78.027344 28.449219 71.347656 28.449219 64.664062 28.449219 C 64.664062 27.945312 64.664062 27.445312 64.664062 26.945312 Z M 64.664062 26.945312 "/>
<path style=" stroke:none;fill-rule:evenodd;fill:rgb(54.901961%,65.098039%,77.647059%);fill-opacity:1;" d="M 84.707031 26.945312 C 88.046875 26.945312 91.386719 26.945312 94.730469 26.945312 C 94.730469 27.445312 94.730469 27.945312 94.730469 28.449219 C 91.386719 28.449219 88.046875 28.449219 84.707031 28.449219 C 84.707031 27.945312 84.707031 27.445312 84.707031 26.945312 Z M 84.707031 26.945312 "/>
<path style=" stroke:none;fill-rule:evenodd;fill:rgb(43.921569%,60.392157%,81.960784%);fill-opacity:1;" d="M 94.730469 26.945312 C 98.070312 26.945312 101.410156 26.945312 104.75 26.945312 C 104.75 27.445312 104.75 27.945312 104.75 28.449219 C 101.410156 28.449219 98.070312 28.449219 94.730469 28.449219 C 94.730469 27.945312 94.730469 27.445312 94.730469 26.945312 Z M 94.730469 26.945312 "/>
<path style=" stroke:none;fill-rule:evenodd;fill:rgb(30.196078%,42.745098%,95.294118%);fill-opacity:1;" d="M 104.75 26.945312 C 108.089844 26.945312 111.429688 26.945312 114.769531 26.945312 C 114.769531 27.445312 114.769531 27.945312 114.769531 28.449219 C 111.429688 28.449219 108.089844 28.449219 104.75 28.449219 C 104.75 27.945312 104.75 27.445312 104.75 26.945312 Z M 104.75 26.945312 "/>
<path style=" stroke:none;fill-rule:evenodd;fill:rgb(18.431373%,20.784314%,60%);fill-opacity:1;" d="M 114.769531 26.945312 C 118.109375 26.945312 121.449219 26.945312 124.792969 26.945312 C 124.792969 27.445312 124.792969 27.945312 124.792969 28.449219 C 121.449219 28.449219 118.109375 28.449219 114.769531 28.449219 C 114.769531 27.945312 114.769531 27.445312 114.769531 26.945312 Z M 114.769531 26.945312 "/>
<path style=" stroke:none;fill-rule:evenodd;fill:rgb(12.156863%,13.72549%,38.039216%);fill-opacity:1;" d="M 139.824219 26.945312 C 139.824219 27.445312 139.824219 27.945312 139.824219 28.449219 C 138.152344 28.449219 136.480469 28.449219 134.8125 28.449219 C 134.8125 27.945312 134.8125 27.445312 134.8125 26.945312 C 136.480469 26.945312 138.152344 26.945312 139.824219 26.945312 Z M 139.824219 26.945312 "/>
<path style=" stroke:none;fill-rule:evenodd;fill:rgb(0%,71.764706%,93.72549%);fill-opacity:1;" d="M 139.824219 26.945312 C 141.492188 26.945312 143.164062 26.945312 144.832031 26.945312 C 144.832031 27.445312 144.832031 27.945312 144.832031 28.449219 C 143.164062 28.449219 141.492188 28.449219 139.824219 28.449219 C 139.824219 27.945312 139.824219 27.445312 139.824219 26.945312 Z M 139.824219 26.945312 "/>
</g>
</svg>
