<?xml version="1.0" encoding="UTF-8"?>
<svg xmlns="http://www.w3.org/2000/svg" xmlns:xlink="http://www.w3.org/1999/xlink" width="150px" height="30px" viewBox="0 0 150 30" version="1.1">
<g id="surface1">
<path style=" stroke:none;fill-rule:evenodd;fill:rgb(27.058824%,27.45098%,27.058824%);fill-opacity:1;" d="M -0.15625 -0.046875 C 49.84375 -0.046875 99.84375 -0.046875 149.84375 -0.046875 C 149.84375 1.929688 149.84375 3.902344 149.84375 5.878906 C 148.171875 5.878906 146.503906 5.878906 144.832031 5.878906 C 144.832031 4.875 144.832031 3.871094 144.832031 2.867188 C 144.832031 2.367188 144.832031 1.863281 144.832031 1.363281 C 143.164062 1.363281 141.492188 1.363281 139.824219 1.363281 C 138.152344 1.363281 136.480469 1.363281 134.8125 1.363281 C 133.140625 1.363281 131.472656 1.363281 129.800781 1.363281 C 128.132812 1.363281 126.460938 1.363281 124.792969 1.363281 C 121.449219 1.363281 118.109375 1.363281 114.769531 1.363281 C 111.429688 1.363281 108.089844 1.363281 104.75 1.363281 C 101.410156 1.363281 98.070312 1.363281 94.730469 1.363281 C 91.386719 1.363281 88.046875 1.363281 84.707031 1.363281 C 78.027344 1.363281 71.347656 1.363281 64.664062 1.363281 C 61.324219 1.363281 57.984375 1.363281 54.644531 1.363281 C 51.304688 1.363281 47.964844 1.363281 44.625 1.363281 C 41.285156 1.363281 37.945312 1.363281 34.601562 1.363281 C 31.261719 1.363281 27.921875 1.363281 24.582031 1.363281 C 22.914062 1.363281 21.242188 1.363281 19.570312 1.363281 C 17.902344 1.363281 16.230469 1.363281 14.5625 1.363281 C 12.890625 1.363281 11.222656 1.363281 9.550781 1.363281 C 7.882812 1.363281 6.210938 1.363281 4.539062 1.363281 C 4.539062 1.863281 4.539062 2.367188 4.539062 2.867188 C 4.539062 3.871094 4.539062 4.875 4.539062 5.878906 C 2.976562 5.878906 1.410156 5.878906 -0.15625 5.878906 C -0.15625 3.902344 -0.15625 1.929688 -0.15625 -0.046875 Z M -0.15625 -0.046875 "/>
<path style=" stroke:none;fill-rule:evenodd;fill:rgb(0%,71.764706%,93.72549%);fill-opacity:1;" d="M 9.550781 1.363281 C 9.550781 1.863281 9.550781 2.367188 9.550781 2.867188 C 7.882812 2.867188 6.210938 2.867188 4.539062 2.867188 C 4.539062 2.367188 4.539062 1.863281 4.539062 1.363281 C 6.210938 1.363281 7.882812 1.363281 9.550781 1.363281 Z M 9.550781 1.363281 "/>
<path style=" stroke:none;fill-rule:evenodd;fill:rgb(12.156863%,13.72549%,38.039216%);fill-opacity:1;" d="M 9.550781 1.363281 C 11.222656 1.363281 12.890625 1.363281 14.5625 1.363281 C 14.5625 1.863281 14.5625 2.367188 14.5625 2.867188 C 12.890625 2.867188 11.222656 2.867188 9.550781 2.867188 C 9.550781 2.367188 9.550781 1.863281 9.550781 1.363281 Z M 9.550781 1.363281 "/>
<path style=" stroke:none;fill-rule:evenodd;fill:rgb(18.431373%,20.784314%,60%);fill-opacity:1;" d="M 14.5625 1.363281 C 16.230469 1.363281 17.902344 1.363281 19.570312 1.363281 C 19.570312 2.867188 19.570312 4.371094 19.570312 5.878906 C 16.230469 5.878906 12.890625 5.878906 9.550781 5.878906 C 9.550781 4.875 9.550781 3.871094 9.550781 2.867188 C 11.222656 2.867188 12.890625 2.867188 14.5625 2.867188 C 14.5625 2.367188 14.5625 1.863281 14.5625 1.363281 Z M 14.5625 1.363281 "/>
<path style=" stroke:none;fill-rule:evenodd;fill:rgb(12.156863%,13.72549%,38.039216%);fill-opacity:1;" d="M 19.570312 1.363281 C 21.242188 1.363281 22.914062 1.363281 24.582031 1.363281 C 24.582031 1.863281 24.582031 2.367188 24.582031 2.867188 C 27.921875 2.867188 31.261719 2.867188 34.601562 2.867188 C 37.945312 2.867188 41.285156 2.867188 44.625 2.867188 C 47.964844 2.867188 51.304688 2.867188 54.644531 2.867188 C 57.984375 2.867188 61.324219 2.867188 64.664062 2.867188 C 71.347656 2.867188 78.027344 2.867188 84.707031 2.867188 C 88.046875 2.867188 91.386719 2.867188 94.730469 2.867188 C 98.070312 2.867188 101.410156 2.867188 104.75 2.867188 C 108.089844 2.867188 111.429688 2.867188 114.769531 2.867188 C 118.109375 2.867188 121.449219 2.867188 124.792969 2.867188 C 124.792969 2.367188 124.792969 1.863281 124.792969 1.363281 C 126.460938 1.363281 128.132812 1.363281 129.800781 1.363281 C 129.800781 2.867188 129.800781 4.371094 129.800781 5.878906 C 93.058594 5.878906 56.316406 5.878906 19.570312 5.878906 C 19.570312 4.371094 19.570312 2.867188 19.570312 1.363281 Z M 19.570312 1.363281 "/>
<path style=" stroke:none;fill-rule:evenodd;fill:rgb(18.431373%,20.784314%,60%);fill-opacity:1;" d="M 24.582031 1.363281 C 27.921875 1.363281 31.261719 1.363281 34.601562 1.363281 C 34.601562 1.863281 34.601562 2.367188 34.601562 2.867188 C 31.261719 2.867188 27.921875 2.867188 24.582031 2.867188 C 24.582031 2.367188 24.582031 1.863281 24.582031 1.363281 Z M 24.582031 1.363281 "/>
<path style=" stroke:none;fill-rule:evenodd;fill:rgb(30.196078%,42.745098%,95.294118%);fill-opacity:1;" d="M 34.601562 1.363281 C 37.945312 1.363281 41.285156 1.363281 44.625 1.363281 C 44.625 1.863281 44.625 2.367188 44.625 2.867188 C 41.285156 2.867188 37.945312 2.867188 34.601562 2.867188 C 34.601562 2.367188 34.601562 1.863281 34.601562 1.363281 Z M 34.601562 1.363281 "/>
<path style=" stroke:none;fill-rule:evenodd;fill:rgb(43.921569%,60.392157%,81.960784%);fill-opacity:1;" d="M 44.625 1.363281 C 47.964844 1.363281 51.304688 1.363281 54.644531 1.363281 C 54.644531 1.863281 54.644531 2.367188 54.644531 2.867188 C 51.304688 2.867188 47.964844 2.867188 44.625 2.867188 C 44.625 2.367188 44.625 1.863281 44.625 1.363281 Z M 44.625 1.363281 "/>
<path style=" stroke:none;fill-rule:evenodd;fill:rgb(54.901961%,65.098039%,77.647059%);fill-opacity:1;" d="M 54.644531 1.363281 C 57.984375 1.363281 61.324219 1.363281 64.664062 1.363281 C 64.664062 1.863281 64.664062 2.367188 64.664062 2.867188 C 61.324219 2.867188 57.984375 2.867188 54.644531 2.867188 C 54.644531 2.367188 54.644531 1.863281 54.644531 1.363281 Z M 54.644531 1.363281 "/>
<path style=" stroke:none;fill-rule:evenodd;fill:rgb(68.627451%,78.431373%,90.588235%);fill-opacity:1;" d="M 64.664062 1.363281 C 71.347656 1.363281 78.027344 1.363281 84.707031 1.363281 C 84.707031 1.863281 84.707031 2.367188 84.707031 2.867188 C 78.027344 2.867188 71.347656 2.867188 64.664062 2.867188 C 64.664062 2.367188 64.664062 1.863281 64.664062 1.363281 Z M 64.664062 1.363281 "/>
<path style=" stroke:none;fill-rule:evenodd;fill:rgb(54.901961%,65.098039%,77.647059%);fill-opacity:1;" d="M 84.707031 1.363281 C 88.046875 1.363281 91.386719 1.363281 94.730469 1.363281 C 94.730469 1.863281 94.730469 2.367188 94.730469 2.867188 C 91.386719 2.867188 88.046875 2.867188 84.707031 2.867188 C 84.707031 2.367188 84.707031 1.863281 84.707031 1.363281 Z M 84.707031 1.363281 "/>
<path style=" stroke:none;fill-rule:evenodd;fill:rgb(43.921569%,60.392157%,81.960784%);fill-opacity:1;" d="M 94.730469 1.363281 C 98.070312 1.363281 101.410156 1.363281 104.75 1.363281 C 104.75 1.863281 104.75 2.367188 104.75 2.867188 C 101.410156 2.867188 98.070312 2.867188 94.730469 2.867188 C 94.730469 2.367188 94.730469 1.863281 94.730469 1.363281 Z M 94.730469 1.363281 "/>
<path style=" stroke:none;fill-rule:evenodd;fill:rgb(30.196078%,42.745098%,95.294118%);fill-opacity:1;" d="M 104.75 1.363281 C 108.089844 1.363281 111.429688 1.363281 114.769531 1.363281 C 114.769531 1.863281 114.769531 2.367188 114.769531 2.867188 C 111.429688 2.867188 108.089844 2.867188 104.75 2.867188 C 104.75 2.367188 104.75 1.863281 104.75 1.363281 Z M 104.75 1.363281 "/>
<path style=" stroke:none;fill-rule:evenodd;fill:rgb(18.431373%,20.784314%,60%);fill-opacity:1;" d="M 114.769531 1.363281 C 118.109375 1.363281 121.449219 1.363281 124.792969 1.363281 C 124.792969 1.863281 124.792969 2.367188 124.792969 2.867188 C 121.449219 2.867188 118.109375 2.867188 114.769531 2.867188 C 114.769531 2.367188 114.769531 1.863281 114.769531 1.363281 Z M 114.769531 1.363281 "/>
<path style=" stroke:none;fill-rule:evenodd;fill:rgb(18.431373%,20.784314%,60%);fill-opacity:1;" d="M 129.800781 1.363281 C 131.472656 1.363281 133.140625 1.363281 134.8125 1.363281 C 134.8125 1.863281 134.8125 2.367188 134.8125 2.867188 C 136.480469 2.867188 138.152344 2.867188 139.824219 2.867188 C 139.824219 3.871094 139.824219 4.875 139.824219 5.878906 C 136.480469 5.878906 133.140625 5.878906 129.800781 5.878906 C 129.800781 4.371094 129.800781 2.867188 129.800781 1.363281 Z M 129.800781 1.363281 "/>
<path style=" stroke:none;fill-rule:evenodd;fill:rgb(12.156863%,13.72549%,38.039216%);fill-opacity:1;" d="M 134.8125 1.363281 C 136.480469 1.363281 138.152344 1.363281 139.824219 1.363281 C 139.824219 1.863281 139.824219 2.367188 139.824219 2.867188 C 138.152344 2.867188 136.480469 2.867188 134.8125 2.867188 C 134.8125 2.367188 134.8125 1.863281 134.8125 1.363281 Z M 134.8125 1.363281 "/>
<path style=" stroke:none;fill-rule:evenodd;fill:rgb(0%,71.764706%,93.72549%);fill-opacity:1;" d="M 139.824219 1.363281 C 141.492188 1.363281 143.164062 1.363281 144.832031 1.363281 C 144.832031 1.863281 144.832031 2.367188 144.832031 2.867188 C 143.164062 2.867188 141.492188 2.867188 139.824219 2.867188 C 139.824219 2.367188 139.824219 1.863281 139.824219 1.363281 Z M 139.824219 1.363281 "/>
<path style=" stroke:none;fill-rule:evenodd;fill:rgb(60%,85.098039%,91.372549%);fill-opacity:1;" d="M 4.539062 2.867188 C 6.210938 2.867188 7.882812 2.867188 9.550781 2.867188 C 9.550781 3.871094 9.550781 4.875 9.550781 5.878906 C 7.882812 5.878906 6.210938 5.878906 4.539062 5.878906 C 4.539062 4.875 4.539062 3.871094 4.539062 2.867188 Z M 4.539062 2.867188 "/>
<path style=" stroke:none;fill-rule:evenodd;fill:rgb(60%,85.098039%,91.372549%);fill-opacity:1;" d="M 139.824219 2.867188 C 141.492188 2.867188 143.164062 2.867188 144.832031 2.867188 C 144.832031 3.871094 144.832031 4.875 144.832031 5.878906 C 143.164062 5.878906 141.492188 5.878906 139.824219 5.878906 C 139.824219 4.875 139.824219 3.871094 139.824219 2.867188 Z M 139.824219 2.867188 "/>
<path style=" stroke:none;fill-rule:evenodd;fill:rgb(61.960784%,65.882353%,70.588235%);fill-opacity:1;" d="M -0.15625 5.878906 C 1.410156 5.878906 2.976562 5.878906 4.539062 5.878906 C 6.210938 5.878906 7.882812 5.878906 9.550781 5.878906 C 12.890625 5.878906 16.230469 5.878906 19.570312 5.878906 C 56.316406 5.878906 93.058594 5.878906 129.800781 5.878906 C 133.140625 5.878906 136.480469 5.878906 139.824219 5.878906 C 141.492188 5.878906 143.164062 5.878906 144.832031 5.878906 C 146.503906 5.878906 148.171875 5.878906 149.84375 5.878906 C 149.84375 6.316406 149.84375 6.753906 149.84375 7.195312 C 99.84375 7.195312 49.84375 7.195312 -0.15625 7.195312 C -0.15625 6.753906 -0.15625 6.316406 -0.15625 5.878906 Z M -0.15625 5.878906 "/>
<path style=" stroke:none;fill-rule:evenodd;fill:rgb(18.431373%,20.784314%,60%);fill-opacity:1;" d="M -0.15625 7.195312 C 49.84375 7.195312 99.84375 7.195312 149.84375 7.195312 C 149.84375 9.042969 149.84375 10.894531 149.84375 12.742188 C 99.84375 12.742188 49.84375 12.742188 -0.15625 12.742188 C -0.15625 10.894531 -0.15625 9.042969 -0.15625 7.195312 Z M -0.15625 7.195312 "/>
<path style=" stroke:none;fill-rule:evenodd;fill:rgb(60%,85.098039%,91.372549%);fill-opacity:1;" d="M -0.15625 12.742188 C 49.84375 12.742188 99.84375 12.742188 149.84375 12.742188 C 149.84375 14.246094 149.84375 15.753906 149.84375 17.257812 C 99.84375 17.257812 49.84375 17.257812 -0.15625 17.257812 C -0.15625 15.753906 -0.15625 14.246094 -0.15625 12.742188 Z M -0.15625 12.742188 "/>
<path style=" stroke:none;fill-rule:evenodd;fill:rgb(18.431373%,20.784314%,60%);fill-opacity:1;" d="M -0.15625 17.257812 C 49.84375 17.257812 99.84375 17.257812 149.84375 17.257812 C 149.84375 18.980469 149.84375 20.707031 149.84375 22.429688 C 99.84375 22.429688 49.84375 22.429688 -0.15625 22.429688 C -0.15625 20.707031 -0.15625 18.980469 -0.15625 17.257812 Z M -0.15625 17.257812 "/>
<path style=" stroke:none;fill-rule:evenodd;fill:rgb(61.960784%,65.882353%,70.588235%);fill-opacity:1;" d="M -0.15625 22.429688 C 49.84375 22.429688 99.84375 22.429688 149.84375 22.429688 C 149.84375 22.929688 149.84375 23.433594 149.84375 23.933594 C 148.171875 23.933594 146.503906 23.933594 144.832031 23.933594 C 143.164062 23.933594 141.492188 23.933594 139.824219 23.933594 C 136.480469 23.933594 133.140625 23.933594 129.800781 23.933594 C 93.058594 23.933594 56.316406 23.933594 19.570312 23.933594 C 16.230469 23.933594 12.890625 23.933594 9.550781 23.933594 C 7.882812 23.933594 6.210938 23.933594 4.539062 23.933594 C 2.976562 23.933594 1.410156 23.933594 -0.15625 23.933594 C -0.15625 23.433594 -0.15625 22.929688 -0.15625 22.429688 Z M -0.15625 22.429688 "/>
<path style=" stroke:none;fill-rule:evenodd;fill:rgb(27.058824%,27.45098%,27.058824%);fill-opacity:1;" d="M -0.15625 23.933594 C 1.410156 23.933594 2.976562 23.933594 4.539062 23.933594 C 4.539062 24.9375 4.539062 25.941406 4.539062 26.945312 C 4.539062 27.445312 4.539062 27.945312 4.539062 28.449219 C 6.210938 28.449219 7.882812 28.449219 9.550781 28.449219 C 11.222656 28.449219 12.890625 28.449219 14.5625 28.449219 C 16.230469 28.449219 17.902344 28.449219 19.570312 28.449219 C 21.242188 28.449219 22.914062 28.449219 24.582031 28.449219 C 27.921875 28.449219 31.261719 28.449219 34.601562 28.449219 C 37.945312 28.449219 41.285156 28.449219 44.625 28.449219 C 47.964844 28.449219 51.304688 28.449219 54.644531 28.449219 C 57.984375 28.449219 61.324219 28.449219 64.664062 28.449219 C 71.347656 28.449219 78.027344 28.449219 84.707031 28.449219 C 88.046875 28.449219 91.386719 28.449219 94.730469 28.449219 C 98.070312 28.449219 101.410156 28.449219 104.75 28.449219 C 108.089844 28.449219 111.429688 28.449219 114.769531 28.449219 C 118.109375 28.449219 121.449219 28.449219 124.792969 28.449219 C 126.460938 28.449219 128.132812 28.449219 129.800781 28.449219 C 131.472656 28.449219 133.140625 28.449219 134.8125 28.449219 C 136.480469 28.449219 138.152344 28.449219 139.824219 28.449219 C 141.492188 28.449219 143.164062 28.449219 144.832031 28.449219 C 144.832031 27.945312 144.832031 27.445312 144.832031 26.945312 C 144.832031 25.941406 144.832031 24.9375 144.832031 23.933594 C 146.503906 23.933594 148.171875 23.933594 149.84375 23.933594 C 149.84375 25.941406 149.84375 27.945312 149.84375 29.953125 C 99.84375 29.953125 49.84375 29.953125 -0.15625 29.953125 C -0.15625 27.945312 -0.15625 25.941406 -0.15625 23.933594 Z M -0.15625 23.933594 "/>
<path style=" stroke:none;fill-rule:evenodd;fill:rgb(60%,85.098039%,91.372549%);fill-opacity:1;" d="M 4.539062 23.933594 C 6.210938 23.933594 7.882812 23.933594 9.550781 23.933594 C 9.550781 24.9375 9.550781 25.941406 9.550781 26.945312 C 7.882812 26.945312 6.210938 26.945312 4.539062 26.945312 C 4.539062 25.941406 4.539062 24.9375 4.539062 23.933594 Z M 4.539062 23.933594 "/>
<path style=" stroke:none;fill-rule:evenodd;fill:rgb(18.431373%,20.784314%,60%);fill-opacity:1;" d="M 9.550781 23.933594 C 12.890625 23.933594 16.230469 23.933594 19.570312 23.933594 C 19.570312 25.4375 19.570312 26.945312 19.570312 28.449219 C 17.902344 28.449219 16.230469 28.449219 14.5625 28.449219 C 14.5625 27.945312 14.5625 27.445312 14.5625 26.945312 C 12.890625 26.945312 11.222656 26.945312 9.550781 26.945312 C 9.550781 25.941406 9.550781 24.9375 9.550781 23.933594 Z M 9.550781 23.933594 "/>
<path style=" stroke:none;fill-rule:evenodd;fill:rgb(12.156863%,13.72549%,38.039216%);fill-opacity:1;" d="M 19.570312 23.933594 C 56.316406 23.933594 93.058594 23.933594 129.800781 23.933594 C 129.800781 25.4375 129.800781 26.945312 129.800781 28.449219 C 128.132812 28.449219 126.460938 28.449219 124.792969 28.449219 C 124.792969 27.945312 124.792969 27.445312 124.792969 26.945312 C 121.449219 26.945312 118.109375 26.945312 114.769531 26.945312 C 111.429688 26.945312 108.089844 26.945312 104.75 26.945312 C 101.410156 26.945312 98.070312 26.945312 94.730469 26.945312 C 91.386719 26.945312 88.046875 26.945312 84.707031 26.945312 C 78.027344 26.945312 71.347656 26.945312 64.664062 26.945312 C 61.324219 26.945312 57.984375 26.945312 54.644531 26.945312 C 51.304688 26.945312 47.964844 26.945312 44.625 26.945312 C 41.285156 26.945312 37.945312 26.945312 34.601562 26.945312 C 31.261719 26.945312 27.921875 26.945312 24.582031 26.945312 C 24.582031 27.445312 24.582031 27.945312 24.582031 28.449219 C 22.914062 28.449219 21.242188 28.449219 19.570312 28.449219 C 19.570312 26.945312 19.570312 25.4375 19.570312 23.933594 Z M 19.570312 23.933594 "/>
<path style=" stroke:none;fill-rule:evenodd;fill:rgb(18.431373%,20.784314%,60%);fill-opacity:1;" d="M 129.800781 23.933594 C 133.140625 23.933594 136.480469 23.933594 139.824219 23.933594 C 139.824219 24.9375 139.824219 25.941406 139.824219 26.945312 C 138.152344 26.945312 136.480469 26.945312 134.8125 26.945312 C 134.8125 27.445312 134.8125 27.945312 134.8125 28.449219 C 133.140625 28.449219 131.472656 28.449219 129.800781 28.449219 C 129.800781 26.945312 129.800781 25.4375 129.800781 23.933594 Z M 129.800781 23.933594 "/>
<path style=" stroke:none;fill-rule:evenodd;fill:rgb(60%,85.098039%,91.372549%);fill-opacity:1;" d="M 139.824219 23.933594 C 141.492188 23.933594 143.164062 23.933594 144.832031 23.933594 C 144.832031 24.9375 144.832031 25.941406 144.832031 26.945312 C 143.164062 26.945312 141.492188 26.945312 139.824219 26.945312 C 139.824219 25.941406 139.824219 24.9375 139.824219 23.933594 Z M 139.824219 23.933594 "/>
<path style=" stroke:none;fill-rule:evenodd;fill:rgb(0%,71.764706%,93.72549%);fill-opacity:1;" d="M 4.539062 26.945312 C 6.210938 26.945312 7.882812 26.945312 9.550781 26.945312 C 9.550781 27.445312 9.550781 27.945312 9.550781 28.449219 C 7.882812 28.449219 6.210938 28.449219 4.539062 28.449219 C 4.539062 27.945312 4.539062 27.445312 4.539062 26.945312 Z M 4.539062 26.945312 "/>
<path style=" stroke:none;fill-rule:evenodd;fill:rgb(12.156863%,13.72549%,38.039216%);fill-opacity:1;" d="M 9.550781 26.945312 C 11.222656 26.945312 12.890625 26.945312 14.5625 26.945312 C 14.5625 27.445312 14.5625 27.945312 14.5625 28.449219 C 12.890625 28.449219 11.222656 28.449219 9.550781 28.449219 C 9.550781 27.945312 9.550781 27.445312 9.550781 26.945312 Z M 9.550781 26.945312 "/>
<path style=" stroke:none;fill-rule:evenodd;fill:rgb(18.431373%,20.784314%,60%);fill-opacity:1;" d="M 34.601562 26.945312 C 34.601562 27.445312 34.601562 27.945312 34.601562 28.449219 C 31.261719 28.449219 27.921875 28.449219 24.582031 28.449219 C 24.582031 27.945312 24.582031 27.445312 24.582031 26.945312 C 27.921875 26.945312 31.261719 26.945312 34.601562 26.945312 Z M 34.601562 26.945312 "/>
<path style=" stroke:none;fill-rule:evenodd;fill:rgb(30.196078%,42.745098%,95.294118%);fill-opacity:1;" d="M 34.601562 26.945312 C 37.945312 26.945312 41.285156 26.945312 44.625 26.945312 C 44.625 27.445312 44.625 27.945312 44.625 28.449219 C 41.285156 28.449219 37.945312 28.449219 34.601562 28.449219 C 34.601562 27.945312 34.601562 27.445312 34.601562 26.945312 Z M 34.601562 26.945312 "/>
<path style=" stroke:none;fill-rule:evenodd;fill:rgb(43.921569%,60.392157%,81.960784%);fill-opacity:1;" d="M 44.625 26.945312 C 47.964844 26.945312 51.304688 26.945312 54.644531 26.945312 C 54.644531 27.445312 54.644531 27.945312 54.644531 28.449219 C 51.304688 28.449219 47.964844 28.449219 44.625 28.449219 C 44.625 27.945312 44.625 27.445312 44.625 26.945312 Z M 44.625 26.945312 "/>
<path style=" stroke:none;fill-rule:evenodd;fill:rgb(54.901961%,65.098039%,77.647059%);fill-opacity:1;" d="M 54.644531 26.945312 C 57.984375 26.945312 61.324219 26.945312 64.664062 26.945312 C 64.664062 27.445312 64.664062 27.945312 64.664062 28.449219 C 61.324219 28.449219 57.984375 28.449219 54.644531 28.449219 C 54.644531 27.945312 54.644531 27.445312 54.644531 26.945312 Z M 54.644531 26.945312 "/>
<path style=" stroke:none;fill-rule:evenodd;fill:rgb(68.627451%,78.431373%,90.588235%);fill-opacity:1;" d="M 64.664062 26.945312 C 71.347656 26.945312 78.027344 26.945312 84.707031 26.945312 C 84.707031 27.445312 84.707031 27.945312 84.707031 28.449219 C 78.027344 28.449219 71.347656 28.449219 64.664062 28.449219 C 64.664062 27.945312 64.664062 27.445312 64.664062 26.945312 Z M 64.664062 26.945312 "/>
<path style=" stroke:none;fill-rule:evenodd;fill:rgb(54.901961%,65.098039%,77.647059%);fill-opacity:1;" d="M 84.707031 26.945312 C 88.046875 26.945312 91.386719 26.945312 94.730469 26.945312 C 94.730469 27.445312 94.730469 27.945312 94.730469 28.449219 C 91.386719 28.449219 88.046875 28.449219 84.707031 28.449219 C 84.707031 27.945312 84.707031 27.445312 84.707031 26.945312 Z M 84.707031 26.945312 "/>
<path style=" stroke:none;fill-rule:evenodd;fill:rgb(43.921569%,60.392157%,81.960784%);fill-opacity:1;" d="M 94.730469 26.945312 C 98.070312 26.945312 101.410156 26.945312 104.75 26.945312 C 104.75 27.445312 104.75 27.945312 104.75 28.449219 C 101.410156 28.449219 98.070312 28.449219 94.730469 28.449219 C 94.730469 27.945312 94.730469 27.445312 94.730469 26.945312 Z M 94.730469 26.945312 "/>
<path style=" stroke:none;fill-rule:evenodd;fill:rgb(30.196078%,42.745098%,95.294118%);fill-opacity:1;" d="M 104.75 26.945312 C 108.089844 26.945312 111.429688 26.945312 114.769531 26.945312 C 114.769531 27.445312 114.769531 27.945312 114.769531 28.449219 C 111.429688 28.449219 108.089844 28.449219 104.75 28.449219 C 104.75 27.945312 104.75 27.445312 104.75 26.945312 Z M 104.75 26.945312 "/>
<path style=" stroke:none;fill-rule:evenodd;fill:rgb(18.431373%,20.784314%,60%);fill-opacity:1;" d="M 114.769531 26.945312 C 118.109375 26.945312 121.449219 26.945312 124.792969 26.945312 C 124.792969 27.445312 124.792969 27.945312 124.792969 28.449219 C 121.449219 28.449219 118.109375 28.449219 114.769531 28.449219 C 114.769531 27.945312 114.769531 27.445312 114.769531 26.945312 Z M 114.769531 26.945312 "/>
<path style=" stroke:none;fill-rule:evenodd;fill:rgb(12.156863%,13.72549%,38.039216%);fill-opacity:1;" d="M 139.824219 26.945312 C 139.824219 27.445312 139.824219 27.945312 139.824219 28.449219 C 138.152344 28.449219 136.480469 28.449219 134.8125 28.449219 C 134.8125 27.945312 134.8125 27.445312 134.8125 26.945312 C 136.480469 26.945312 138.152344 26.945312 139.824219 26.945312 Z M 139.824219 26.945312 "/>
<path style=" stroke:none;fill-rule:evenodd;fill:rgb(0%,71.764706%,93.72549%);fill-opacity:1;" d="M 139.824219 26.945312 C 141.492188 26.945312 143.164062 26.945312 144.832031 26.945312 C 144.832031 27.445312 144.832031 27.945312 144.832031 28.449219 C 143.164062 28.449219 141.492188 28.449219 139.824219 28.449219 C 139.824219 27.945312 139.824219 27.445312 139.824219 26.945312 Z M 139.824219 26.945312 "/>
</g>
</svg>
