<?xml version="1.0" encoding="UTF-8"?>
<svg xmlns="http://www.w3.org/2000/svg" xmlns:xlink="http://www.w3.org/1999/xlink" width="150px" height="30px" viewBox="0 0 150 30" version="1.1">
<g id="surface1">
<path style=" stroke:none;fill-rule:evenodd;fill:rgb(27.058824%,27.45098%,27.058824%);fill-opacity:1;" d="M -0.15625 -0.046875 C 49.84375 -0.046875 99.84375 -0.046875 149.84375 -0.046875 C 149.84375 9.953125 149.84375 19.953125 149.84375 29.953125 C 99.84375 29.953125 49.84375 29.953125 -0.15625 29.953125 C -0.15625 27.976562 -0.15625 26.003906 -0.15625 24.027344 C 1.511719 24.027344 3.183594 24.027344 4.855469 24.027344 C 4.855469 25.03125 4.855469 26.035156 4.855469 27.039062 C 4.855469 27.539062 4.855469 28.039062 4.855469 28.542969 C 6.523438 28.542969 8.195312 28.542969 9.863281 28.542969 C 11.535156 28.542969 13.203125 28.542969 14.875 28.542969 C 16.542969 28.542969 18.214844 28.542969 19.886719 28.542969 C 21.554688 28.542969 23.226562 28.542969 24.894531 28.542969 C 28.234375 28.542969 31.574219 28.542969 34.917969 28.542969 C 38.257812 28.542969 41.597656 28.542969 44.9375 28.542969 C 48.277344 28.542969 51.617188 28.542969 54.957031 28.542969 C 58.296875 28.542969 61.640625 28.542969 64.980469 28.542969 C 71.660156 28.542969 78.339844 28.542969 85.019531 28.542969 C 88.359375 28.542969 91.703125 28.542969 95.042969 28.542969 C 98.382812 28.542969 101.722656 28.542969 105.0625 28.542969 C 108.402344 28.542969 111.742188 28.542969 115.082031 28.542969 C 118.425781 28.542969 121.765625 28.542969 125.105469 28.542969 C 126.773438 28.542969 128.445312 28.542969 130.113281 28.542969 C 131.785156 28.542969 133.457031 28.542969 135.125 28.542969 C 136.796875 28.542969 138.464844 28.542969 140.136719 28.542969 C 141.804688 28.542969 143.476562 28.542969 145.144531 28.542969 C 145.144531 28.039062 145.144531 27.539062 145.144531 27.039062 C 145.144531 25.03125 145.144531 23.023438 145.144531 21.019531 C 145.144531 20.515625 145.144531 20.015625 145.144531 19.515625 C 145.144531 18.511719 145.144531 17.507812 145.144531 16.503906 C 145.144531 15.5 145.144531 14.5 145.144531 13.496094 C 145.144531 12.492188 145.144531 11.488281 145.144531 10.484375 C 145.144531 9.984375 145.144531 9.484375 145.144531 8.980469 C 145.144531 6.976562 145.144531 4.96875 145.144531 2.960938 C 145.144531 2.460938 145.144531 1.960938 145.144531 1.457031 C 143.476562 1.457031 141.804688 1.457031 140.136719 1.457031 C 138.464844 1.457031 136.796875 1.457031 135.125 1.457031 C 133.457031 1.457031 131.785156 1.457031 130.113281 1.457031 C 128.445312 1.457031 126.773438 1.457031 125.105469 1.457031 C 121.765625 1.457031 118.425781 1.457031 115.082031 1.457031 C 111.742188 1.457031 108.402344 1.457031 105.0625 1.457031 C 101.722656 1.457031 98.382812 1.457031 95.042969 1.457031 C 91.703125 1.457031 88.359375 1.457031 85.019531 1.457031 C 78.339844 1.457031 71.660156 1.457031 64.980469 1.457031 C 61.640625 1.457031 58.296875 1.457031 54.957031 1.457031 C 51.617188 1.457031 48.277344 1.457031 44.9375 1.457031 C 41.597656 1.457031 38.257812 1.457031 34.917969 1.457031 C 31.574219 1.457031 28.234375 1.457031 24.894531 1.457031 C 23.226562 1.457031 21.554688 1.457031 19.886719 1.457031 C 18.214844 1.457031 16.542969 1.457031 14.875 1.457031 C 13.203125 1.457031 11.535156 1.457031 9.863281 1.457031 C 8.195312 1.457031 6.523438 1.457031 4.855469 1.457031 C 4.855469 1.960938 4.855469 2.460938 4.855469 2.960938 C 4.855469 3.964844 4.855469 4.96875 4.855469 5.972656 C 3.183594 5.972656 1.511719 5.972656 -0.15625 5.972656 C -0.15625 3.964844 -0.15625 1.960938 -0.15625 -0.046875 Z M -0.15625 -0.046875 "/>
<path style=" stroke:none;fill-rule:evenodd;fill:rgb(0%,71.764706%,93.72549%);fill-opacity:1;" d="M 9.863281 1.457031 C 9.863281 1.960938 9.863281 2.460938 9.863281 2.960938 C 8.195312 2.960938 6.523438 2.960938 4.855469 2.960938 C 4.855469 2.460938 4.855469 1.960938 4.855469 1.457031 C 6.523438 1.457031 8.195312 1.457031 9.863281 1.457031 Z M 9.863281 1.457031 "/>
<path style=" stroke:none;fill-rule:evenodd;fill:rgb(12.156863%,13.72549%,38.039216%);fill-opacity:1;" d="M 9.863281 1.457031 C 11.535156 1.457031 13.203125 1.457031 14.875 1.457031 C 14.875 1.960938 14.875 2.460938 14.875 2.960938 C 13.203125 2.960938 11.535156 2.960938 9.863281 2.960938 C 9.863281 2.460938 9.863281 1.960938 9.863281 1.457031 Z M 9.863281 1.457031 "/>
<path style=" stroke:none;fill-rule:evenodd;fill:rgb(18.431373%,20.784314%,60%);fill-opacity:1;" d="M 14.875 1.457031 C 16.542969 1.457031 18.214844 1.457031 19.886719 1.457031 C 19.886719 2.960938 19.886719 4.46875 19.886719 5.972656 C 16.542969 5.972656 13.203125 5.972656 9.863281 5.972656 C 9.863281 4.96875 9.863281 3.964844 9.863281 2.960938 C 11.535156 2.960938 13.203125 2.960938 14.875 2.960938 C 14.875 2.460938 14.875 1.960938 14.875 1.457031 Z M 14.875 1.457031 "/>
<path style=" stroke:none;fill-rule:evenodd;fill:rgb(12.156863%,13.72549%,38.039216%);fill-opacity:1;" d="M 19.886719 1.457031 C 21.554688 1.457031 23.226562 1.457031 24.894531 1.457031 C 24.894531 1.960938 24.894531 2.460938 24.894531 2.960938 C 28.234375 2.960938 31.574219 2.960938 34.917969 2.960938 C 38.257812 2.960938 41.597656 2.960938 44.9375 2.960938 C 48.277344 2.960938 51.617188 2.960938 54.957031 2.960938 C 58.296875 2.960938 61.640625 2.960938 64.980469 2.960938 C 71.660156 2.960938 78.339844 2.960938 85.019531 2.960938 C 88.359375 2.960938 91.703125 2.960938 95.042969 2.960938 C 98.382812 2.960938 101.722656 2.960938 105.0625 2.960938 C 108.402344 2.960938 111.742188 2.960938 115.082031 2.960938 C 118.425781 2.960938 121.765625 2.960938 125.105469 2.960938 C 125.105469 2.460938 125.105469 1.960938 125.105469 1.457031 C 126.773438 1.457031 128.445312 1.457031 130.113281 1.457031 C 130.113281 3.964844 130.113281 6.472656 130.113281 8.980469 C 131.785156 8.980469 133.457031 8.980469 135.125 8.980469 C 135.125 8.480469 135.125 7.976562 135.125 7.476562 C 136.796875 7.476562 138.464844 7.476562 140.136719 7.476562 C 140.136719 7.976562 140.136719 8.480469 140.136719 8.980469 C 140.136719 9.484375 140.136719 9.984375 140.136719 10.484375 C 141.804688 10.484375 143.476562 10.484375 145.144531 10.484375 C 145.144531 11.488281 145.144531 12.492188 145.144531 13.496094 C 141.804688 13.496094 138.464844 13.496094 135.125 13.496094 C 135.125 14.5 135.125 15.5 135.125 16.503906 C 138.464844 16.503906 141.804688 16.503906 145.144531 16.503906 C 145.144531 17.507812 145.144531 18.511719 145.144531 19.515625 C 143.476562 19.515625 141.804688 19.515625 140.136719 19.515625 C 140.136719 20.015625 140.136719 20.515625 140.136719 21.019531 C 140.136719 21.519531 140.136719 22.023438 140.136719 22.523438 C 138.464844 22.523438 136.796875 22.523438 135.125 22.523438 C 135.125 22.023438 135.125 21.519531 135.125 21.019531 C 133.457031 21.019531 131.785156 21.019531 130.113281 21.019531 C 130.113281 23.527344 130.113281 26.035156 130.113281 28.542969 C 128.445312 28.542969 126.773438 28.542969 125.105469 28.542969 C 125.105469 28.039062 125.105469 27.539062 125.105469 27.039062 C 121.765625 27.039062 118.425781 27.039062 115.082031 27.039062 C 111.742188 27.039062 108.402344 27.039062 105.0625 27.039062 C 101.722656 27.039062 98.382812 27.039062 95.042969 27.039062 C 91.703125 27.039062 88.359375 27.039062 85.019531 27.039062 C 78.339844 27.039062 71.660156 27.039062 64.980469 27.039062 C 61.640625 27.039062 58.296875 27.039062 54.957031 27.039062 C 51.617188 27.039062 48.277344 27.039062 44.9375 27.039062 C 41.597656 27.039062 38.257812 27.039062 34.917969 27.039062 C 31.574219 27.039062 28.234375 27.039062 24.894531 27.039062 C 24.894531 27.539062 24.894531 28.039062 24.894531 28.542969 C 23.226562 28.542969 21.554688 28.542969 19.886719 28.542969 C 19.886719 27.039062 19.886719 25.53125 19.886719 24.027344 C 51.617188 24.027344 83.351562 24.027344 115.082031 24.027344 C 118.425781 24.027344 121.765625 24.027344 125.105469 24.027344 C 125.105469 23.023438 125.105469 22.023438 125.105469 21.019531 C 125.105469 20.515625 125.105469 20.015625 125.105469 19.515625 C 126.773438 19.515625 128.445312 19.515625 130.113281 19.515625 C 130.113281 16.503906 130.113281 13.496094 130.113281 10.484375 C 128.445312 10.484375 126.773438 10.484375 125.105469 10.484375 C 125.105469 9.984375 125.105469 9.484375 125.105469 8.980469 C 125.105469 7.976562 125.105469 6.976562 125.105469 5.972656 C 121.765625 5.972656 118.425781 5.972656 115.082031 5.972656 C 83.351562 5.972656 51.617188 5.972656 19.886719 5.972656 C 19.886719 4.46875 19.886719 2.960938 19.886719 1.457031 Z M 19.886719 1.457031 "/>
<path style=" stroke:none;fill-rule:evenodd;fill:rgb(18.431373%,20.784314%,60%);fill-opacity:1;" d="M 24.894531 1.457031 C 28.234375 1.457031 31.574219 1.457031 34.917969 1.457031 C 34.917969 1.960938 34.917969 2.460938 34.917969 2.960938 C 31.574219 2.960938 28.234375 2.960938 24.894531 2.960938 C 24.894531 2.460938 24.894531 1.960938 24.894531 1.457031 Z M 24.894531 1.457031 "/>
<path style=" stroke:none;fill-rule:evenodd;fill:rgb(30.196078%,42.745098%,95.294118%);fill-opacity:1;" d="M 34.917969 1.457031 C 38.257812 1.457031 41.597656 1.457031 44.9375 1.457031 C 44.9375 1.960938 44.9375 2.460938 44.9375 2.960938 C 41.597656 2.960938 38.257812 2.960938 34.917969 2.960938 C 34.917969 2.460938 34.917969 1.960938 34.917969 1.457031 Z M 34.917969 1.457031 "/>
<path style=" stroke:none;fill-rule:evenodd;fill:rgb(43.921569%,60.392157%,81.960784%);fill-opacity:1;" d="M 44.9375 1.457031 C 48.277344 1.457031 51.617188 1.457031 54.957031 1.457031 C 54.957031 1.960938 54.957031 2.460938 54.957031 2.960938 C 51.617188 2.960938 48.277344 2.960938 44.9375 2.960938 C 44.9375 2.460938 44.9375 1.960938 44.9375 1.457031 Z M 44.9375 1.457031 "/>
<path style=" stroke:none;fill-rule:evenodd;fill:rgb(54.901961%,65.098039%,77.647059%);fill-opacity:1;" d="M 54.957031 1.457031 C 58.296875 1.457031 61.640625 1.457031 64.980469 1.457031 C 64.980469 1.960938 64.980469 2.460938 64.980469 2.960938 C 61.640625 2.960938 58.296875 2.960938 54.957031 2.960938 C 54.957031 2.460938 54.957031 1.960938 54.957031 1.457031 Z M 54.957031 1.457031 "/>
<path style=" stroke:none;fill-rule:evenodd;fill:rgb(68.627451%,78.431373%,90.588235%);fill-opacity:1;" d="M 64.980469 1.457031 C 71.660156 1.457031 78.339844 1.457031 85.019531 1.457031 C 85.019531 1.960938 85.019531 2.460938 85.019531 2.960938 C 78.339844 2.960938 71.660156 2.960938 64.980469 2.960938 C 64.980469 2.460938 64.980469 1.960938 64.980469 1.457031 Z M 64.980469 1.457031 "/>
<path style=" stroke:none;fill-rule:evenodd;fill:rgb(54.901961%,65.098039%,77.647059%);fill-opacity:1;" d="M 85.019531 1.457031 C 88.359375 1.457031 91.703125 1.457031 95.042969 1.457031 C 95.042969 1.960938 95.042969 2.460938 95.042969 2.960938 C 91.703125 2.960938 88.359375 2.960938 85.019531 2.960938 C 85.019531 2.460938 85.019531 1.960938 85.019531 1.457031 Z M 85.019531 1.457031 "/>
<path style=" stroke:none;fill-rule:evenodd;fill:rgb(43.921569%,60.392157%,81.960784%);fill-opacity:1;" d="M 95.042969 1.457031 C 98.382812 1.457031 101.722656 1.457031 105.0625 1.457031 C 105.0625 1.960938 105.0625 2.460938 105.0625 2.960938 C 101.722656 2.960938 98.382812 2.960938 95.042969 2.960938 C 95.042969 2.460938 95.042969 1.960938 95.042969 1.457031 Z M 95.042969 1.457031 "/>
<path style=" stroke:none;fill-rule:evenodd;fill:rgb(30.196078%,42.745098%,95.294118%);fill-opacity:1;" d="M 105.0625 1.457031 C 108.402344 1.457031 111.742188 1.457031 115.082031 1.457031 C 115.082031 1.960938 115.082031 2.460938 115.082031 2.960938 C 111.742188 2.960938 108.402344 2.960938 105.0625 2.960938 C 105.0625 2.460938 105.0625 1.960938 105.0625 1.457031 Z M 105.0625 1.457031 "/>
<path style=" stroke:none;fill-rule:evenodd;fill:rgb(18.431373%,20.784314%,60%);fill-opacity:1;" d="M 115.082031 1.457031 C 118.425781 1.457031 121.765625 1.457031 125.105469 1.457031 C 125.105469 1.960938 125.105469 2.460938 125.105469 2.960938 C 121.765625 2.960938 118.425781 2.960938 115.082031 2.960938 C 115.082031 2.460938 115.082031 1.960938 115.082031 1.457031 Z M 115.082031 1.457031 "/>
<path style=" stroke:none;fill-rule:evenodd;fill:rgb(18.431373%,20.784314%,60%);fill-opacity:1;" d="M 130.113281 1.457031 C 131.785156 1.457031 133.457031 1.457031 135.125 1.457031 C 135.125 1.960938 135.125 2.460938 135.125 2.960938 C 136.796875 2.960938 138.464844 2.960938 140.136719 2.960938 C 140.136719 4.46875 140.136719 5.972656 140.136719 7.476562 C 138.464844 7.476562 136.796875 7.476562 135.125 7.476562 C 135.125 7.976562 135.125 8.480469 135.125 8.980469 C 133.457031 8.980469 131.785156 8.980469 130.113281 8.980469 C 130.113281 6.472656 130.113281 3.964844 130.113281 1.457031 Z M 130.113281 1.457031 "/>
<path style=" stroke:none;fill-rule:evenodd;fill:rgb(12.156863%,13.72549%,38.039216%);fill-opacity:1;" d="M 135.125 1.457031 C 136.796875 1.457031 138.464844 1.457031 140.136719 1.457031 C 140.136719 1.960938 140.136719 2.460938 140.136719 2.960938 C 138.464844 2.960938 136.796875 2.960938 135.125 2.960938 C 135.125 2.460938 135.125 1.960938 135.125 1.457031 Z M 135.125 1.457031 "/>
<path style=" stroke:none;fill-rule:evenodd;fill:rgb(0%,71.764706%,93.72549%);fill-opacity:1;" d="M 140.136719 1.457031 C 141.804688 1.457031 143.476562 1.457031 145.144531 1.457031 C 145.144531 1.960938 145.144531 2.460938 145.144531 2.960938 C 143.476562 2.960938 141.804688 2.960938 140.136719 2.960938 C 140.136719 2.460938 140.136719 1.960938 140.136719 1.457031 Z M 140.136719 1.457031 "/>
<path style=" stroke:none;fill-rule:evenodd;fill:rgb(60%,85.098039%,91.372549%);fill-opacity:1;" d="M 4.855469 2.960938 C 6.523438 2.960938 8.195312 2.960938 9.863281 2.960938 C 9.863281 3.964844 9.863281 4.96875 9.863281 5.972656 C 8.195312 5.972656 6.523438 5.972656 4.855469 5.972656 C 4.855469 4.96875 4.855469 3.964844 4.855469 2.960938 Z M 4.855469 2.960938 "/>
<path style=" stroke:none;fill-rule:evenodd;fill:rgb(60%,85.098039%,91.372549%);fill-opacity:1;" d="M 140.136719 2.960938 C 141.804688 2.960938 143.476562 2.960938 145.144531 2.960938 C 145.144531 4.96875 145.144531 6.976562 145.144531 8.980469 C 143.476562 8.980469 141.804688 8.980469 140.136719 8.980469 C 140.136719 8.480469 140.136719 7.976562 140.136719 7.476562 C 140.136719 5.972656 140.136719 4.46875 140.136719 2.960938 Z M 140.136719 2.960938 "/>
<path style=" stroke:none;fill-rule:evenodd;fill:rgb(61.960784%,65.882353%,70.588235%);fill-opacity:1;" d="M -0.15625 5.972656 C 1.511719 5.972656 3.183594 5.972656 4.855469 5.972656 C 6.523438 5.972656 8.195312 5.972656 9.863281 5.972656 C 13.203125 5.972656 16.542969 5.972656 19.886719 5.972656 C 51.617188 5.972656 83.351562 5.972656 115.082031 5.972656 C 115.082031 6.472656 115.082031 6.976562 115.082031 7.476562 C 116.753906 7.476562 118.425781 7.476562 120.09375 7.476562 C 120.09375 7.976562 120.09375 8.480469 120.09375 8.980469 C 121.765625 8.980469 123.433594 8.980469 125.105469 8.980469 C 125.105469 9.484375 125.105469 9.984375 125.105469 10.484375 C 126.773438 10.484375 128.445312 10.484375 130.113281 10.484375 C 130.113281 13.496094 130.113281 16.503906 130.113281 19.515625 C 128.445312 19.515625 126.773438 19.515625 125.105469 19.515625 C 125.105469 20.015625 125.105469 20.515625 125.105469 21.019531 C 123.433594 21.019531 121.765625 21.019531 120.09375 21.019531 C 120.09375 21.519531 120.09375 22.023438 120.09375 22.523438 C 118.425781 22.523438 116.753906 22.523438 115.082031 22.523438 C 115.082031 23.023438 115.082031 23.527344 115.082031 24.027344 C 83.351562 24.027344 51.617188 24.027344 19.886719 24.027344 C 16.542969 24.027344 13.203125 24.027344 9.863281 24.027344 C 8.195312 24.027344 6.523438 24.027344 4.855469 24.027344 C 3.183594 24.027344 1.511719 24.027344 -0.15625 24.027344 C -0.15625 23.589844 -0.15625 23.152344 -0.15625 22.710938 C 33.039062 22.710938 66.230469 22.710938 99.425781 22.710938 C 99.425781 22.429688 99.425781 22.148438 99.425781 21.863281 C 100.46875 21.863281 101.515625 21.863281 102.558594 21.863281 C 102.558594 21.582031 102.558594 21.300781 102.558594 21.019531 C 103.496094 21.019531 104.4375 21.019531 105.375 21.019531 C 105.375 20.707031 105.375 20.390625 105.375 20.078125 C 106.417969 20.078125 107.464844 20.078125 108.507812 20.078125 C 108.507812 19.859375 108.507812 19.640625 108.507812 19.421875 C 109.34375 19.421875 110.175781 19.421875 111.011719 19.421875 C 111.011719 19.199219 111.011719 18.980469 111.011719 18.761719 C 112.265625 18.761719 113.519531 18.761719 114.769531 18.761719 C 114.769531 18.386719 114.769531 18.007812 114.769531 17.632812 C 116.023438 17.632812 117.277344 17.632812 118.527344 17.632812 C 118.527344 17.320312 118.527344 17.007812 118.527344 16.691406 C 120.199219 16.691406 121.867188 16.691406 123.539062 16.691406 C 123.539062 15.59375 123.539062 14.5 123.539062 13.402344 C 121.972656 13.402344 120.40625 13.402344 118.839844 13.402344 C 118.839844 12.992188 118.839844 12.585938 118.839844 12.179688 C 117.484375 12.179688 116.128906 12.179688 114.769531 12.179688 C 114.769531 11.800781 114.769531 11.425781 114.769531 11.050781 C 113.726562 11.050781 112.683594 11.050781 111.640625 11.050781 C 111.640625 10.738281 111.640625 10.421875 111.640625 10.109375 C 110.699219 10.109375 109.761719 10.109375 108.820312 10.109375 C 108.820312 9.859375 108.820312 9.609375 108.820312 9.355469 C 107.671875 9.355469 106.523438 9.355469 105.375 9.355469 C 105.375 9.042969 105.375 8.730469 105.375 8.417969 C 103.914062 8.417969 102.453125 8.417969 100.992188 8.417969 C 100.992188 8.101562 100.992188 7.789062 100.992188 7.476562 C 67.277344 7.476562 33.558594 7.476562 -0.15625 7.476562 C -0.15625 6.976562 -0.15625 6.472656 -0.15625 5.972656 Z M -0.15625 5.972656 "/>
<path style=" stroke:none;fill-rule:evenodd;fill:rgb(42.745098%,47.45098%,53.72549%);fill-opacity:1;" d="M 115.082031 5.972656 C 118.425781 5.972656 121.765625 5.972656 125.105469 5.972656 C 125.105469 6.976562 125.105469 7.976562 125.105469 8.980469 C 123.433594 8.980469 121.765625 8.980469 120.09375 8.980469 C 120.09375 8.480469 120.09375 7.976562 120.09375 7.476562 C 118.425781 7.476562 116.753906 7.476562 115.082031 7.476562 C 115.082031 6.976562 115.082031 6.472656 115.082031 5.972656 Z M 115.082031 5.972656 "/>
<path style=" stroke:none;fill-rule:evenodd;fill:rgb(18.431373%,20.784314%,60%);fill-opacity:1;" d="M -0.15625 7.476562 C 33.558594 7.476562 67.277344 7.476562 100.992188 7.476562 C 100.992188 7.789062 100.992188 8.101562 100.992188 8.417969 C 102.453125 8.417969 103.914062 8.417969 105.375 8.417969 C 105.375 8.730469 105.375 9.042969 105.375 9.355469 C 106.523438 9.355469 107.671875 9.355469 108.820312 9.355469 C 108.820312 9.609375 108.820312 9.859375 108.820312 10.109375 C 109.761719 10.109375 110.699219 10.109375 111.640625 10.109375 C 111.640625 10.421875 111.640625 10.738281 111.640625 11.050781 C 112.683594 11.050781 113.726562 11.050781 114.769531 11.050781 C 114.769531 11.425781 114.769531 11.800781 114.769531 12.179688 C 116.128906 12.179688 117.484375 12.179688 118.839844 12.179688 C 118.839844 12.585938 118.839844 12.992188 118.839844 13.402344 C 120.40625 13.402344 121.972656 13.402344 123.539062 13.402344 C 123.539062 14.5 123.539062 15.59375 123.539062 16.691406 C 121.867188 16.691406 120.199219 16.691406 118.527344 16.691406 C 118.527344 17.007812 118.527344 17.320312 118.527344 17.632812 C 117.277344 17.632812 116.023438 17.632812 114.769531 17.632812 C 114.769531 18.007812 114.769531 18.386719 114.769531 18.761719 C 113.519531 18.761719 112.265625 18.761719 111.011719 18.761719 C 111.011719 18.980469 111.011719 19.199219 111.011719 19.421875 C 110.175781 19.421875 109.34375 19.421875 108.507812 19.421875 C 108.507812 19.640625 108.507812 19.859375 108.507812 20.078125 C 107.464844 20.078125 106.417969 20.078125 105.375 20.078125 C 105.375 20.390625 105.375 20.707031 105.375 21.019531 C 104.4375 21.019531 103.496094 21.019531 102.558594 21.019531 C 102.558594 21.300781 102.558594 21.582031 102.558594 21.863281 C 101.515625 21.863281 100.46875 21.863281 99.425781 21.863281 C 99.425781 22.148438 99.425781 22.429688 99.425781 22.710938 C 66.230469 22.710938 33.039062 22.710938 -0.15625 22.710938 C -0.15625 20.863281 -0.15625 19.011719 -0.15625 17.164062 C 27.085938 17.164062 54.332031 17.164062 81.578125 17.164062 C 81.578125 18.292969 81.578125 19.421875 81.578125 20.546875 C 83.980469 20.5625 86.378906 20.546875 88.777344 20.5 C 89.078125 20.183594 89.183594 19.851562 89.09375 19.515625 C 90.65625 19.515625 92.222656 19.515625 93.789062 19.515625 C 93.789062 19.105469 93.789062 18.699219 93.789062 18.292969 C 94.730469 18.292969 95.667969 18.292969 96.609375 18.292969 C 96.609375 17.914062 96.609375 17.539062 96.609375 17.164062 C 98.070312 17.164062 99.53125 17.164062 100.992188 17.164062 C 100.992188 16.816406 100.992188 16.472656 100.992188 16.128906 C 102.035156 16.128906 103.078125 16.128906 104.125 16.128906 C 104.125 15.28125 104.125 14.4375 104.125 13.589844 C 103.078125 13.589844 102.035156 13.589844 100.992188 13.589844 C 100.992188 13.277344 100.992188 12.960938 100.992188 12.648438 C 99.53125 12.648438 98.070312 12.648438 96.609375 12.648438 C 96.609375 12.273438 96.609375 11.898438 96.609375 11.519531 C 95.667969 11.519531 94.730469 11.519531 93.789062 11.519531 C 93.789062 11.175781 93.789062 10.832031 93.789062 10.484375 C 92.222656 10.484375 90.65625 10.484375 89.09375 10.484375 C 89.09375 10.078125 89.09375 9.671875 89.09375 9.261719 C 86.585938 9.261719 84.082031 9.261719 81.578125 9.261719 C 81.578125 10.390625 81.578125 11.519531 81.578125 12.648438 C 54.332031 12.648438 27.085938 12.648438 -0.15625 12.648438 C -0.15625 10.925781 -0.15625 9.199219 -0.15625 7.476562 Z M -0.15625 7.476562 "/>
<path style=" stroke:none;fill-rule:evenodd;fill:rgb(0%,71.764706%,93.72549%);fill-opacity:1;" d="M 140.136719 8.980469 C 141.804688 8.980469 143.476562 8.980469 145.144531 8.980469 C 145.144531 9.484375 145.144531 9.984375 145.144531 10.484375 C 143.476562 10.484375 141.804688 10.484375 140.136719 10.484375 C 140.136719 9.984375 140.136719 9.484375 140.136719 8.980469 Z M 140.136719 8.980469 "/>
<path style=" stroke:none;fill-rule:evenodd;fill:rgb(60%,85.098039%,91.372549%);fill-opacity:1;" d="M -0.15625 17.164062 C -0.15625 15.660156 -0.15625 14.152344 -0.15625 12.648438 C 27.085938 12.648438 54.332031 12.648438 81.578125 12.648438 C 81.578125 11.519531 81.578125 10.390625 81.578125 9.261719 C 84.082031 9.261719 86.585938 9.261719 89.09375 9.261719 C 89.09375 9.671875 89.09375 10.078125 89.09375 10.484375 C 90.65625 10.484375 92.222656 10.484375 93.789062 10.484375 C 93.789062 10.832031 93.789062 11.175781 93.789062 11.519531 C 94.730469 11.519531 95.667969 11.519531 96.609375 11.519531 C 96.609375 11.898438 96.609375 12.273438 96.609375 12.648438 C 98.070312 12.648438 99.53125 12.648438 100.992188 12.648438 C 100.992188 12.960938 100.992188 13.277344 100.992188 13.589844 C 102.035156 13.589844 103.078125 13.589844 104.125 13.589844 C 104.125 14.4375 104.125 15.28125 104.125 16.128906 C 103.078125 16.128906 102.035156 16.128906 100.992188 16.128906 C 100.992188 16.472656 100.992188 16.816406 100.992188 17.164062 C 99.53125 17.164062 98.070312 17.164062 96.609375 17.164062 C 96.609375 17.539062 96.609375 17.914062 96.609375 18.292969 C 95.667969 18.292969 94.730469 18.292969 93.789062 18.292969 C 93.789062 18.699219 93.789062 19.105469 93.789062 19.515625 C 92.222656 19.515625 90.65625 19.515625 89.09375 19.515625 C 89.183594 19.851562 89.078125 20.183594 88.777344 20.5 C 86.378906 20.546875 83.980469 20.5625 81.578125 20.546875 C 81.578125 19.421875 81.578125 18.292969 81.578125 17.164062 C 54.332031 17.164062 27.085938 17.164062 -0.15625 17.164062 Z M -0.15625 17.164062 "/>
<path style=" stroke:none;fill-rule:evenodd;fill:rgb(18.431373%,20.784314%,60%);fill-opacity:1;" d="M 145.144531 13.496094 C 145.144531 14.5 145.144531 15.5 145.144531 16.503906 C 141.804688 16.503906 138.464844 16.503906 135.125 16.503906 C 135.125 15.5 135.125 14.5 135.125 13.496094 C 138.464844 13.496094 141.804688 13.496094 145.144531 13.496094 Z M 145.144531 13.496094 "/>
<path style=" stroke:none;fill-rule:evenodd;fill:rgb(0%,71.764706%,93.72549%);fill-opacity:1;" d="M 145.144531 19.515625 C 145.144531 20.015625 145.144531 20.515625 145.144531 21.019531 C 143.476562 21.019531 141.804688 21.019531 140.136719 21.019531 C 140.136719 20.515625 140.136719 20.015625 140.136719 19.515625 C 141.804688 19.515625 143.476562 19.515625 145.144531 19.515625 Z M 145.144531 19.515625 "/>
<path style=" stroke:none;fill-rule:evenodd;fill:rgb(42.745098%,47.45098%,53.72549%);fill-opacity:1;" d="M 125.105469 21.019531 C 125.105469 22.023438 125.105469 23.023438 125.105469 24.027344 C 121.765625 24.027344 118.425781 24.027344 115.082031 24.027344 C 115.082031 23.527344 115.082031 23.023438 115.082031 22.523438 C 116.753906 22.523438 118.425781 22.523438 120.09375 22.523438 C 120.09375 22.023438 120.09375 21.519531 120.09375 21.019531 C 121.765625 21.019531 123.433594 21.019531 125.105469 21.019531 Z M 125.105469 21.019531 "/>
<path style=" stroke:none;fill-rule:evenodd;fill:rgb(18.431373%,20.784314%,60%);fill-opacity:1;" d="M 140.136719 22.523438 C 140.136719 24.027344 140.136719 25.53125 140.136719 27.039062 C 138.464844 27.039062 136.796875 27.039062 135.125 27.039062 C 135.125 27.539062 135.125 28.039062 135.125 28.542969 C 133.457031 28.542969 131.785156 28.542969 130.113281 28.542969 C 130.113281 26.035156 130.113281 23.527344 130.113281 21.019531 C 131.785156 21.019531 133.457031 21.019531 135.125 21.019531 C 135.125 21.519531 135.125 22.023438 135.125 22.523438 C 136.796875 22.523438 138.464844 22.523438 140.136719 22.523438 Z M 140.136719 22.523438 "/>
<path style=" stroke:none;fill-rule:evenodd;fill:rgb(60%,85.098039%,91.372549%);fill-opacity:1;" d="M 140.136719 21.019531 C 141.804688 21.019531 143.476562 21.019531 145.144531 21.019531 C 145.144531 23.023438 145.144531 25.03125 145.144531 27.039062 C 143.476562 27.039062 141.804688 27.039062 140.136719 27.039062 C 140.136719 25.53125 140.136719 24.027344 140.136719 22.523438 C 140.136719 22.023438 140.136719 21.519531 140.136719 21.019531 Z M 140.136719 21.019531 "/>
<path style=" stroke:none;fill-rule:evenodd;fill:rgb(60%,85.098039%,91.372549%);fill-opacity:1;" d="M 4.855469 24.027344 C 6.523438 24.027344 8.195312 24.027344 9.863281 24.027344 C 9.863281 25.03125 9.863281 26.035156 9.863281 27.039062 C 8.195312 27.039062 6.523438 27.039062 4.855469 27.039062 C 4.855469 26.035156 4.855469 25.03125 4.855469 24.027344 Z M 4.855469 24.027344 "/>
<path style=" stroke:none;fill-rule:evenodd;fill:rgb(18.431373%,20.784314%,60%);fill-opacity:1;" d="M 9.863281 24.027344 C 13.203125 24.027344 16.542969 24.027344 19.886719 24.027344 C 19.886719 25.53125 19.886719 27.039062 19.886719 28.542969 C 18.214844 28.542969 16.542969 28.542969 14.875 28.542969 C 14.875 28.039062 14.875 27.539062 14.875 27.039062 C 13.203125 27.039062 11.535156 27.039062 9.863281 27.039062 C 9.863281 26.035156 9.863281 25.03125 9.863281 24.027344 Z M 9.863281 24.027344 "/>
<path style=" stroke:none;fill-rule:evenodd;fill:rgb(0%,71.764706%,93.72549%);fill-opacity:1;" d="M 4.855469 27.039062 C 6.523438 27.039062 8.195312 27.039062 9.863281 27.039062 C 9.863281 27.539062 9.863281 28.039062 9.863281 28.542969 C 8.195312 28.542969 6.523438 28.542969 4.855469 28.542969 C 4.855469 28.039062 4.855469 27.539062 4.855469 27.039062 Z M 4.855469 27.039062 "/>
<path style=" stroke:none;fill-rule:evenodd;fill:rgb(12.156863%,13.72549%,38.039216%);fill-opacity:1;" d="M 9.863281 27.039062 C 11.535156 27.039062 13.203125 27.039062 14.875 27.039062 C 14.875 27.539062 14.875 28.039062 14.875 28.542969 C 13.203125 28.542969 11.535156 28.542969 9.863281 28.542969 C 9.863281 28.039062 9.863281 27.539062 9.863281 27.039062 Z M 9.863281 27.039062 "/>
<path style=" stroke:none;fill-rule:evenodd;fill:rgb(18.431373%,20.784314%,60%);fill-opacity:1;" d="M 34.917969 27.039062 C 34.917969 27.539062 34.917969 28.039062 34.917969 28.542969 C 31.574219 28.542969 28.234375 28.542969 24.894531 28.542969 C 24.894531 28.039062 24.894531 27.539062 24.894531 27.039062 C 28.234375 27.039062 31.574219 27.039062 34.917969 27.039062 Z M 34.917969 27.039062 "/>
<path style=" stroke:none;fill-rule:evenodd;fill:rgb(30.196078%,42.745098%,95.294118%);fill-opacity:1;" d="M 34.917969 27.039062 C 38.257812 27.039062 41.597656 27.039062 44.9375 27.039062 C 44.9375 27.539062 44.9375 28.039062 44.9375 28.542969 C 41.597656 28.542969 38.257812 28.542969 34.917969 28.542969 C 34.917969 28.039062 34.917969 27.539062 34.917969 27.039062 Z M 34.917969 27.039062 "/>
<path style=" stroke:none;fill-rule:evenodd;fill:rgb(43.921569%,60.392157%,81.960784%);fill-opacity:1;" d="M 44.9375 27.039062 C 48.277344 27.039062 51.617188 27.039062 54.957031 27.039062 C 54.957031 27.539062 54.957031 28.039062 54.957031 28.542969 C 51.617188 28.542969 48.277344 28.542969 44.9375 28.542969 C 44.9375 28.039062 44.9375 27.539062 44.9375 27.039062 Z M 44.9375 27.039062 "/>
<path style=" stroke:none;fill-rule:evenodd;fill:rgb(54.901961%,65.098039%,77.647059%);fill-opacity:1;" d="M 54.957031 27.039062 C 58.296875 27.039062 61.640625 27.039062 64.980469 27.039062 C 64.980469 27.539062 64.980469 28.039062 64.980469 28.542969 C 61.640625 28.542969 58.296875 28.542969 54.957031 28.542969 C 54.957031 28.039062 54.957031 27.539062 54.957031 27.039062 Z M 54.957031 27.039062 "/>
<path style=" stroke:none;fill-rule:evenodd;fill:rgb(68.627451%,78.431373%,90.588235%);fill-opacity:1;" d="M 64.980469 27.039062 C 71.660156 27.039062 78.339844 27.039062 85.019531 27.039062 C 85.019531 27.539062 85.019531 28.039062 85.019531 28.542969 C 78.339844 28.542969 71.660156 28.542969 64.980469 28.542969 C 64.980469 28.039062 64.980469 27.539062 64.980469 27.039062 Z M 64.980469 27.039062 "/>
<path style=" stroke:none;fill-rule:evenodd;fill:rgb(54.901961%,65.098039%,77.647059%);fill-opacity:1;" d="M 85.019531 27.039062 C 88.359375 27.039062 91.703125 27.039062 95.042969 27.039062 C 95.042969 27.539062 95.042969 28.039062 95.042969 28.542969 C 91.703125 28.542969 88.359375 28.542969 85.019531 28.542969 C 85.019531 28.039062 85.019531 27.539062 85.019531 27.039062 Z M 85.019531 27.039062 "/>
<path style=" stroke:none;fill-rule:evenodd;fill:rgb(43.921569%,60.392157%,81.960784%);fill-opacity:1;" d="M 95.042969 27.039062 C 98.382812 27.039062 101.722656 27.039062 105.0625 27.039062 C 105.0625 27.539062 105.0625 28.039062 105.0625 28.542969 C 101.722656 28.542969 98.382812 28.542969 95.042969 28.542969 C 95.042969 28.039062 95.042969 27.539062 95.042969 27.039062 Z M 95.042969 27.039062 "/>
<path style=" stroke:none;fill-rule:evenodd;fill:rgb(30.196078%,42.745098%,95.294118%);fill-opacity:1;" d="M 105.0625 27.039062 C 108.402344 27.039062 111.742188 27.039062 115.082031 27.039062 C 115.082031 27.539062 115.082031 28.039062 115.082031 28.542969 C 111.742188 28.542969 108.402344 28.542969 105.0625 28.542969 C 105.0625 28.039062 105.0625 27.539062 105.0625 27.039062 Z M 105.0625 27.039062 "/>
<path style=" stroke:none;fill-rule:evenodd;fill:rgb(18.431373%,20.784314%,60%);fill-opacity:1;" d="M 115.082031 27.039062 C 118.425781 27.039062 121.765625 27.039062 125.105469 27.039062 C 125.105469 27.539062 125.105469 28.039062 125.105469 28.542969 C 121.765625 28.542969 118.425781 28.542969 115.082031 28.542969 C 115.082031 28.039062 115.082031 27.539062 115.082031 27.039062 Z M 115.082031 27.039062 "/>
<path style=" stroke:none;fill-rule:evenodd;fill:rgb(12.156863%,13.72549%,38.039216%);fill-opacity:1;" d="M 140.136719 27.039062 C 140.136719 27.539062 140.136719 28.039062 140.136719 28.542969 C 138.464844 28.542969 136.796875 28.542969 135.125 28.542969 C 135.125 28.039062 135.125 27.539062 135.125 27.039062 C 136.796875 27.039062 138.464844 27.039062 140.136719 27.039062 Z M 140.136719 27.039062 "/>
<path style=" stroke:none;fill-rule:evenodd;fill:rgb(0%,71.764706%,93.72549%);fill-opacity:1;" d="M 140.136719 27.039062 C 141.804688 27.039062 143.476562 27.039062 145.144531 27.039062 C 145.144531 27.539062 145.144531 28.039062 145.144531 28.542969 C 143.476562 28.542969 141.804688 28.542969 140.136719 28.542969 C 140.136719 28.039062 140.136719 27.539062 140.136719 27.039062 Z M 140.136719 27.039062 "/>
</g>
</svg>
