<?xml version="1.0" encoding="UTF-8"?>
<svg xmlns="http://www.w3.org/2000/svg" xmlns:xlink="http://www.w3.org/1999/xlink" width="30px" height="150px" viewBox="0 0 30 150" version="1.1">
<g id="surface1">
<path style=" stroke:none;fill-rule:evenodd;fill:rgb(27.058824%,27.45098%,27.058824%);fill-opacity:1;" d="M -0.046875 -0.15625 C 1.929688 -0.15625 3.902344 -0.15625 5.878906 -0.15625 C 5.878906 1.511719 5.878906 3.183594 5.878906 4.855469 C 4.875 4.855469 3.871094 4.855469 2.867188 4.855469 C 2.367188 4.855469 1.863281 4.855469 1.363281 4.855469 C 1.363281 6.523438 1.363281 8.195312 1.363281 9.863281 C 1.363281 11.535156 1.363281 13.203125 1.363281 14.875 C 1.363281 16.542969 1.363281 18.214844 1.363281 19.886719 C 1.363281 21.554688 1.363281 23.226562 1.363281 24.894531 C 1.363281 28.234375 1.363281 31.574219 1.363281 34.917969 C 1.363281 38.257812 1.363281 41.597656 1.363281 44.9375 C 1.363281 48.277344 1.363281 51.617188 1.363281 54.957031 C 1.363281 58.296875 1.363281 61.640625 1.363281 64.980469 C 1.363281 71.660156 1.363281 78.339844 1.363281 85.019531 C 1.363281 88.359375 1.363281 91.703125 1.363281 95.042969 C 1.363281 98.382812 1.363281 101.722656 1.363281 105.0625 C 1.363281 108.402344 1.363281 111.742188 1.363281 115.082031 C 1.363281 118.425781 1.363281 121.765625 1.363281 125.105469 C 1.363281 126.773438 1.363281 128.445312 1.363281 130.113281 C 1.363281 131.785156 1.363281 133.457031 1.363281 135.125 C 1.363281 136.796875 1.363281 138.464844 1.363281 140.136719 C 1.363281 141.804688 1.363281 143.476562 1.363281 145.144531 C 1.863281 145.144531 2.367188 145.144531 2.867188 145.144531 C 4.875 145.144531 6.882812 145.144531 8.886719 145.144531 C 9.390625 145.144531 9.890625 145.144531 10.390625 145.144531 C 11.394531 145.144531 12.398438 145.144531 13.402344 145.144531 C 14.40625 145.144531 15.40625 145.144531 16.410156 145.144531 C 17.414062 145.144531 18.417969 145.144531 19.421875 145.144531 C 19.921875 145.144531 20.421875 145.144531 20.925781 145.144531 C 22.929688 145.144531 24.9375 145.144531 26.945312 145.144531 C 27.445312 145.144531 27.945312 145.144531 28.449219 145.144531 C 28.449219 143.476562 28.449219 141.804688 28.449219 140.136719 C 28.449219 138.464844 28.449219 136.796875 28.449219 135.125 C 28.449219 133.457031 28.449219 131.785156 28.449219 130.113281 C 28.449219 128.445312 28.449219 126.773438 28.449219 125.105469 C 28.449219 121.765625 28.449219 118.425781 28.449219 115.082031 C 28.449219 111.742188 28.449219 108.402344 28.449219 105.0625 C 28.449219 101.722656 28.449219 98.382812 28.449219 95.042969 C 28.449219 91.703125 28.449219 88.359375 28.449219 85.019531 C 28.449219 78.339844 28.449219 71.660156 28.449219 64.980469 C 28.449219 61.640625 28.449219 58.296875 28.449219 54.957031 C 28.449219 51.617188 28.449219 48.277344 28.449219 44.9375 C 28.449219 41.597656 28.449219 38.257812 28.449219 34.917969 C 28.449219 31.574219 28.449219 28.234375 28.449219 24.894531 C 28.449219 23.226562 28.449219 21.554688 28.449219 19.886719 C 28.449219 18.214844 28.449219 16.542969 28.449219 14.875 C 28.449219 13.203125 28.449219 11.535156 28.449219 9.863281 C 28.449219 8.195312 28.449219 6.523438 28.449219 4.855469 C 27.945312 4.855469 27.445312 4.855469 26.945312 4.855469 C 25.941406 4.855469 24.9375 4.855469 23.933594 4.855469 C 23.933594 3.183594 23.933594 1.511719 23.933594 -0.15625 C 25.941406 -0.15625 27.945312 -0.15625 29.953125 -0.15625 C 29.953125 49.84375 29.953125 99.84375 29.953125 149.84375 C 19.953125 149.84375 9.953125 149.84375 -0.046875 149.84375 C -0.046875 99.84375 -0.046875 49.84375 -0.046875 -0.15625 Z M -0.046875 -0.15625 "/>
<path style=" stroke:none;fill-rule:evenodd;fill:rgb(61.960784%,65.882353%,70.588235%);fill-opacity:1;" d="M 5.878906 -0.15625 C 6.316406 -0.15625 6.753906 -0.15625 7.195312 -0.15625 C 7.195312 33.039062 7.195312 66.230469 7.195312 99.425781 C 7.476562 99.425781 7.757812 99.425781 8.039062 99.425781 C 8.039062 100.46875 8.039062 101.515625 8.039062 102.558594 C 8.324219 102.558594 8.605469 102.558594 8.886719 102.558594 C 8.886719 103.496094 8.886719 104.4375 8.886719 105.375 C 9.199219 105.375 9.515625 105.375 9.828125 105.375 C 9.828125 106.417969 9.828125 107.464844 9.828125 108.507812 C 10.046875 108.507812 10.265625 108.507812 10.484375 108.507812 C 10.484375 109.34375 10.484375 110.175781 10.484375 111.011719 C 10.707031 111.011719 10.925781 111.011719 11.144531 111.011719 C 11.144531 112.265625 11.144531 113.519531 11.144531 114.769531 C 11.519531 114.769531 11.898438 114.769531 12.273438 114.769531 C 12.273438 116.023438 12.273438 117.277344 12.273438 118.527344 C 12.585938 118.527344 12.898438 118.527344 13.214844 118.527344 C 13.214844 120.199219 13.214844 121.867188 13.214844 123.539062 C 14.308594 123.539062 15.40625 123.539062 16.503906 123.539062 C 16.503906 121.972656 16.503906 120.40625 16.503906 118.839844 C 16.914062 118.839844 17.320312 118.839844 17.726562 118.839844 C 17.726562 117.484375 17.726562 116.128906 17.726562 114.769531 C 18.101562 114.769531 18.480469 114.769531 18.855469 114.769531 C 18.855469 113.726562 18.855469 112.683594 18.855469 111.640625 C 19.167969 111.640625 19.484375 111.640625 19.796875 111.640625 C 19.796875 110.699219 19.796875 109.761719 19.796875 108.820312 C 20.046875 108.820312 20.296875 108.820312 20.546875 108.820312 C 20.546875 107.671875 20.546875 106.523438 20.546875 105.375 C 20.863281 105.375 21.175781 105.375 21.488281 105.375 C 21.488281 103.914062 21.488281 102.453125 21.488281 100.992188 C 21.800781 100.992188 22.117188 100.992188 22.429688 100.992188 C 22.429688 67.277344 22.429688 33.558594 22.429688 -0.15625 C 22.929688 -0.15625 23.433594 -0.15625 23.933594 -0.15625 C 23.933594 1.511719 23.933594 3.183594 23.933594 4.855469 C 23.933594 6.523438 23.933594 8.195312 23.933594 9.863281 C 23.933594 13.203125 23.933594 16.542969 23.933594 19.886719 C 23.933594 51.617188 23.933594 83.351562 23.933594 115.082031 C 23.433594 115.082031 22.929688 115.082031 22.429688 115.082031 C 22.429688 116.753906 22.429688 118.425781 22.429688 120.09375 C 21.929688 120.09375 21.425781 120.09375 20.925781 120.09375 C 20.925781 121.765625 20.925781 123.433594 20.925781 125.105469 C 20.421875 125.105469 19.921875 125.105469 19.421875 125.105469 C 19.421875 126.773438 19.421875 128.445312 19.421875 130.113281 C 16.410156 130.113281 13.402344 130.113281 10.390625 130.113281 C 10.390625 128.445312 10.390625 126.773438 10.390625 125.105469 C 9.890625 125.105469 9.390625 125.105469 8.886719 125.105469 C 8.886719 123.433594 8.886719 121.765625 8.886719 120.09375 C 8.386719 120.09375 7.882812 120.09375 7.382812 120.09375 C 7.382812 118.425781 7.382812 116.753906 7.382812 115.082031 C 6.882812 115.082031 6.378906 115.082031 5.878906 115.082031 C 5.878906 83.351562 5.878906 51.617188 5.878906 19.886719 C 5.878906 16.542969 5.878906 13.203125 5.878906 9.863281 C 5.878906 8.195312 5.878906 6.523438 5.878906 4.855469 C 5.878906 3.183594 5.878906 1.511719 5.878906 -0.15625 Z M 5.878906 -0.15625 "/>
<path style=" stroke:none;fill-rule:evenodd;fill:rgb(18.431373%,20.784314%,60%);fill-opacity:1;" d="M 7.195312 -0.15625 C 9.042969 -0.15625 10.894531 -0.15625 12.742188 -0.15625 C 12.742188 27.085938 12.742188 54.332031 12.742188 81.578125 C 11.613281 81.578125 10.484375 81.578125 9.355469 81.578125 C 9.339844 83.980469 9.355469 86.378906 9.40625 88.777344 C 9.722656 89.078125 10.050781 89.183594 10.390625 89.09375 C 10.390625 90.65625 10.390625 92.222656 10.390625 93.789062 C 10.800781 93.789062 11.207031 93.789062 11.613281 93.789062 C 11.613281 94.730469 11.613281 95.667969 11.613281 96.609375 C 11.992188 96.609375 12.367188 96.609375 12.742188 96.609375 C 12.742188 98.070312 12.742188 99.53125 12.742188 100.992188 C 13.085938 100.992188 13.433594 100.992188 13.777344 100.992188 C 13.777344 102.035156 13.777344 103.078125 13.777344 104.125 C 14.625 104.125 15.46875 104.125 16.316406 104.125 C 16.316406 103.078125 16.316406 102.035156 16.316406 100.992188 C 16.628906 100.992188 16.945312 100.992188 17.257812 100.992188 C 17.257812 99.53125 17.257812 98.070312 17.257812 96.609375 C 17.632812 96.609375 18.007812 96.609375 18.386719 96.609375 C 18.386719 95.667969 18.386719 94.730469 18.386719 93.789062 C 18.730469 93.789062 19.074219 93.789062 19.421875 93.789062 C 19.421875 92.222656 19.421875 90.65625 19.421875 89.09375 C 19.828125 89.09375 20.234375 89.09375 20.644531 89.09375 C 20.644531 86.585938 20.644531 84.082031 20.644531 81.578125 C 19.515625 81.578125 18.386719 81.578125 17.257812 81.578125 C 17.257812 54.332031 17.257812 27.085938 17.257812 -0.15625 C 18.980469 -0.15625 20.707031 -0.15625 22.429688 -0.15625 C 22.429688 33.558594 22.429688 67.277344 22.429688 100.992188 C 22.117188 100.992188 21.800781 100.992188 21.488281 100.992188 C 21.488281 102.453125 21.488281 103.914062 21.488281 105.375 C 21.175781 105.375 20.863281 105.375 20.546875 105.375 C 20.546875 106.523438 20.546875 107.671875 20.546875 108.820312 C 20.296875 108.820312 20.046875 108.820312 19.796875 108.820312 C 19.796875 109.761719 19.796875 110.699219 19.796875 111.640625 C 19.484375 111.640625 19.167969 111.640625 18.855469 111.640625 C 18.855469 112.683594 18.855469 113.726562 18.855469 114.769531 C 18.480469 114.769531 18.101562 114.769531 17.726562 114.769531 C 17.726562 116.128906 17.726562 117.484375 17.726562 118.839844 C 17.320312 118.839844 16.914062 118.839844 16.503906 118.839844 C 16.503906 120.40625 16.503906 121.972656 16.503906 123.539062 C 15.40625 123.539062 14.308594 123.539062 13.214844 123.539062 C 13.214844 121.867188 13.214844 120.199219 13.214844 118.527344 C 12.898438 118.527344 12.585938 118.527344 12.273438 118.527344 C 12.273438 117.277344 12.273438 116.023438 12.273438 114.769531 C 11.898438 114.769531 11.519531 114.769531 11.144531 114.769531 C 11.144531 113.519531 11.144531 112.265625 11.144531 111.011719 C 10.925781 111.011719 10.707031 111.011719 10.484375 111.011719 C 10.484375 110.175781 10.484375 109.34375 10.484375 108.507812 C 10.265625 108.507812 10.046875 108.507812 9.828125 108.507812 C 9.828125 107.464844 9.828125 106.417969 9.828125 105.375 C 9.515625 105.375 9.199219 105.375 8.886719 105.375 C 8.886719 104.4375 8.886719 103.496094 8.886719 102.558594 C 8.605469 102.558594 8.324219 102.558594 8.039062 102.558594 C 8.039062 101.515625 8.039062 100.46875 8.039062 99.425781 C 7.757812 99.425781 7.476562 99.425781 7.195312 99.425781 C 7.195312 66.230469 7.195312 33.039062 7.195312 -0.15625 Z M 7.195312 -0.15625 "/>
<path style=" stroke:none;fill-rule:evenodd;fill:rgb(60%,85.098039%,91.372549%);fill-opacity:1;" d="M 12.742188 -0.15625 C 14.246094 -0.15625 15.753906 -0.15625 17.257812 -0.15625 C 17.257812 27.085938 17.257812 54.332031 17.257812 81.578125 C 18.386719 81.578125 19.515625 81.578125 20.644531 81.578125 C 20.644531 84.082031 20.644531 86.585938 20.644531 89.09375 C 20.234375 89.09375 19.828125 89.09375 19.421875 89.09375 C 19.421875 90.65625 19.421875 92.222656 19.421875 93.789062 C 19.074219 93.789062 18.730469 93.789062 18.386719 93.789062 C 18.386719 94.730469 18.386719 95.667969 18.386719 96.609375 C 18.007812 96.609375 17.632812 96.609375 17.257812 96.609375 C 17.257812 98.070312 17.257812 99.53125 17.257812 100.992188 C 16.945312 100.992188 16.628906 100.992188 16.316406 100.992188 C 16.316406 102.035156 16.316406 103.078125 16.316406 104.125 C 15.46875 104.125 14.625 104.125 13.777344 104.125 C 13.777344 103.078125 13.777344 102.035156 13.777344 100.992188 C 13.433594 100.992188 13.085938 100.992188 12.742188 100.992188 C 12.742188 99.53125 12.742188 98.070312 12.742188 96.609375 C 12.367188 96.609375 11.992188 96.609375 11.613281 96.609375 C 11.613281 95.667969 11.613281 94.730469 11.613281 93.789062 C 11.207031 93.789062 10.800781 93.789062 10.390625 93.789062 C 10.390625 92.222656 10.390625 90.65625 10.390625 89.09375 C 10.050781 89.183594 9.722656 89.078125 9.40625 88.777344 C 9.355469 86.378906 9.339844 83.980469 9.355469 81.578125 C 10.484375 81.578125 11.613281 81.578125 12.742188 81.578125 C 12.742188 54.332031 12.742188 27.085938 12.742188 -0.15625 Z M 12.742188 -0.15625 "/>
<path style=" stroke:none;fill-rule:evenodd;fill:rgb(0%,71.764706%,93.72549%);fill-opacity:1;" d="M 2.867188 4.855469 C 2.867188 6.523438 2.867188 8.195312 2.867188 9.863281 C 2.367188 9.863281 1.863281 9.863281 1.363281 9.863281 C 1.363281 8.195312 1.363281 6.523438 1.363281 4.855469 C 1.863281 4.855469 2.367188 4.855469 2.867188 4.855469 Z M 2.867188 4.855469 "/>
<path style=" stroke:none;fill-rule:evenodd;fill:rgb(60%,85.098039%,91.372549%);fill-opacity:1;" d="M 2.867188 4.855469 C 3.871094 4.855469 4.875 4.855469 5.878906 4.855469 C 5.878906 6.523438 5.878906 8.195312 5.878906 9.863281 C 4.875 9.863281 3.871094 9.863281 2.867188 9.863281 C 2.867188 8.195312 2.867188 6.523438 2.867188 4.855469 Z M 2.867188 4.855469 "/>
<path style=" stroke:none;fill-rule:evenodd;fill:rgb(60%,85.098039%,91.372549%);fill-opacity:1;" d="M 23.933594 4.855469 C 24.9375 4.855469 25.941406 4.855469 26.945312 4.855469 C 26.945312 6.523438 26.945312 8.195312 26.945312 9.863281 C 25.941406 9.863281 24.9375 9.863281 23.933594 9.863281 C 23.933594 8.195312 23.933594 6.523438 23.933594 4.855469 Z M 23.933594 4.855469 "/>
<path style=" stroke:none;fill-rule:evenodd;fill:rgb(0%,71.764706%,93.72549%);fill-opacity:1;" d="M 26.945312 4.855469 C 27.445312 4.855469 27.945312 4.855469 28.449219 4.855469 C 28.449219 6.523438 28.449219 8.195312 28.449219 9.863281 C 27.945312 9.863281 27.445312 9.863281 26.945312 9.863281 C 26.945312 8.195312 26.945312 6.523438 26.945312 4.855469 Z M 26.945312 4.855469 "/>
<path style=" stroke:none;fill-rule:evenodd;fill:rgb(12.156863%,13.72549%,38.039216%);fill-opacity:1;" d="M 1.363281 9.863281 C 1.863281 9.863281 2.367188 9.863281 2.867188 9.863281 C 2.867188 11.535156 2.867188 13.203125 2.867188 14.875 C 2.367188 14.875 1.863281 14.875 1.363281 14.875 C 1.363281 13.203125 1.363281 11.535156 1.363281 9.863281 Z M 1.363281 9.863281 "/>
<path style=" stroke:none;fill-rule:evenodd;fill:rgb(18.431373%,20.784314%,60%);fill-opacity:1;" d="M 2.867188 9.863281 C 3.871094 9.863281 4.875 9.863281 5.878906 9.863281 C 5.878906 13.203125 5.878906 16.542969 5.878906 19.886719 C 4.371094 19.886719 2.867188 19.886719 1.363281 19.886719 C 1.363281 18.214844 1.363281 16.542969 1.363281 14.875 C 1.863281 14.875 2.367188 14.875 2.867188 14.875 C 2.867188 13.203125 2.867188 11.535156 2.867188 9.863281 Z M 2.867188 9.863281 "/>
<path style=" stroke:none;fill-rule:evenodd;fill:rgb(18.431373%,20.784314%,60%);fill-opacity:1;" d="M 23.933594 9.863281 C 24.9375 9.863281 25.941406 9.863281 26.945312 9.863281 C 26.945312 11.535156 26.945312 13.203125 26.945312 14.875 C 27.445312 14.875 27.945312 14.875 28.449219 14.875 C 28.449219 16.542969 28.449219 18.214844 28.449219 19.886719 C 26.945312 19.886719 25.4375 19.886719 23.933594 19.886719 C 23.933594 16.542969 23.933594 13.203125 23.933594 9.863281 Z M 23.933594 9.863281 "/>
<path style=" stroke:none;fill-rule:evenodd;fill:rgb(12.156863%,13.72549%,38.039216%);fill-opacity:1;" d="M 26.945312 9.863281 C 27.445312 9.863281 27.945312 9.863281 28.449219 9.863281 C 28.449219 11.535156 28.449219 13.203125 28.449219 14.875 C 27.945312 14.875 27.445312 14.875 26.945312 14.875 C 26.945312 13.203125 26.945312 11.535156 26.945312 9.863281 Z M 26.945312 9.863281 "/>
<path style=" stroke:none;fill-rule:evenodd;fill:rgb(12.156863%,13.72549%,38.039216%);fill-opacity:1;" d="M 1.363281 19.886719 C 2.867188 19.886719 4.371094 19.886719 5.878906 19.886719 C 5.878906 51.617188 5.878906 83.351562 5.878906 115.082031 C 5.878906 118.425781 5.878906 121.765625 5.878906 125.105469 C 6.882812 125.105469 7.882812 125.105469 8.886719 125.105469 C 9.390625 125.105469 9.890625 125.105469 10.390625 125.105469 C 10.390625 126.773438 10.390625 128.445312 10.390625 130.113281 C 13.402344 130.113281 16.410156 130.113281 19.421875 130.113281 C 19.421875 128.445312 19.421875 126.773438 19.421875 125.105469 C 19.921875 125.105469 20.421875 125.105469 20.925781 125.105469 C 21.929688 125.105469 22.929688 125.105469 23.933594 125.105469 C 23.933594 121.765625 23.933594 118.425781 23.933594 115.082031 C 23.933594 83.351562 23.933594 51.617188 23.933594 19.886719 C 25.4375 19.886719 26.945312 19.886719 28.449219 19.886719 C 28.449219 21.554688 28.449219 23.226562 28.449219 24.894531 C 27.945312 24.894531 27.445312 24.894531 26.945312 24.894531 C 26.945312 28.234375 26.945312 31.574219 26.945312 34.917969 C 26.945312 38.257812 26.945312 41.597656 26.945312 44.9375 C 26.945312 48.277344 26.945312 51.617188 26.945312 54.957031 C 26.945312 58.296875 26.945312 61.640625 26.945312 64.980469 C 26.945312 71.660156 26.945312 78.339844 26.945312 85.019531 C 26.945312 88.359375 26.945312 91.703125 26.945312 95.042969 C 26.945312 98.382812 26.945312 101.722656 26.945312 105.0625 C 26.945312 108.402344 26.945312 111.742188 26.945312 115.082031 C 26.945312 118.425781 26.945312 121.765625 26.945312 125.105469 C 27.445312 125.105469 27.945312 125.105469 28.449219 125.105469 C 28.449219 126.773438 28.449219 128.445312 28.449219 130.113281 C 25.941406 130.113281 23.433594 130.113281 20.925781 130.113281 C 20.925781 131.785156 20.925781 133.457031 20.925781 135.125 C 21.425781 135.125 21.929688 135.125 22.429688 135.125 C 22.429688 136.796875 22.429688 138.464844 22.429688 140.136719 C 21.929688 140.136719 21.425781 140.136719 20.925781 140.136719 C 20.421875 140.136719 19.921875 140.136719 19.421875 140.136719 C 19.421875 141.804688 19.421875 143.476562 19.421875 145.144531 C 18.417969 145.144531 17.414062 145.144531 16.410156 145.144531 C 16.410156 141.804688 16.410156 138.464844 16.410156 135.125 C 15.40625 135.125 14.40625 135.125 13.402344 135.125 C 13.402344 138.464844 13.402344 141.804688 13.402344 145.144531 C 12.398438 145.144531 11.394531 145.144531 10.390625 145.144531 C 10.390625 143.476562 10.390625 141.804688 10.390625 140.136719 C 9.890625 140.136719 9.390625 140.136719 8.886719 140.136719 C 8.386719 140.136719 7.882812 140.136719 7.382812 140.136719 C 7.382812 138.464844 7.382812 136.796875 7.382812 135.125 C 7.882812 135.125 8.386719 135.125 8.886719 135.125 C 8.886719 133.457031 8.886719 131.785156 8.886719 130.113281 C 6.378906 130.113281 3.871094 130.113281 1.363281 130.113281 C 1.363281 128.445312 1.363281 126.773438 1.363281 125.105469 C 1.863281 125.105469 2.367188 125.105469 2.867188 125.105469 C 2.867188 121.765625 2.867188 118.425781 2.867188 115.082031 C 2.867188 111.742188 2.867188 108.402344 2.867188 105.0625 C 2.867188 101.722656 2.867188 98.382812 2.867188 95.042969 C 2.867188 91.703125 2.867188 88.359375 2.867188 85.019531 C 2.867188 78.339844 2.867188 71.660156 2.867188 64.980469 C 2.867188 61.640625 2.867188 58.296875 2.867188 54.957031 C 2.867188 51.617188 2.867188 48.277344 2.867188 44.9375 C 2.867188 41.597656 2.867188 38.257812 2.867188 34.917969 C 2.867188 31.574219 2.867188 28.234375 2.867188 24.894531 C 2.367188 24.894531 1.863281 24.894531 1.363281 24.894531 C 1.363281 23.226562 1.363281 21.554688 1.363281 19.886719 Z M 1.363281 19.886719 "/>
<path style=" stroke:none;fill-rule:evenodd;fill:rgb(18.431373%,20.784314%,60%);fill-opacity:1;" d="M 1.363281 24.894531 C 1.863281 24.894531 2.367188 24.894531 2.867188 24.894531 C 2.867188 28.234375 2.867188 31.574219 2.867188 34.917969 C 2.367188 34.917969 1.863281 34.917969 1.363281 34.917969 C 1.363281 31.574219 1.363281 28.234375 1.363281 24.894531 Z M 1.363281 24.894531 "/>
<path style=" stroke:none;fill-rule:evenodd;fill:rgb(18.431373%,20.784314%,60%);fill-opacity:1;" d="M 28.449219 24.894531 C 28.449219 28.234375 28.449219 31.574219 28.449219 34.917969 C 27.945312 34.917969 27.445312 34.917969 26.945312 34.917969 C 26.945312 31.574219 26.945312 28.234375 26.945312 24.894531 C 27.445312 24.894531 27.945312 24.894531 28.449219 24.894531 Z M 28.449219 24.894531 "/>
<path style=" stroke:none;fill-rule:evenodd;fill:rgb(30.196078%,42.745098%,95.294118%);fill-opacity:1;" d="M 1.363281 34.917969 C 1.863281 34.917969 2.367188 34.917969 2.867188 34.917969 C 2.867188 38.257812 2.867188 41.597656 2.867188 44.9375 C 2.367188 44.9375 1.863281 44.9375 1.363281 44.9375 C 1.363281 41.597656 1.363281 38.257812 1.363281 34.917969 Z M 1.363281 34.917969 "/>
<path style=" stroke:none;fill-rule:evenodd;fill:rgb(30.196078%,42.745098%,95.294118%);fill-opacity:1;" d="M 26.945312 34.917969 C 27.445312 34.917969 27.945312 34.917969 28.449219 34.917969 C 28.449219 38.257812 28.449219 41.597656 28.449219 44.9375 C 27.945312 44.9375 27.445312 44.9375 26.945312 44.9375 C 26.945312 41.597656 26.945312 38.257812 26.945312 34.917969 Z M 26.945312 34.917969 "/>
<path style=" stroke:none;fill-rule:evenodd;fill:rgb(43.921569%,60.392157%,81.960784%);fill-opacity:1;" d="M 1.363281 44.9375 C 1.863281 44.9375 2.367188 44.9375 2.867188 44.9375 C 2.867188 48.277344 2.867188 51.617188 2.867188 54.957031 C 2.367188 54.957031 1.863281 54.957031 1.363281 54.957031 C 1.363281 51.617188 1.363281 48.277344 1.363281 44.9375 Z M 1.363281 44.9375 "/>
<path style=" stroke:none;fill-rule:evenodd;fill:rgb(43.921569%,60.392157%,81.960784%);fill-opacity:1;" d="M 26.945312 44.9375 C 27.445312 44.9375 27.945312 44.9375 28.449219 44.9375 C 28.449219 48.277344 28.449219 51.617188 28.449219 54.957031 C 27.945312 54.957031 27.445312 54.957031 26.945312 54.957031 C 26.945312 51.617188 26.945312 48.277344 26.945312 44.9375 Z M 26.945312 44.9375 "/>
<path style=" stroke:none;fill-rule:evenodd;fill:rgb(54.901961%,65.098039%,77.647059%);fill-opacity:1;" d="M 1.363281 54.957031 C 1.863281 54.957031 2.367188 54.957031 2.867188 54.957031 C 2.867188 58.296875 2.867188 61.640625 2.867188 64.980469 C 2.367188 64.980469 1.863281 64.980469 1.363281 64.980469 C 1.363281 61.640625 1.363281 58.296875 1.363281 54.957031 Z M 1.363281 54.957031 "/>
<path style=" stroke:none;fill-rule:evenodd;fill:rgb(54.901961%,65.098039%,77.647059%);fill-opacity:1;" d="M 26.945312 54.957031 C 27.445312 54.957031 27.945312 54.957031 28.449219 54.957031 C 28.449219 58.296875 28.449219 61.640625 28.449219 64.980469 C 27.945312 64.980469 27.445312 64.980469 26.945312 64.980469 C 26.945312 61.640625 26.945312 58.296875 26.945312 54.957031 Z M 26.945312 54.957031 "/>
<path style=" stroke:none;fill-rule:evenodd;fill:rgb(68.627451%,78.431373%,90.588235%);fill-opacity:1;" d="M 1.363281 64.980469 C 1.863281 64.980469 2.367188 64.980469 2.867188 64.980469 C 2.867188 71.660156 2.867188 78.339844 2.867188 85.019531 C 2.367188 85.019531 1.863281 85.019531 1.363281 85.019531 C 1.363281 78.339844 1.363281 71.660156 1.363281 64.980469 Z M 1.363281 64.980469 "/>
<path style=" stroke:none;fill-rule:evenodd;fill:rgb(68.627451%,78.431373%,90.588235%);fill-opacity:1;" d="M 26.945312 64.980469 C 27.445312 64.980469 27.945312 64.980469 28.449219 64.980469 C 28.449219 71.660156 28.449219 78.339844 28.449219 85.019531 C 27.945312 85.019531 27.445312 85.019531 26.945312 85.019531 C 26.945312 78.339844 26.945312 71.660156 26.945312 64.980469 Z M 26.945312 64.980469 "/>
<path style=" stroke:none;fill-rule:evenodd;fill:rgb(54.901961%,65.098039%,77.647059%);fill-opacity:1;" d="M 1.363281 85.019531 C 1.863281 85.019531 2.367188 85.019531 2.867188 85.019531 C 2.867188 88.359375 2.867188 91.703125 2.867188 95.042969 C 2.367188 95.042969 1.863281 95.042969 1.363281 95.042969 C 1.363281 91.703125 1.363281 88.359375 1.363281 85.019531 Z M 1.363281 85.019531 "/>
<path style=" stroke:none;fill-rule:evenodd;fill:rgb(54.901961%,65.098039%,77.647059%);fill-opacity:1;" d="M 26.945312 85.019531 C 27.445312 85.019531 27.945312 85.019531 28.449219 85.019531 C 28.449219 88.359375 28.449219 91.703125 28.449219 95.042969 C 27.945312 95.042969 27.445312 95.042969 26.945312 95.042969 C 26.945312 91.703125 26.945312 88.359375 26.945312 85.019531 Z M 26.945312 85.019531 "/>
<path style=" stroke:none;fill-rule:evenodd;fill:rgb(43.921569%,60.392157%,81.960784%);fill-opacity:1;" d="M 1.363281 95.042969 C 1.863281 95.042969 2.367188 95.042969 2.867188 95.042969 C 2.867188 98.382812 2.867188 101.722656 2.867188 105.0625 C 2.367188 105.0625 1.863281 105.0625 1.363281 105.0625 C 1.363281 101.722656 1.363281 98.382812 1.363281 95.042969 Z M 1.363281 95.042969 "/>
<path style=" stroke:none;fill-rule:evenodd;fill:rgb(43.921569%,60.392157%,81.960784%);fill-opacity:1;" d="M 26.945312 95.042969 C 27.445312 95.042969 27.945312 95.042969 28.449219 95.042969 C 28.449219 98.382812 28.449219 101.722656 28.449219 105.0625 C 27.945312 105.0625 27.445312 105.0625 26.945312 105.0625 C 26.945312 101.722656 26.945312 98.382812 26.945312 95.042969 Z M 26.945312 95.042969 "/>
<path style=" stroke:none;fill-rule:evenodd;fill:rgb(30.196078%,42.745098%,95.294118%);fill-opacity:1;" d="M 1.363281 105.0625 C 1.863281 105.0625 2.367188 105.0625 2.867188 105.0625 C 2.867188 108.402344 2.867188 111.742188 2.867188 115.082031 C 2.367188 115.082031 1.863281 115.082031 1.363281 115.082031 C 1.363281 111.742188 1.363281 108.402344 1.363281 105.0625 Z M 1.363281 105.0625 "/>
<path style=" stroke:none;fill-rule:evenodd;fill:rgb(30.196078%,42.745098%,95.294118%);fill-opacity:1;" d="M 26.945312 105.0625 C 27.445312 105.0625 27.945312 105.0625 28.449219 105.0625 C 28.449219 108.402344 28.449219 111.742188 28.449219 115.082031 C 27.945312 115.082031 27.445312 115.082031 26.945312 115.082031 C 26.945312 111.742188 26.945312 108.402344 26.945312 105.0625 Z M 26.945312 105.0625 "/>
<path style=" stroke:none;fill-rule:evenodd;fill:rgb(18.431373%,20.784314%,60%);fill-opacity:1;" d="M 1.363281 115.082031 C 1.863281 115.082031 2.367188 115.082031 2.867188 115.082031 C 2.867188 118.425781 2.867188 121.765625 2.867188 125.105469 C 2.367188 125.105469 1.863281 125.105469 1.363281 125.105469 C 1.363281 121.765625 1.363281 118.425781 1.363281 115.082031 Z M 1.363281 115.082031 "/>
<path style=" stroke:none;fill-rule:evenodd;fill:rgb(42.745098%,47.45098%,53.72549%);fill-opacity:1;" d="M 5.878906 115.082031 C 6.378906 115.082031 6.882812 115.082031 7.382812 115.082031 C 7.382812 116.753906 7.382812 118.425781 7.382812 120.09375 C 7.882812 120.09375 8.386719 120.09375 8.886719 120.09375 C 8.886719 121.765625 8.886719 123.433594 8.886719 125.105469 C 7.882812 125.105469 6.882812 125.105469 5.878906 125.105469 C 5.878906 121.765625 5.878906 118.425781 5.878906 115.082031 Z M 5.878906 115.082031 "/>
<path style=" stroke:none;fill-rule:evenodd;fill:rgb(42.745098%,47.45098%,53.72549%);fill-opacity:1;" d="M 23.933594 115.082031 C 23.933594 118.425781 23.933594 121.765625 23.933594 125.105469 C 22.929688 125.105469 21.929688 125.105469 20.925781 125.105469 C 20.925781 123.433594 20.925781 121.765625 20.925781 120.09375 C 21.425781 120.09375 21.929688 120.09375 22.429688 120.09375 C 22.429688 118.425781 22.429688 116.753906 22.429688 115.082031 C 22.929688 115.082031 23.433594 115.082031 23.933594 115.082031 Z M 23.933594 115.082031 "/>
<path style=" stroke:none;fill-rule:evenodd;fill:rgb(18.431373%,20.784314%,60%);fill-opacity:1;" d="M 26.945312 115.082031 C 27.445312 115.082031 27.945312 115.082031 28.449219 115.082031 C 28.449219 118.425781 28.449219 121.765625 28.449219 125.105469 C 27.945312 125.105469 27.445312 125.105469 26.945312 125.105469 C 26.945312 121.765625 26.945312 118.425781 26.945312 115.082031 Z M 26.945312 115.082031 "/>
<path style=" stroke:none;fill-rule:evenodd;fill:rgb(18.431373%,20.784314%,60%);fill-opacity:1;" d="M 1.363281 130.113281 C 3.871094 130.113281 6.378906 130.113281 8.886719 130.113281 C 8.886719 131.785156 8.886719 133.457031 8.886719 135.125 C 8.386719 135.125 7.882812 135.125 7.382812 135.125 C 7.382812 136.796875 7.382812 138.464844 7.382812 140.136719 C 5.878906 140.136719 4.371094 140.136719 2.867188 140.136719 C 2.867188 138.464844 2.867188 136.796875 2.867188 135.125 C 2.367188 135.125 1.863281 135.125 1.363281 135.125 C 1.363281 133.457031 1.363281 131.785156 1.363281 130.113281 Z M 1.363281 130.113281 "/>
<path style=" stroke:none;fill-rule:evenodd;fill:rgb(18.431373%,20.784314%,60%);fill-opacity:1;" d="M 28.449219 130.113281 C 28.449219 131.785156 28.449219 133.457031 28.449219 135.125 C 27.945312 135.125 27.445312 135.125 26.945312 135.125 C 26.945312 136.796875 26.945312 138.464844 26.945312 140.136719 C 25.4375 140.136719 23.933594 140.136719 22.429688 140.136719 C 22.429688 138.464844 22.429688 136.796875 22.429688 135.125 C 21.929688 135.125 21.425781 135.125 20.925781 135.125 C 20.925781 133.457031 20.925781 131.785156 20.925781 130.113281 C 23.433594 130.113281 25.941406 130.113281 28.449219 130.113281 Z M 28.449219 130.113281 "/>
<path style=" stroke:none;fill-rule:evenodd;fill:rgb(12.156863%,13.72549%,38.039216%);fill-opacity:1;" d="M 1.363281 135.125 C 1.863281 135.125 2.367188 135.125 2.867188 135.125 C 2.867188 136.796875 2.867188 138.464844 2.867188 140.136719 C 2.367188 140.136719 1.863281 140.136719 1.363281 140.136719 C 1.363281 138.464844 1.363281 136.796875 1.363281 135.125 Z M 1.363281 135.125 "/>
<path style=" stroke:none;fill-rule:evenodd;fill:rgb(18.431373%,20.784314%,60%);fill-opacity:1;" d="M 16.410156 145.144531 C 15.40625 145.144531 14.40625 145.144531 13.402344 145.144531 C 13.402344 141.804688 13.402344 138.464844 13.402344 135.125 C 14.40625 135.125 15.40625 135.125 16.410156 135.125 C 16.410156 138.464844 16.410156 141.804688 16.410156 145.144531 Z M 16.410156 145.144531 "/>
<path style=" stroke:none;fill-rule:evenodd;fill:rgb(12.156863%,13.72549%,38.039216%);fill-opacity:1;" d="M 28.449219 135.125 C 28.449219 136.796875 28.449219 138.464844 28.449219 140.136719 C 27.945312 140.136719 27.445312 140.136719 26.945312 140.136719 C 26.945312 138.464844 26.945312 136.796875 26.945312 135.125 C 27.445312 135.125 27.945312 135.125 28.449219 135.125 Z M 28.449219 135.125 "/>
<path style=" stroke:none;fill-rule:evenodd;fill:rgb(0%,71.764706%,93.72549%);fill-opacity:1;" d="M 1.363281 140.136719 C 1.863281 140.136719 2.367188 140.136719 2.867188 140.136719 C 2.867188 141.804688 2.867188 143.476562 2.867188 145.144531 C 2.367188 145.144531 1.863281 145.144531 1.363281 145.144531 C 1.363281 143.476562 1.363281 141.804688 1.363281 140.136719 Z M 1.363281 140.136719 "/>
<path style=" stroke:none;fill-rule:evenodd;fill:rgb(60%,85.098039%,91.372549%);fill-opacity:1;" d="M 2.867188 140.136719 C 4.371094 140.136719 5.878906 140.136719 7.382812 140.136719 C 7.882812 140.136719 8.386719 140.136719 8.886719 140.136719 C 8.886719 141.804688 8.886719 143.476562 8.886719 145.144531 C 6.882812 145.144531 4.875 145.144531 2.867188 145.144531 C 2.867188 143.476562 2.867188 141.804688 2.867188 140.136719 Z M 2.867188 140.136719 "/>
<path style=" stroke:none;fill-rule:evenodd;fill:rgb(0%,71.764706%,93.72549%);fill-opacity:1;" d="M 8.886719 140.136719 C 9.390625 140.136719 9.890625 140.136719 10.390625 140.136719 C 10.390625 141.804688 10.390625 143.476562 10.390625 145.144531 C 9.890625 145.144531 9.390625 145.144531 8.886719 145.144531 C 8.886719 143.476562 8.886719 141.804688 8.886719 140.136719 Z M 8.886719 140.136719 "/>
<path style=" stroke:none;fill-rule:evenodd;fill:rgb(0%,71.764706%,93.72549%);fill-opacity:1;" d="M 20.925781 140.136719 C 20.925781 141.804688 20.925781 143.476562 20.925781 145.144531 C 20.421875 145.144531 19.921875 145.144531 19.421875 145.144531 C 19.421875 143.476562 19.421875 141.804688 19.421875 140.136719 C 19.921875 140.136719 20.421875 140.136719 20.925781 140.136719 Z M 20.925781 140.136719 "/>
<path style=" stroke:none;fill-rule:evenodd;fill:rgb(60%,85.098039%,91.372549%);fill-opacity:1;" d="M 20.925781 140.136719 C 21.425781 140.136719 21.929688 140.136719 22.429688 140.136719 C 23.933594 140.136719 25.4375 140.136719 26.945312 140.136719 C 26.945312 141.804688 26.945312 143.476562 26.945312 145.144531 C 24.9375 145.144531 22.929688 145.144531 20.925781 145.144531 C 20.925781 143.476562 20.925781 141.804688 20.925781 140.136719 Z M 20.925781 140.136719 "/>
<path style=" stroke:none;fill-rule:evenodd;fill:rgb(0%,71.764706%,93.72549%);fill-opacity:1;" d="M 26.945312 140.136719 C 27.445312 140.136719 27.945312 140.136719 28.449219 140.136719 C 28.449219 141.804688 28.449219 143.476562 28.449219 145.144531 C 27.945312 145.144531 27.445312 145.144531 26.945312 145.144531 C 26.945312 143.476562 26.945312 141.804688 26.945312 140.136719 Z M 26.945312 140.136719 "/>
</g>
</svg>
