<?xml version="1.0" encoding="UTF-8"?>
<svg xmlns="http://www.w3.org/2000/svg" xmlns:xlink="http://www.w3.org/1999/xlink" width="30px" height="150px" viewBox="0 0 30 150" version="1.1">
<g id="surface1">
<path style=" stroke:none;fill-rule:evenodd;fill:rgb(27.058824%,27.45098%,27.058824%);fill-opacity:1;" d="M -0.046875 -0.15625 C 1.960938 -0.15625 3.964844 -0.15625 5.972656 -0.15625 C 5.972656 1.410156 5.972656 2.976562 5.972656 4.539062 C 4.96875 4.539062 3.964844 4.539062 2.960938 4.539062 C 2.460938 4.539062 1.960938 4.539062 1.457031 4.539062 C 1.457031 6.210938 1.457031 7.882812 1.457031 9.550781 C 1.457031 11.222656 1.457031 12.890625 1.457031 14.5625 C 1.457031 16.230469 1.457031 17.902344 1.457031 19.570312 C 1.457031 21.242188 1.457031 22.914062 1.457031 24.582031 C 1.457031 27.921875 1.457031 31.261719 1.457031 34.601562 C 1.457031 37.945312 1.457031 41.285156 1.457031 44.625 C 1.457031 47.964844 1.457031 51.304688 1.457031 54.644531 C 1.457031 57.984375 1.457031 61.324219 1.457031 64.664062 C 1.457031 71.347656 1.457031 78.027344 1.457031 84.707031 C 1.457031 88.046875 1.457031 91.386719 1.457031 94.730469 C 1.457031 98.070312 1.457031 101.410156 1.457031 104.75 C 1.457031 108.089844 1.457031 111.429688 1.457031 114.769531 C 1.457031 118.109375 1.457031 121.449219 1.457031 124.792969 C 1.457031 126.460938 1.457031 128.132812 1.457031 129.800781 C 1.457031 131.472656 1.457031 133.140625 1.457031 134.8125 C 1.457031 136.480469 1.457031 138.152344 1.457031 139.824219 C 1.457031 141.492188 1.457031 143.164062 1.457031 144.832031 C 1.960938 144.832031 2.460938 144.832031 2.960938 144.832031 C 3.964844 144.832031 4.96875 144.832031 5.972656 144.832031 C 5.972656 146.503906 5.972656 148.171875 5.972656 149.84375 C 3.964844 149.84375 1.960938 149.84375 -0.046875 149.84375 C -0.046875 99.84375 -0.046875 49.84375 -0.046875 -0.15625 Z M -0.046875 -0.15625 "/>
<path style=" stroke:none;fill-rule:evenodd;fill:rgb(61.960784%,65.882353%,70.588235%);fill-opacity:1;" d="M 5.972656 -0.15625 C 6.472656 -0.15625 6.976562 -0.15625 7.476562 -0.15625 C 7.476562 49.84375 7.476562 99.84375 7.476562 149.84375 C 6.976562 149.84375 6.472656 149.84375 5.972656 149.84375 C 5.972656 148.171875 5.972656 146.503906 5.972656 144.832031 C 5.972656 143.164062 5.972656 141.492188 5.972656 139.824219 C 5.972656 136.480469 5.972656 133.140625 5.972656 129.800781 C 5.972656 93.058594 5.972656 56.316406 5.972656 19.570312 C 5.972656 16.230469 5.972656 12.890625 5.972656 9.550781 C 5.972656 7.882812 5.972656 6.210938 5.972656 4.539062 C 5.972656 2.976562 5.972656 1.410156 5.972656 -0.15625 Z M 5.972656 -0.15625 "/>
<path style=" stroke:none;fill-rule:evenodd;fill:rgb(18.431373%,20.784314%,60%);fill-opacity:1;" d="M 7.476562 -0.15625 C 9.199219 -0.15625 10.925781 -0.15625 12.648438 -0.15625 C 12.648438 49.84375 12.648438 99.84375 12.648438 149.84375 C 10.925781 149.84375 9.199219 149.84375 7.476562 149.84375 C 7.476562 99.84375 7.476562 49.84375 7.476562 -0.15625 Z M 7.476562 -0.15625 "/>
<path style=" stroke:none;fill-rule:evenodd;fill:rgb(60%,85.098039%,91.372549%);fill-opacity:1;" d="M 12.648438 -0.15625 C 14.152344 -0.15625 15.660156 -0.15625 17.164062 -0.15625 C 17.164062 49.84375 17.164062 99.84375 17.164062 149.84375 C 15.660156 149.84375 14.152344 149.84375 12.648438 149.84375 C 12.648438 99.84375 12.648438 49.84375 12.648438 -0.15625 Z M 12.648438 -0.15625 "/>
<path style=" stroke:none;fill-rule:evenodd;fill:rgb(18.431373%,20.784314%,60%);fill-opacity:1;" d="M 17.164062 -0.15625 C 19.011719 -0.15625 20.863281 -0.15625 22.710938 -0.15625 C 22.710938 49.84375 22.710938 99.84375 22.710938 149.84375 C 20.863281 149.84375 19.011719 149.84375 17.164062 149.84375 C 17.164062 99.84375 17.164062 49.84375 17.164062 -0.15625 Z M 17.164062 -0.15625 "/>
<path style=" stroke:none;fill-rule:evenodd;fill:rgb(61.960784%,65.882353%,70.588235%);fill-opacity:1;" d="M 22.710938 -0.15625 C 23.152344 -0.15625 23.589844 -0.15625 24.027344 -0.15625 C 24.027344 1.410156 24.027344 2.976562 24.027344 4.539062 C 24.027344 6.210938 24.027344 7.882812 24.027344 9.550781 C 24.027344 12.890625 24.027344 16.230469 24.027344 19.570312 C 24.027344 56.316406 24.027344 93.058594 24.027344 129.800781 C 24.027344 133.140625 24.027344 136.480469 24.027344 139.824219 C 24.027344 141.492188 24.027344 143.164062 24.027344 144.832031 C 24.027344 146.503906 24.027344 148.171875 24.027344 149.84375 C 23.589844 149.84375 23.152344 149.84375 22.710938 149.84375 C 22.710938 99.84375 22.710938 49.84375 22.710938 -0.15625 Z M 22.710938 -0.15625 "/>
<path style=" stroke:none;fill-rule:evenodd;fill:rgb(27.058824%,27.45098%,27.058824%);fill-opacity:1;" d="M 24.027344 -0.15625 C 26.003906 -0.15625 27.976562 -0.15625 29.953125 -0.15625 C 29.953125 49.84375 29.953125 99.84375 29.953125 149.84375 C 27.976562 149.84375 26.003906 149.84375 24.027344 149.84375 C 24.027344 148.171875 24.027344 146.503906 24.027344 144.832031 C 25.03125 144.832031 26.035156 144.832031 27.039062 144.832031 C 27.539062 144.832031 28.039062 144.832031 28.542969 144.832031 C 28.542969 143.164062 28.542969 141.492188 28.542969 139.824219 C 28.542969 138.152344 28.542969 136.480469 28.542969 134.8125 C 28.542969 133.140625 28.542969 131.472656 28.542969 129.800781 C 28.542969 128.132812 28.542969 126.460938 28.542969 124.792969 C 28.542969 121.449219 28.542969 118.109375 28.542969 114.769531 C 28.542969 111.429688 28.542969 108.089844 28.542969 104.75 C 28.542969 101.410156 28.542969 98.070312 28.542969 94.730469 C 28.542969 91.386719 28.542969 88.046875 28.542969 84.707031 C 28.542969 78.027344 28.542969 71.347656 28.542969 64.664062 C 28.542969 61.324219 28.542969 57.984375 28.542969 54.644531 C 28.542969 51.304688 28.542969 47.964844 28.542969 44.625 C 28.542969 41.285156 28.542969 37.945312 28.542969 34.601562 C 28.542969 31.261719 28.542969 27.921875 28.542969 24.582031 C 28.542969 22.914062 28.542969 21.242188 28.542969 19.570312 C 28.542969 17.902344 28.542969 16.230469 28.542969 14.5625 C 28.542969 12.890625 28.542969 11.222656 28.542969 9.550781 C 28.542969 7.882812 28.542969 6.210938 28.542969 4.539062 C 28.039062 4.539062 27.539062 4.539062 27.039062 4.539062 C 26.035156 4.539062 25.03125 4.539062 24.027344 4.539062 C 24.027344 2.976562 24.027344 1.410156 24.027344 -0.15625 Z M 24.027344 -0.15625 "/>
<path style=" stroke:none;fill-rule:evenodd;fill:rgb(0%,71.764706%,93.72549%);fill-opacity:1;" d="M 2.960938 4.539062 C 2.960938 6.210938 2.960938 7.882812 2.960938 9.550781 C 2.460938 9.550781 1.960938 9.550781 1.457031 9.550781 C 1.457031 7.882812 1.457031 6.210938 1.457031 4.539062 C 1.960938 4.539062 2.460938 4.539062 2.960938 4.539062 Z M 2.960938 4.539062 "/>
<path style=" stroke:none;fill-rule:evenodd;fill:rgb(60%,85.098039%,91.372549%);fill-opacity:1;" d="M 2.960938 4.539062 C 3.964844 4.539062 4.96875 4.539062 5.972656 4.539062 C 5.972656 6.210938 5.972656 7.882812 5.972656 9.550781 C 4.96875 9.550781 3.964844 9.550781 2.960938 9.550781 C 2.960938 7.882812 2.960938 6.210938 2.960938 4.539062 Z M 2.960938 4.539062 "/>
<path style=" stroke:none;fill-rule:evenodd;fill:rgb(60%,85.098039%,91.372549%);fill-opacity:1;" d="M 24.027344 4.539062 C 25.03125 4.539062 26.035156 4.539062 27.039062 4.539062 C 27.039062 6.210938 27.039062 7.882812 27.039062 9.550781 C 26.035156 9.550781 25.03125 9.550781 24.027344 9.550781 C 24.027344 7.882812 24.027344 6.210938 24.027344 4.539062 Z M 24.027344 4.539062 "/>
<path style=" stroke:none;fill-rule:evenodd;fill:rgb(0%,71.764706%,93.72549%);fill-opacity:1;" d="M 27.039062 4.539062 C 27.539062 4.539062 28.039062 4.539062 28.542969 4.539062 C 28.542969 6.210938 28.542969 7.882812 28.542969 9.550781 C 28.039062 9.550781 27.539062 9.550781 27.039062 9.550781 C 27.039062 7.882812 27.039062 6.210938 27.039062 4.539062 Z M 27.039062 4.539062 "/>
<path style=" stroke:none;fill-rule:evenodd;fill:rgb(12.156863%,13.72549%,38.039216%);fill-opacity:1;" d="M 1.457031 9.550781 C 1.960938 9.550781 2.460938 9.550781 2.960938 9.550781 C 2.960938 11.222656 2.960938 12.890625 2.960938 14.5625 C 2.460938 14.5625 1.960938 14.5625 1.457031 14.5625 C 1.457031 12.890625 1.457031 11.222656 1.457031 9.550781 Z M 1.457031 9.550781 "/>
<path style=" stroke:none;fill-rule:evenodd;fill:rgb(18.431373%,20.784314%,60%);fill-opacity:1;" d="M 2.960938 9.550781 C 3.964844 9.550781 4.96875 9.550781 5.972656 9.550781 C 5.972656 12.890625 5.972656 16.230469 5.972656 19.570312 C 4.46875 19.570312 2.960938 19.570312 1.457031 19.570312 C 1.457031 17.902344 1.457031 16.230469 1.457031 14.5625 C 1.960938 14.5625 2.460938 14.5625 2.960938 14.5625 C 2.960938 12.890625 2.960938 11.222656 2.960938 9.550781 Z M 2.960938 9.550781 "/>
<path style=" stroke:none;fill-rule:evenodd;fill:rgb(18.431373%,20.784314%,60%);fill-opacity:1;" d="M 24.027344 9.550781 C 25.03125 9.550781 26.035156 9.550781 27.039062 9.550781 C 27.039062 11.222656 27.039062 12.890625 27.039062 14.5625 C 27.539062 14.5625 28.039062 14.5625 28.542969 14.5625 C 28.542969 16.230469 28.542969 17.902344 28.542969 19.570312 C 27.039062 19.570312 25.53125 19.570312 24.027344 19.570312 C 24.027344 16.230469 24.027344 12.890625 24.027344 9.550781 Z M 24.027344 9.550781 "/>
<path style=" stroke:none;fill-rule:evenodd;fill:rgb(12.156863%,13.72549%,38.039216%);fill-opacity:1;" d="M 27.039062 9.550781 C 27.539062 9.550781 28.039062 9.550781 28.542969 9.550781 C 28.542969 11.222656 28.542969 12.890625 28.542969 14.5625 C 28.039062 14.5625 27.539062 14.5625 27.039062 14.5625 C 27.039062 12.890625 27.039062 11.222656 27.039062 9.550781 Z M 27.039062 9.550781 "/>
<path style=" stroke:none;fill-rule:evenodd;fill:rgb(12.156863%,13.72549%,38.039216%);fill-opacity:1;" d="M 1.457031 19.570312 C 2.960938 19.570312 4.46875 19.570312 5.972656 19.570312 C 5.972656 56.316406 5.972656 93.058594 5.972656 129.800781 C 4.46875 129.800781 2.960938 129.800781 1.457031 129.800781 C 1.457031 128.132812 1.457031 126.460938 1.457031 124.792969 C 1.960938 124.792969 2.460938 124.792969 2.960938 124.792969 C 2.960938 121.449219 2.960938 118.109375 2.960938 114.769531 C 2.960938 111.429688 2.960938 108.089844 2.960938 104.75 C 2.960938 101.410156 2.960938 98.070312 2.960938 94.730469 C 2.960938 91.386719 2.960938 88.046875 2.960938 84.707031 C 2.960938 78.027344 2.960938 71.347656 2.960938 64.664062 C 2.960938 61.324219 2.960938 57.984375 2.960938 54.644531 C 2.960938 51.304688 2.960938 47.964844 2.960938 44.625 C 2.960938 41.285156 2.960938 37.945312 2.960938 34.601562 C 2.960938 31.261719 2.960938 27.921875 2.960938 24.582031 C 2.460938 24.582031 1.960938 24.582031 1.457031 24.582031 C 1.457031 22.914062 1.457031 21.242188 1.457031 19.570312 Z M 1.457031 19.570312 "/>
<path style=" stroke:none;fill-rule:evenodd;fill:rgb(12.156863%,13.72549%,38.039216%);fill-opacity:1;" d="M 24.027344 19.570312 C 25.53125 19.570312 27.039062 19.570312 28.542969 19.570312 C 28.542969 21.242188 28.542969 22.914062 28.542969 24.582031 C 28.039062 24.582031 27.539062 24.582031 27.039062 24.582031 C 27.039062 27.921875 27.039062 31.261719 27.039062 34.601562 C 27.039062 37.945312 27.039062 41.285156 27.039062 44.625 C 27.039062 47.964844 27.039062 51.304688 27.039062 54.644531 C 27.039062 57.984375 27.039062 61.324219 27.039062 64.664062 C 27.039062 71.347656 27.039062 78.027344 27.039062 84.707031 C 27.039062 88.046875 27.039062 91.386719 27.039062 94.730469 C 27.039062 98.070312 27.039062 101.410156 27.039062 104.75 C 27.039062 108.089844 27.039062 111.429688 27.039062 114.769531 C 27.039062 118.109375 27.039062 121.449219 27.039062 124.792969 C 27.539062 124.792969 28.039062 124.792969 28.542969 124.792969 C 28.542969 126.460938 28.542969 128.132812 28.542969 129.800781 C 27.039062 129.800781 25.53125 129.800781 24.027344 129.800781 C 24.027344 93.058594 24.027344 56.316406 24.027344 19.570312 Z M 24.027344 19.570312 "/>
<path style=" stroke:none;fill-rule:evenodd;fill:rgb(18.431373%,20.784314%,60%);fill-opacity:1;" d="M 1.457031 24.582031 C 1.960938 24.582031 2.460938 24.582031 2.960938 24.582031 C 2.960938 27.921875 2.960938 31.261719 2.960938 34.601562 C 2.460938 34.601562 1.960938 34.601562 1.457031 34.601562 C 1.457031 31.261719 1.457031 27.921875 1.457031 24.582031 Z M 1.457031 24.582031 "/>
<path style=" stroke:none;fill-rule:evenodd;fill:rgb(18.431373%,20.784314%,60%);fill-opacity:1;" d="M 28.542969 24.582031 C 28.542969 27.921875 28.542969 31.261719 28.542969 34.601562 C 28.039062 34.601562 27.539062 34.601562 27.039062 34.601562 C 27.039062 31.261719 27.039062 27.921875 27.039062 24.582031 C 27.539062 24.582031 28.039062 24.582031 28.542969 24.582031 Z M 28.542969 24.582031 "/>
<path style=" stroke:none;fill-rule:evenodd;fill:rgb(30.196078%,42.745098%,95.294118%);fill-opacity:1;" d="M 1.457031 34.601562 C 1.960938 34.601562 2.460938 34.601562 2.960938 34.601562 C 2.960938 37.945312 2.960938 41.285156 2.960938 44.625 C 2.460938 44.625 1.960938 44.625 1.457031 44.625 C 1.457031 41.285156 1.457031 37.945312 1.457031 34.601562 Z M 1.457031 34.601562 "/>
<path style=" stroke:none;fill-rule:evenodd;fill:rgb(30.196078%,42.745098%,95.294118%);fill-opacity:1;" d="M 27.039062 34.601562 C 27.539062 34.601562 28.039062 34.601562 28.542969 34.601562 C 28.542969 37.945312 28.542969 41.285156 28.542969 44.625 C 28.039062 44.625 27.539062 44.625 27.039062 44.625 C 27.039062 41.285156 27.039062 37.945312 27.039062 34.601562 Z M 27.039062 34.601562 "/>
<path style=" stroke:none;fill-rule:evenodd;fill:rgb(43.921569%,60.392157%,81.960784%);fill-opacity:1;" d="M 1.457031 44.625 C 1.960938 44.625 2.460938 44.625 2.960938 44.625 C 2.960938 47.964844 2.960938 51.304688 2.960938 54.644531 C 2.460938 54.644531 1.960938 54.644531 1.457031 54.644531 C 1.457031 51.304688 1.457031 47.964844 1.457031 44.625 Z M 1.457031 44.625 "/>
<path style=" stroke:none;fill-rule:evenodd;fill:rgb(43.921569%,60.392157%,81.960784%);fill-opacity:1;" d="M 27.039062 44.625 C 27.539062 44.625 28.039062 44.625 28.542969 44.625 C 28.542969 47.964844 28.542969 51.304688 28.542969 54.644531 C 28.039062 54.644531 27.539062 54.644531 27.039062 54.644531 C 27.039062 51.304688 27.039062 47.964844 27.039062 44.625 Z M 27.039062 44.625 "/>
<path style=" stroke:none;fill-rule:evenodd;fill:rgb(54.901961%,65.098039%,77.647059%);fill-opacity:1;" d="M 1.457031 54.644531 C 1.960938 54.644531 2.460938 54.644531 2.960938 54.644531 C 2.960938 57.984375 2.960938 61.324219 2.960938 64.664062 C 2.460938 64.664062 1.960938 64.664062 1.457031 64.664062 C 1.457031 61.324219 1.457031 57.984375 1.457031 54.644531 Z M 1.457031 54.644531 "/>
<path style=" stroke:none;fill-rule:evenodd;fill:rgb(54.901961%,65.098039%,77.647059%);fill-opacity:1;" d="M 27.039062 54.644531 C 27.539062 54.644531 28.039062 54.644531 28.542969 54.644531 C 28.542969 57.984375 28.542969 61.324219 28.542969 64.664062 C 28.039062 64.664062 27.539062 64.664062 27.039062 64.664062 C 27.039062 61.324219 27.039062 57.984375 27.039062 54.644531 Z M 27.039062 54.644531 "/>
<path style=" stroke:none;fill-rule:evenodd;fill:rgb(68.627451%,78.431373%,90.588235%);fill-opacity:1;" d="M 1.457031 64.664062 C 1.960938 64.664062 2.460938 64.664062 2.960938 64.664062 C 2.960938 71.347656 2.960938 78.027344 2.960938 84.707031 C 2.460938 84.707031 1.960938 84.707031 1.457031 84.707031 C 1.457031 78.027344 1.457031 71.347656 1.457031 64.664062 Z M 1.457031 64.664062 "/>
<path style=" stroke:none;fill-rule:evenodd;fill:rgb(68.627451%,78.431373%,90.588235%);fill-opacity:1;" d="M 27.039062 64.664062 C 27.539062 64.664062 28.039062 64.664062 28.542969 64.664062 C 28.542969 71.347656 28.542969 78.027344 28.542969 84.707031 C 28.039062 84.707031 27.539062 84.707031 27.039062 84.707031 C 27.039062 78.027344 27.039062 71.347656 27.039062 64.664062 Z M 27.039062 64.664062 "/>
<path style=" stroke:none;fill-rule:evenodd;fill:rgb(54.901961%,65.098039%,77.647059%);fill-opacity:1;" d="M 1.457031 84.707031 C 1.960938 84.707031 2.460938 84.707031 2.960938 84.707031 C 2.960938 88.046875 2.960938 91.386719 2.960938 94.730469 C 2.460938 94.730469 1.960938 94.730469 1.457031 94.730469 C 1.457031 91.386719 1.457031 88.046875 1.457031 84.707031 Z M 1.457031 84.707031 "/>
<path style=" stroke:none;fill-rule:evenodd;fill:rgb(54.901961%,65.098039%,77.647059%);fill-opacity:1;" d="M 27.039062 84.707031 C 27.539062 84.707031 28.039062 84.707031 28.542969 84.707031 C 28.542969 88.046875 28.542969 91.386719 28.542969 94.730469 C 28.039062 94.730469 27.539062 94.730469 27.039062 94.730469 C 27.039062 91.386719 27.039062 88.046875 27.039062 84.707031 Z M 27.039062 84.707031 "/>
<path style=" stroke:none;fill-rule:evenodd;fill:rgb(43.921569%,60.392157%,81.960784%);fill-opacity:1;" d="M 1.457031 94.730469 C 1.960938 94.730469 2.460938 94.730469 2.960938 94.730469 C 2.960938 98.070312 2.960938 101.410156 2.960938 104.75 C 2.460938 104.75 1.960938 104.75 1.457031 104.75 C 1.457031 101.410156 1.457031 98.070312 1.457031 94.730469 Z M 1.457031 94.730469 "/>
<path style=" stroke:none;fill-rule:evenodd;fill:rgb(43.921569%,60.392157%,81.960784%);fill-opacity:1;" d="M 27.039062 94.730469 C 27.539062 94.730469 28.039062 94.730469 28.542969 94.730469 C 28.542969 98.070312 28.542969 101.410156 28.542969 104.75 C 28.039062 104.75 27.539062 104.75 27.039062 104.75 C 27.039062 101.410156 27.039062 98.070312 27.039062 94.730469 Z M 27.039062 94.730469 "/>
<path style=" stroke:none;fill-rule:evenodd;fill:rgb(30.196078%,42.745098%,95.294118%);fill-opacity:1;" d="M 1.457031 104.75 C 1.960938 104.75 2.460938 104.75 2.960938 104.75 C 2.960938 108.089844 2.960938 111.429688 2.960938 114.769531 C 2.460938 114.769531 1.960938 114.769531 1.457031 114.769531 C 1.457031 111.429688 1.457031 108.089844 1.457031 104.75 Z M 1.457031 104.75 "/>
<path style=" stroke:none;fill-rule:evenodd;fill:rgb(30.196078%,42.745098%,95.294118%);fill-opacity:1;" d="M 27.039062 104.75 C 27.539062 104.75 28.039062 104.75 28.542969 104.75 C 28.542969 108.089844 28.542969 111.429688 28.542969 114.769531 C 28.039062 114.769531 27.539062 114.769531 27.039062 114.769531 C 27.039062 111.429688 27.039062 108.089844 27.039062 104.75 Z M 27.039062 104.75 "/>
<path style=" stroke:none;fill-rule:evenodd;fill:rgb(18.431373%,20.784314%,60%);fill-opacity:1;" d="M 1.457031 114.769531 C 1.960938 114.769531 2.460938 114.769531 2.960938 114.769531 C 2.960938 118.109375 2.960938 121.449219 2.960938 124.792969 C 2.460938 124.792969 1.960938 124.792969 1.457031 124.792969 C 1.457031 121.449219 1.457031 118.109375 1.457031 114.769531 Z M 1.457031 114.769531 "/>
<path style=" stroke:none;fill-rule:evenodd;fill:rgb(18.431373%,20.784314%,60%);fill-opacity:1;" d="M 27.039062 114.769531 C 27.539062 114.769531 28.039062 114.769531 28.542969 114.769531 C 28.542969 118.109375 28.542969 121.449219 28.542969 124.792969 C 28.039062 124.792969 27.539062 124.792969 27.039062 124.792969 C 27.039062 121.449219 27.039062 118.109375 27.039062 114.769531 Z M 27.039062 114.769531 "/>
<path style=" stroke:none;fill-rule:evenodd;fill:rgb(18.431373%,20.784314%,60%);fill-opacity:1;" d="M 1.457031 129.800781 C 2.960938 129.800781 4.46875 129.800781 5.972656 129.800781 C 5.972656 133.140625 5.972656 136.480469 5.972656 139.824219 C 4.96875 139.824219 3.964844 139.824219 2.960938 139.824219 C 2.960938 138.152344 2.960938 136.480469 2.960938 134.8125 C 2.460938 134.8125 1.960938 134.8125 1.457031 134.8125 C 1.457031 133.140625 1.457031 131.472656 1.457031 129.800781 Z M 1.457031 129.800781 "/>
<path style=" stroke:none;fill-rule:evenodd;fill:rgb(18.431373%,20.784314%,60%);fill-opacity:1;" d="M 24.027344 129.800781 C 25.53125 129.800781 27.039062 129.800781 28.542969 129.800781 C 28.542969 131.472656 28.542969 133.140625 28.542969 134.8125 C 28.039062 134.8125 27.539062 134.8125 27.039062 134.8125 C 27.039062 136.480469 27.039062 138.152344 27.039062 139.824219 C 26.035156 139.824219 25.03125 139.824219 24.027344 139.824219 C 24.027344 136.480469 24.027344 133.140625 24.027344 129.800781 Z M 24.027344 129.800781 "/>
<path style=" stroke:none;fill-rule:evenodd;fill:rgb(12.156863%,13.72549%,38.039216%);fill-opacity:1;" d="M 1.457031 134.8125 C 1.960938 134.8125 2.460938 134.8125 2.960938 134.8125 C 2.960938 136.480469 2.960938 138.152344 2.960938 139.824219 C 2.460938 139.824219 1.960938 139.824219 1.457031 139.824219 C 1.457031 138.152344 1.457031 136.480469 1.457031 134.8125 Z M 1.457031 134.8125 "/>
<path style=" stroke:none;fill-rule:evenodd;fill:rgb(12.156863%,13.72549%,38.039216%);fill-opacity:1;" d="M 28.542969 134.8125 C 28.542969 136.480469 28.542969 138.152344 28.542969 139.824219 C 28.039062 139.824219 27.539062 139.824219 27.039062 139.824219 C 27.039062 138.152344 27.039062 136.480469 27.039062 134.8125 C 27.539062 134.8125 28.039062 134.8125 28.542969 134.8125 Z M 28.542969 134.8125 "/>
<path style=" stroke:none;fill-rule:evenodd;fill:rgb(0%,71.764706%,93.72549%);fill-opacity:1;" d="M 1.457031 139.824219 C 1.960938 139.824219 2.460938 139.824219 2.960938 139.824219 C 2.960938 141.492188 2.960938 143.164062 2.960938 144.832031 C 2.460938 144.832031 1.960938 144.832031 1.457031 144.832031 C 1.457031 143.164062 1.457031 141.492188 1.457031 139.824219 Z M 1.457031 139.824219 "/>
<path style=" stroke:none;fill-rule:evenodd;fill:rgb(60%,85.098039%,91.372549%);fill-opacity:1;" d="M 2.960938 139.824219 C 3.964844 139.824219 4.96875 139.824219 5.972656 139.824219 C 5.972656 141.492188 5.972656 143.164062 5.972656 144.832031 C 4.96875 144.832031 3.964844 144.832031 2.960938 144.832031 C 2.960938 143.164062 2.960938 141.492188 2.960938 139.824219 Z M 2.960938 139.824219 "/>
<path style=" stroke:none;fill-rule:evenodd;fill:rgb(60%,85.098039%,91.372549%);fill-opacity:1;" d="M 24.027344 139.824219 C 25.03125 139.824219 26.035156 139.824219 27.039062 139.824219 C 27.039062 141.492188 27.039062 143.164062 27.039062 144.832031 C 26.035156 144.832031 25.03125 144.832031 24.027344 144.832031 C 24.027344 143.164062 24.027344 141.492188 24.027344 139.824219 Z M 24.027344 139.824219 "/>
<path style=" stroke:none;fill-rule:evenodd;fill:rgb(0%,71.764706%,93.72549%);fill-opacity:1;" d="M 27.039062 139.824219 C 27.539062 139.824219 28.039062 139.824219 28.542969 139.824219 C 28.542969 141.492188 28.542969 143.164062 28.542969 144.832031 C 28.039062 144.832031 27.539062 144.832031 27.039062 144.832031 C 27.039062 143.164062 27.039062 141.492188 27.039062 139.824219 Z M 27.039062 139.824219 "/>
</g>
</svg>
