<?xml version="1.0" encoding="UTF-8"?>
<svg xmlns="http://www.w3.org/2000/svg" xmlns:xlink="http://www.w3.org/1999/xlink" width="30px" height="150px" viewBox="0 0 30 150" version="1.1">
<g id="surface1">
<path style=" stroke:none;fill-rule:evenodd;fill:rgb(27.058824%,27.45098%,27.058824%);fill-opacity:1;" d="M -0.046875 -0.15625 C 9.953125 -0.15625 19.953125 -0.15625 29.953125 -0.15625 C 29.953125 49.84375 29.953125 99.84375 29.953125 149.84375 C 19.953125 149.84375 9.953125 149.84375 -0.046875 149.84375 C -0.046875 99.84375 -0.046875 49.84375 -0.046875 -0.15625 Z M -0.046875 -0.15625 "/>
<path style=" stroke:none;fill-rule:evenodd;fill:rgb(0%,71.764706%,93.72549%);fill-opacity:1;" d="M 2.960938 4.539062 C 2.960938 6.210938 2.960938 7.882812 2.960938 9.550781 C 2.460938 9.550781 1.960938 9.550781 1.457031 9.550781 C 1.457031 7.882812 1.457031 6.210938 1.457031 4.539062 C 1.960938 4.539062 2.460938 4.539062 2.960938 4.539062 Z M 2.960938 4.539062 "/>
<path style=" stroke:none;fill-rule:evenodd;fill:rgb(60%,85.098039%,91.372549%);fill-opacity:1;" d="M 2.960938 4.539062 C 4.96875 4.539062 6.976562 4.539062 8.980469 4.539062 C 8.980469 6.210938 8.980469 7.882812 8.980469 9.550781 C 8.480469 9.550781 7.976562 9.550781 7.476562 9.550781 C 5.972656 9.550781 4.46875 9.550781 2.960938 9.550781 C 2.960938 7.882812 2.960938 6.210938 2.960938 4.539062 Z M 2.960938 4.539062 "/>
<path style=" stroke:none;fill-rule:evenodd;fill:rgb(0%,71.764706%,93.72549%);fill-opacity:1;" d="M 8.980469 4.539062 C 9.484375 4.539062 9.984375 4.539062 10.484375 4.539062 C 10.484375 6.210938 10.484375 7.882812 10.484375 9.550781 C 9.984375 9.550781 9.484375 9.550781 8.980469 9.550781 C 8.980469 7.882812 8.980469 6.210938 8.980469 4.539062 Z M 8.980469 4.539062 "/>
<path style=" stroke:none;fill-rule:evenodd;fill:rgb(12.156863%,13.72549%,38.039216%);fill-opacity:1;" d="M 10.484375 4.539062 C 11.488281 4.539062 12.492188 4.539062 13.496094 4.539062 C 13.496094 7.882812 13.496094 11.222656 13.496094 14.5625 C 14.5 14.5625 15.5 14.5625 16.503906 14.5625 C 16.503906 11.222656 16.503906 7.882812 16.503906 4.539062 C 17.507812 4.539062 18.511719 4.539062 19.515625 4.539062 C 19.515625 6.210938 19.515625 7.882812 19.515625 9.550781 C 20.015625 9.550781 20.515625 9.550781 21.019531 9.550781 C 21.519531 9.550781 22.023438 9.550781 22.523438 9.550781 C 22.523438 11.222656 22.523438 12.890625 22.523438 14.5625 C 22.023438 14.5625 21.519531 14.5625 21.019531 14.5625 C 21.019531 16.230469 21.019531 17.902344 21.019531 19.570312 C 23.527344 19.570312 26.035156 19.570312 28.542969 19.570312 C 28.542969 21.242188 28.542969 22.914062 28.542969 24.582031 C 28.039062 24.582031 27.539062 24.582031 27.039062 24.582031 C 27.039062 27.921875 27.039062 31.261719 27.039062 34.601562 C 27.039062 37.945312 27.039062 41.285156 27.039062 44.625 C 27.039062 47.964844 27.039062 51.304688 27.039062 54.644531 C 27.039062 57.984375 27.039062 61.324219 27.039062 64.664062 C 27.039062 71.347656 27.039062 78.027344 27.039062 84.707031 C 27.039062 88.046875 27.039062 91.386719 27.039062 94.730469 C 27.039062 98.070312 27.039062 101.410156 27.039062 104.75 C 27.039062 108.089844 27.039062 111.429688 27.039062 114.769531 C 27.039062 118.109375 27.039062 121.449219 27.039062 124.792969 C 27.539062 124.792969 28.039062 124.792969 28.542969 124.792969 C 28.542969 126.460938 28.542969 128.132812 28.542969 129.800781 C 26.035156 129.800781 23.527344 129.800781 21.019531 129.800781 C 21.019531 131.472656 21.019531 133.140625 21.019531 134.8125 C 21.519531 134.8125 22.023438 134.8125 22.523438 134.8125 C 22.523438 136.480469 22.523438 138.152344 22.523438 139.824219 C 22.023438 139.824219 21.519531 139.824219 21.019531 139.824219 C 20.515625 139.824219 20.015625 139.824219 19.515625 139.824219 C 19.515625 141.492188 19.515625 143.164062 19.515625 144.832031 C 18.511719 144.832031 17.507812 144.832031 16.503906 144.832031 C 16.503906 141.492188 16.503906 138.152344 16.503906 134.8125 C 15.5 134.8125 14.5 134.8125 13.496094 134.8125 C 13.496094 138.152344 13.496094 141.492188 13.496094 144.832031 C 12.492188 144.832031 11.488281 144.832031 10.484375 144.832031 C 10.484375 143.164062 10.484375 141.492188 10.484375 139.824219 C 9.984375 139.824219 9.484375 139.824219 8.980469 139.824219 C 8.480469 139.824219 7.976562 139.824219 7.476562 139.824219 C 7.476562 138.152344 7.476562 136.480469 7.476562 134.8125 C 7.976562 134.8125 8.480469 134.8125 8.980469 134.8125 C 8.980469 133.140625 8.980469 131.472656 8.980469 129.800781 C 6.472656 129.800781 3.964844 129.800781 1.457031 129.800781 C 1.457031 128.132812 1.457031 126.460938 1.457031 124.792969 C 1.960938 124.792969 2.460938 124.792969 2.960938 124.792969 C 2.960938 121.449219 2.960938 118.109375 2.960938 114.769531 C 2.960938 111.429688 2.960938 108.089844 2.960938 104.75 C 2.960938 101.410156 2.960938 98.070312 2.960938 94.730469 C 2.960938 91.386719 2.960938 88.046875 2.960938 84.707031 C 2.960938 78.027344 2.960938 71.347656 2.960938 64.664062 C 2.960938 61.324219 2.960938 57.984375 2.960938 54.644531 C 2.960938 51.304688 2.960938 47.964844 2.960938 44.625 C 2.960938 41.285156 2.960938 37.945312 2.960938 34.601562 C 2.960938 31.261719 2.960938 27.921875 2.960938 24.582031 C 2.460938 24.582031 1.960938 24.582031 1.457031 24.582031 C 1.457031 22.914062 1.457031 21.242188 1.457031 19.570312 C 3.964844 19.570312 6.472656 19.570312 8.980469 19.570312 C 8.980469 17.902344 8.980469 16.230469 8.980469 14.5625 C 8.480469 14.5625 7.976562 14.5625 7.476562 14.5625 C 7.476562 12.890625 7.476562 11.222656 7.476562 9.550781 C 7.976562 9.550781 8.480469 9.550781 8.980469 9.550781 C 9.484375 9.550781 9.984375 9.550781 10.484375 9.550781 C 10.484375 7.882812 10.484375 6.210938 10.484375 4.539062 Z M 10.484375 4.539062 "/>
<path style=" stroke:none;fill-rule:evenodd;fill:rgb(18.431373%,20.784314%,60%);fill-opacity:1;" d="M 13.496094 4.539062 C 14.5 4.539062 15.5 4.539062 16.503906 4.539062 C 16.503906 7.882812 16.503906 11.222656 16.503906 14.5625 C 15.5 14.5625 14.5 14.5625 13.496094 14.5625 C 13.496094 11.222656 13.496094 7.882812 13.496094 4.539062 Z M 13.496094 4.539062 "/>
<path style=" stroke:none;fill-rule:evenodd;fill:rgb(0%,71.764706%,93.72549%);fill-opacity:1;" d="M 19.515625 4.539062 C 20.015625 4.539062 20.515625 4.539062 21.019531 4.539062 C 21.019531 6.210938 21.019531 7.882812 21.019531 9.550781 C 20.515625 9.550781 20.015625 9.550781 19.515625 9.550781 C 19.515625 7.882812 19.515625 6.210938 19.515625 4.539062 Z M 19.515625 4.539062 "/>
<path style=" stroke:none;fill-rule:evenodd;fill:rgb(60%,85.098039%,91.372549%);fill-opacity:1;" d="M 21.019531 4.539062 C 23.023438 4.539062 25.03125 4.539062 27.039062 4.539062 C 27.039062 6.210938 27.039062 7.882812 27.039062 9.550781 C 25.53125 9.550781 24.027344 9.550781 22.523438 9.550781 C 22.023438 9.550781 21.519531 9.550781 21.019531 9.550781 C 21.019531 7.882812 21.019531 6.210938 21.019531 4.539062 Z M 21.019531 4.539062 "/>
<path style=" stroke:none;fill-rule:evenodd;fill:rgb(0%,71.764706%,93.72549%);fill-opacity:1;" d="M 27.039062 4.539062 C 27.539062 4.539062 28.039062 4.539062 28.542969 4.539062 C 28.542969 6.210938 28.542969 7.882812 28.542969 9.550781 C 28.039062 9.550781 27.539062 9.550781 27.039062 9.550781 C 27.039062 7.882812 27.039062 6.210938 27.039062 4.539062 Z M 27.039062 4.539062 "/>
<path style=" stroke:none;fill-rule:evenodd;fill:rgb(12.156863%,13.72549%,38.039216%);fill-opacity:1;" d="M 1.457031 9.550781 C 1.960938 9.550781 2.460938 9.550781 2.960938 9.550781 C 2.960938 11.222656 2.960938 12.890625 2.960938 14.5625 C 2.460938 14.5625 1.960938 14.5625 1.457031 14.5625 C 1.457031 12.890625 1.457031 11.222656 1.457031 9.550781 Z M 1.457031 9.550781 "/>
<path style=" stroke:none;fill-rule:evenodd;fill:rgb(18.431373%,20.784314%,60%);fill-opacity:1;" d="M 2.960938 9.550781 C 4.46875 9.550781 5.972656 9.550781 7.476562 9.550781 C 7.476562 11.222656 7.476562 12.890625 7.476562 14.5625 C 7.976562 14.5625 8.480469 14.5625 8.980469 14.5625 C 8.980469 16.230469 8.980469 17.902344 8.980469 19.570312 C 6.472656 19.570312 3.964844 19.570312 1.457031 19.570312 C 1.457031 17.902344 1.457031 16.230469 1.457031 14.5625 C 1.960938 14.5625 2.460938 14.5625 2.960938 14.5625 C 2.960938 12.890625 2.960938 11.222656 2.960938 9.550781 Z M 2.960938 9.550781 "/>
<path style=" stroke:none;fill-rule:evenodd;fill:rgb(18.431373%,20.784314%,60%);fill-opacity:1;" d="M 22.523438 9.550781 C 24.027344 9.550781 25.53125 9.550781 27.039062 9.550781 C 27.039062 11.222656 27.039062 12.890625 27.039062 14.5625 C 27.539062 14.5625 28.039062 14.5625 28.542969 14.5625 C 28.542969 16.230469 28.542969 17.902344 28.542969 19.570312 C 26.035156 19.570312 23.527344 19.570312 21.019531 19.570312 C 21.019531 17.902344 21.019531 16.230469 21.019531 14.5625 C 21.519531 14.5625 22.023438 14.5625 22.523438 14.5625 C 22.523438 12.890625 22.523438 11.222656 22.523438 9.550781 Z M 22.523438 9.550781 "/>
<path style=" stroke:none;fill-rule:evenodd;fill:rgb(12.156863%,13.72549%,38.039216%);fill-opacity:1;" d="M 27.039062 9.550781 C 27.539062 9.550781 28.039062 9.550781 28.542969 9.550781 C 28.542969 11.222656 28.542969 12.890625 28.542969 14.5625 C 28.039062 14.5625 27.539062 14.5625 27.039062 14.5625 C 27.039062 12.890625 27.039062 11.222656 27.039062 9.550781 Z M 27.039062 9.550781 "/>
<path style=" stroke:none;fill-rule:evenodd;fill:rgb(61.960784%,65.882353%,70.588235%);fill-opacity:1;" d="M 21.019531 24.582031 C 21.019531 26.253906 21.019531 27.921875 21.019531 29.59375 C 21.519531 29.59375 22.023438 29.59375 22.523438 29.59375 C 22.523438 31.261719 22.523438 32.933594 22.523438 34.601562 C 23.023438 34.601562 23.527344 34.601562 24.027344 34.601562 C 24.027344 42.953125 24.027344 51.304688 24.027344 59.65625 C 23.023438 59.65625 22.023438 59.65625 21.019531 59.65625 C 21.019531 57.984375 21.019531 56.316406 21.019531 54.644531 C 21.519531 54.644531 22.023438 54.644531 22.523438 54.644531 C 22.523438 49.632812 22.523438 44.625 22.523438 39.613281 C 22.023438 39.613281 21.519531 39.613281 21.019531 39.613281 C 21.019531 37.945312 21.019531 36.273438 21.019531 34.601562 C 20.515625 34.601562 20.015625 34.601562 19.515625 34.601562 C 19.515625 32.933594 19.515625 31.261719 19.515625 29.59375 C 19.011719 29.59375 18.511719 29.59375 18.007812 29.59375 C 18.007812 27.921875 18.007812 26.253906 18.007812 24.582031 C 16.003906 24.582031 13.996094 24.582031 11.992188 24.582031 C 11.992188 26.253906 11.992188 27.921875 11.992188 29.59375 C 11.488281 29.59375 10.988281 29.59375 10.484375 29.59375 C 10.484375 31.261719 10.484375 32.933594 10.484375 34.601562 C 9.984375 34.601562 9.484375 34.601562 8.980469 34.601562 C 8.980469 36.273438 8.980469 37.945312 8.980469 39.613281 C 8.480469 39.613281 7.976562 39.613281 7.476562 39.613281 C 7.476562 44.625 7.476562 49.632812 7.476562 54.644531 C 7.976562 54.644531 8.480469 54.644531 8.980469 54.644531 C 8.980469 56.316406 8.980469 57.984375 8.980469 59.65625 C 7.976562 59.65625 6.976562 59.65625 5.972656 59.65625 C 5.972656 51.304688 5.972656 42.953125 5.972656 34.601562 C 6.472656 34.601562 6.976562 34.601562 7.476562 34.601562 C 7.476562 32.933594 7.476562 31.261719 7.476562 29.59375 C 7.976562 29.59375 8.480469 29.59375 8.980469 29.59375 C 8.980469 27.921875 8.980469 26.253906 8.980469 24.582031 C 9.484375 24.582031 9.984375 24.582031 10.484375 24.582031 C 10.484375 22.914062 10.484375 21.242188 10.484375 19.570312 C 13.496094 19.570312 16.503906 19.570312 19.515625 19.570312 C 19.515625 21.242188 19.515625 22.914062 19.515625 24.582031 C 20.015625 24.582031 20.515625 24.582031 21.019531 24.582031 Z M 21.019531 24.582031 "/>
<path style=" stroke:none;fill-rule:evenodd;fill:rgb(18.431373%,20.784314%,60%);fill-opacity:1;" d="M 1.457031 24.582031 C 1.960938 24.582031 2.460938 24.582031 2.960938 24.582031 C 2.960938 27.921875 2.960938 31.261719 2.960938 34.601562 C 2.460938 34.601562 1.960938 34.601562 1.457031 34.601562 C 1.457031 31.261719 1.457031 27.921875 1.457031 24.582031 Z M 1.457031 24.582031 "/>
<path style=" stroke:none;fill-rule:evenodd;fill:rgb(42.745098%,47.45098%,53.72549%);fill-opacity:1;" d="M 8.980469 24.582031 C 8.980469 26.253906 8.980469 27.921875 8.980469 29.59375 C 8.480469 29.59375 7.976562 29.59375 7.476562 29.59375 C 7.476562 31.261719 7.476562 32.933594 7.476562 34.601562 C 6.976562 34.601562 6.472656 34.601562 5.972656 34.601562 C 5.972656 31.261719 5.972656 27.921875 5.972656 24.582031 C 6.976562 24.582031 7.976562 24.582031 8.980469 24.582031 Z M 8.980469 24.582031 "/>
<path style=" stroke:none;fill-rule:evenodd;fill:rgb(0%,71.764706%,93.72549%);fill-opacity:1;" d="M 21.019531 39.613281 C 21.019531 42.953125 21.019531 46.292969 21.019531 49.632812 C 20.515625 49.632812 20.015625 49.632812 19.515625 49.632812 C 19.515625 46.292969 19.515625 42.953125 19.515625 39.613281 C 19.011719 39.613281 18.511719 39.613281 18.007812 39.613281 C 18.007812 37.945312 18.007812 36.273438 18.007812 34.601562 C 17.507812 34.601562 17.007812 34.601562 16.503906 34.601562 C 16.503906 32.933594 16.503906 31.261719 16.503906 29.59375 C 15.5 29.59375 14.5 29.59375 13.496094 29.59375 C 13.496094 31.261719 13.496094 32.933594 13.496094 34.601562 C 12.992188 34.601562 12.492188 34.601562 11.992188 34.601562 C 11.992188 36.273438 11.992188 37.945312 11.992188 39.613281 C 11.488281 39.613281 10.988281 39.613281 10.484375 39.613281 C 10.484375 42.953125 10.484375 46.292969 10.484375 49.632812 C 9.984375 49.632812 9.484375 49.632812 8.980469 49.632812 C 8.980469 46.292969 8.980469 42.953125 8.980469 39.613281 C 8.980469 37.945312 8.980469 36.273438 8.980469 34.601562 C 9.484375 34.601562 9.984375 34.601562 10.484375 34.601562 C 10.484375 32.933594 10.484375 31.261719 10.484375 29.59375 C 10.988281 29.59375 11.488281 29.59375 11.992188 29.59375 C 11.992188 27.921875 11.992188 26.253906 11.992188 24.582031 C 13.996094 24.582031 16.003906 24.582031 18.007812 24.582031 C 18.007812 26.253906 18.007812 27.921875 18.007812 29.59375 C 18.511719 29.59375 19.011719 29.59375 19.515625 29.59375 C 19.515625 31.261719 19.515625 32.933594 19.515625 34.601562 C 20.015625 34.601562 20.515625 34.601562 21.019531 34.601562 C 21.019531 36.273438 21.019531 37.945312 21.019531 39.613281 Z M 21.019531 39.613281 "/>
<path style=" stroke:none;fill-rule:evenodd;fill:rgb(42.745098%,47.45098%,53.72549%);fill-opacity:1;" d="M 21.019531 24.582031 C 22.023438 24.582031 23.023438 24.582031 24.027344 24.582031 C 24.027344 27.921875 24.027344 31.261719 24.027344 34.601562 C 23.527344 34.601562 23.023438 34.601562 22.523438 34.601562 C 22.523438 32.933594 22.523438 31.261719 22.523438 29.59375 C 22.023438 29.59375 21.519531 29.59375 21.019531 29.59375 C 21.019531 27.921875 21.019531 26.253906 21.019531 24.582031 Z M 21.019531 24.582031 "/>
<path style=" stroke:none;fill-rule:evenodd;fill:rgb(18.431373%,20.784314%,60%);fill-opacity:1;" d="M 28.542969 24.582031 C 28.542969 27.921875 28.542969 31.261719 28.542969 34.601562 C 28.039062 34.601562 27.539062 34.601562 27.039062 34.601562 C 27.039062 31.261719 27.039062 27.921875 27.039062 24.582031 C 27.539062 24.582031 28.039062 24.582031 28.542969 24.582031 Z M 28.542969 24.582031 "/>
<path style=" stroke:none;fill-rule:evenodd;fill:rgb(60%,85.098039%,91.372549%);fill-opacity:1;" d="M 19.515625 49.632812 C 19.515625 51.304688 19.515625 52.976562 19.515625 54.644531 C 19.011719 54.644531 18.511719 54.644531 18.007812 54.644531 C 16.003906 54.644531 13.996094 54.644531 11.992188 54.644531 C 11.488281 54.644531 10.988281 54.644531 10.484375 54.644531 C 10.484375 52.976562 10.484375 51.304688 10.484375 49.632812 C 10.484375 46.292969 10.484375 42.953125 10.484375 39.613281 C 10.988281 39.613281 11.488281 39.613281 11.992188 39.613281 C 11.992188 37.945312 11.992188 36.273438 11.992188 34.601562 C 12.492188 34.601562 12.992188 34.601562 13.496094 34.601562 C 13.496094 32.933594 13.496094 31.261719 13.496094 29.59375 C 14.5 29.59375 15.5 29.59375 16.503906 29.59375 C 16.503906 31.261719 16.503906 32.933594 16.503906 34.601562 C 17.007812 34.601562 17.507812 34.601562 18.007812 34.601562 C 18.007812 36.273438 18.007812 37.945312 18.007812 39.613281 C 18.511719 39.613281 19.011719 39.613281 19.515625 39.613281 C 19.515625 42.953125 19.515625 46.292969 19.515625 49.632812 Z M 19.515625 49.632812 "/>
<path style=" stroke:none;fill-rule:evenodd;fill:rgb(30.196078%,42.745098%,95.294118%);fill-opacity:1;" d="M 1.457031 34.601562 C 1.960938 34.601562 2.460938 34.601562 2.960938 34.601562 C 2.960938 37.945312 2.960938 41.285156 2.960938 44.625 C 2.460938 44.625 1.960938 44.625 1.457031 44.625 C 1.457031 41.285156 1.457031 37.945312 1.457031 34.601562 Z M 1.457031 34.601562 "/>
<path style=" stroke:none;fill-rule:evenodd;fill:rgb(30.196078%,42.745098%,95.294118%);fill-opacity:1;" d="M 27.039062 34.601562 C 27.539062 34.601562 28.039062 34.601562 28.542969 34.601562 C 28.542969 37.945312 28.542969 41.285156 28.542969 44.625 C 28.039062 44.625 27.539062 44.625 27.039062 44.625 C 27.039062 41.285156 27.039062 37.945312 27.039062 34.601562 Z M 27.039062 34.601562 "/>
<path style=" stroke:none;fill-rule:evenodd;fill:rgb(43.921569%,60.392157%,81.960784%);fill-opacity:1;" d="M 8.980469 39.613281 C 8.980469 42.953125 8.980469 46.292969 8.980469 49.632812 C 9.484375 49.632812 9.984375 49.632812 10.484375 49.632812 C 10.484375 51.304688 10.484375 52.976562 10.484375 54.644531 C 10.988281 54.644531 11.488281 54.644531 11.992188 54.644531 C 11.992188 56.316406 11.992188 57.984375 11.992188 59.65625 C 10.988281 59.65625 9.984375 59.65625 8.980469 59.65625 C 8.980469 57.984375 8.980469 56.316406 8.980469 54.644531 C 8.480469 54.644531 7.976562 54.644531 7.476562 54.644531 C 7.476562 49.632812 7.476562 44.625 7.476562 39.613281 C 7.976562 39.613281 8.480469 39.613281 8.980469 39.613281 Z M 8.980469 39.613281 "/>
<path style=" stroke:none;fill-rule:evenodd;fill:rgb(43.921569%,60.392157%,81.960784%);fill-opacity:1;" d="M 21.019531 39.613281 C 21.519531 39.613281 22.023438 39.613281 22.523438 39.613281 C 22.523438 44.625 22.523438 49.632812 22.523438 54.644531 C 22.023438 54.644531 21.519531 54.644531 21.019531 54.644531 C 21.019531 56.316406 21.019531 57.984375 21.019531 59.65625 C 20.015625 59.65625 19.011719 59.65625 18.007812 59.65625 C 18.007812 57.984375 18.007812 56.316406 18.007812 54.644531 C 18.511719 54.644531 19.011719 54.644531 19.515625 54.644531 C 19.515625 52.976562 19.515625 51.304688 19.515625 49.632812 C 20.015625 49.632812 20.515625 49.632812 21.019531 49.632812 C 21.019531 46.292969 21.019531 42.953125 21.019531 39.613281 Z M 21.019531 39.613281 "/>
<path style=" stroke:none;fill-rule:evenodd;fill:rgb(43.921569%,60.392157%,81.960784%);fill-opacity:1;" d="M 1.457031 44.625 C 1.960938 44.625 2.460938 44.625 2.960938 44.625 C 2.960938 47.964844 2.960938 51.304688 2.960938 54.644531 C 2.460938 54.644531 1.960938 54.644531 1.457031 54.644531 C 1.457031 51.304688 1.457031 47.964844 1.457031 44.625 Z M 1.457031 44.625 "/>
<path style=" stroke:none;fill-rule:evenodd;fill:rgb(43.921569%,60.392157%,81.960784%);fill-opacity:1;" d="M 27.039062 44.625 C 27.539062 44.625 28.039062 44.625 28.542969 44.625 C 28.542969 47.964844 28.542969 51.304688 28.542969 54.644531 C 28.039062 54.644531 27.539062 54.644531 27.039062 54.644531 C 27.039062 51.304688 27.039062 47.964844 27.039062 44.625 Z M 27.039062 44.625 "/>
<path style=" stroke:none;fill-rule:evenodd;fill:rgb(54.901961%,65.098039%,77.647059%);fill-opacity:1;" d="M 1.457031 54.644531 C 1.960938 54.644531 2.460938 54.644531 2.960938 54.644531 C 2.960938 57.984375 2.960938 61.324219 2.960938 64.664062 C 2.460938 64.664062 1.960938 64.664062 1.457031 64.664062 C 1.457031 61.324219 1.457031 57.984375 1.457031 54.644531 Z M 1.457031 54.644531 "/>
<path style=" stroke:none;fill-rule:evenodd;fill:rgb(61.960784%,65.882353%,70.588235%);fill-opacity:1;" d="M 11.992188 54.644531 C 13.996094 54.644531 16.003906 54.644531 18.007812 54.644531 C 18.007812 56.316406 18.007812 57.984375 18.007812 59.65625 C 16.003906 59.65625 13.996094 59.65625 11.992188 59.65625 C 11.992188 57.984375 11.992188 56.316406 11.992188 54.644531 Z M 11.992188 54.644531 "/>
<path style=" stroke:none;fill-rule:evenodd;fill:rgb(54.901961%,65.098039%,77.647059%);fill-opacity:1;" d="M 27.039062 54.644531 C 27.539062 54.644531 28.039062 54.644531 28.542969 54.644531 C 28.542969 57.984375 28.542969 61.324219 28.542969 64.664062 C 28.039062 64.664062 27.539062 64.664062 27.039062 64.664062 C 27.039062 61.324219 27.039062 57.984375 27.039062 54.644531 Z M 27.039062 54.644531 "/>
<path style=" stroke:none;fill-rule:evenodd;fill:rgb(0%,71.764706%,93.72549%);fill-opacity:1;" d="M 5.972656 59.65625 C 6.976562 59.65625 7.976562 59.65625 8.980469 59.65625 C 9.984375 59.65625 10.988281 59.65625 11.992188 59.65625 C 13.996094 59.65625 16.003906 59.65625 18.007812 59.65625 C 19.011719 59.65625 20.015625 59.65625 21.019531 59.65625 C 22.023438 59.65625 23.023438 59.65625 24.027344 59.65625 C 24.027344 61.324219 24.027344 62.996094 24.027344 64.664062 C 22.023438 64.664062 20.015625 64.664062 18.007812 64.664062 C 16.003906 64.664062 13.996094 64.664062 11.992188 64.664062 C 9.984375 64.664062 7.976562 64.664062 5.972656 64.664062 C 5.972656 62.996094 5.972656 61.324219 5.972656 59.65625 Z M 5.972656 59.65625 "/>
<path style=" stroke:none;fill-rule:evenodd;fill:rgb(68.627451%,78.431373%,90.588235%);fill-opacity:1;" d="M 1.457031 64.664062 C 1.960938 64.664062 2.460938 64.664062 2.960938 64.664062 C 2.960938 71.347656 2.960938 78.027344 2.960938 84.707031 C 2.460938 84.707031 1.960938 84.707031 1.457031 84.707031 C 1.457031 78.027344 1.457031 71.347656 1.457031 64.664062 Z M 1.457031 64.664062 "/>
<path style=" stroke:none;fill-rule:evenodd;fill:rgb(61.960784%,65.882353%,70.588235%);fill-opacity:1;" d="M 5.972656 64.664062 C 7.976562 64.664062 9.984375 64.664062 11.992188 64.664062 C 11.992188 66.335938 11.992188 68.007812 11.992188 69.675781 C 11.488281 69.675781 10.988281 69.675781 10.484375 69.675781 C 8.980469 69.675781 7.476562 69.675781 5.972656 69.675781 C 5.972656 68.007812 5.972656 66.335938 5.972656 64.664062 Z M 5.972656 64.664062 "/>
<path style=" stroke:none;fill-rule:evenodd;fill:rgb(30.196078%,42.745098%,95.294118%);fill-opacity:1;" d="M 11.992188 64.664062 C 13.996094 64.664062 16.003906 64.664062 18.007812 64.664062 C 18.007812 66.335938 18.007812 68.007812 18.007812 69.675781 C 16.003906 69.675781 13.996094 69.675781 11.992188 69.675781 C 11.992188 68.007812 11.992188 66.335938 11.992188 64.664062 Z M 11.992188 64.664062 "/>
<path style=" stroke:none;fill-rule:evenodd;fill:rgb(61.960784%,65.882353%,70.588235%);fill-opacity:1;" d="M 18.007812 64.664062 C 20.015625 64.664062 22.023438 64.664062 24.027344 64.664062 C 24.027344 66.335938 24.027344 68.007812 24.027344 69.675781 C 22.523438 69.675781 21.019531 69.675781 19.515625 69.675781 C 19.011719 69.675781 18.511719 69.675781 18.007812 69.675781 C 18.007812 68.007812 18.007812 66.335938 18.007812 64.664062 Z M 18.007812 64.664062 "/>
<path style=" stroke:none;fill-rule:evenodd;fill:rgb(68.627451%,78.431373%,90.588235%);fill-opacity:1;" d="M 27.039062 64.664062 C 27.539062 64.664062 28.039062 64.664062 28.542969 64.664062 C 28.542969 71.347656 28.542969 78.027344 28.542969 84.707031 C 28.039062 84.707031 27.539062 84.707031 27.039062 84.707031 C 27.039062 78.027344 27.039062 71.347656 27.039062 64.664062 Z M 27.039062 64.664062 "/>
<path style=" stroke:none;fill-rule:evenodd;fill:rgb(43.921569%,60.392157%,81.960784%);fill-opacity:1;" d="M 5.972656 69.675781 C 7.476562 69.675781 8.980469 69.675781 10.484375 69.675781 C 10.484375 73.015625 10.484375 76.355469 10.484375 79.699219 C 8.980469 79.699219 7.476562 79.699219 5.972656 79.699219 C 5.972656 76.355469 5.972656 73.015625 5.972656 69.675781 Z M 5.972656 69.675781 "/>
<path style=" stroke:none;fill-rule:evenodd;fill:rgb(30.196078%,42.745098%,95.294118%);fill-opacity:1;" d="M 10.484375 69.675781 C 10.988281 69.675781 11.488281 69.675781 11.992188 69.675781 C 11.992188 73.015625 11.992188 76.355469 11.992188 79.699219 C 11.488281 79.699219 10.988281 79.699219 10.484375 79.699219 C 10.484375 76.355469 10.484375 73.015625 10.484375 69.675781 Z M 10.484375 69.675781 "/>
<path style=" stroke:none;fill-rule:evenodd;fill:rgb(43.921569%,60.392157%,81.960784%);fill-opacity:1;" d="M 11.992188 69.675781 C 13.996094 69.675781 16.003906 69.675781 18.007812 69.675781 C 18.007812 73.015625 18.007812 76.355469 18.007812 79.699219 C 16.003906 79.699219 13.996094 79.699219 11.992188 79.699219 C 11.992188 76.355469 11.992188 73.015625 11.992188 69.675781 Z M 11.992188 69.675781 "/>
<path style=" stroke:none;fill-rule:evenodd;fill:rgb(30.196078%,42.745098%,95.294118%);fill-opacity:1;" d="M 18.007812 69.675781 C 18.511719 69.675781 19.011719 69.675781 19.515625 69.675781 C 19.515625 73.015625 19.515625 76.355469 19.515625 79.699219 C 19.011719 79.699219 18.511719 79.699219 18.007812 79.699219 C 18.007812 76.355469 18.007812 73.015625 18.007812 69.675781 Z M 18.007812 69.675781 "/>
<path style=" stroke:none;fill-rule:evenodd;fill:rgb(43.921569%,60.392157%,81.960784%);fill-opacity:1;" d="M 19.515625 69.675781 C 21.019531 69.675781 22.523438 69.675781 24.027344 69.675781 C 24.027344 73.015625 24.027344 76.355469 24.027344 79.699219 C 22.523438 79.699219 21.019531 79.699219 19.515625 79.699219 C 19.515625 76.355469 19.515625 73.015625 19.515625 69.675781 Z M 19.515625 69.675781 "/>
<path style=" stroke:none;fill-rule:evenodd;fill:rgb(61.960784%,65.882353%,70.588235%);fill-opacity:1;" d="M 5.972656 79.699219 C 7.476562 79.699219 8.980469 79.699219 10.484375 79.699219 C 10.988281 79.699219 11.488281 79.699219 11.992188 79.699219 C 11.992188 81.367188 11.992188 83.039062 11.992188 84.707031 C 9.984375 84.707031 7.976562 84.707031 5.972656 84.707031 C 5.972656 83.039062 5.972656 81.367188 5.972656 79.699219 Z M 5.972656 79.699219 "/>
<path style=" stroke:none;fill-rule:evenodd;fill:rgb(30.196078%,42.745098%,95.294118%);fill-opacity:1;" d="M 11.992188 79.699219 C 13.996094 79.699219 16.003906 79.699219 18.007812 79.699219 C 18.007812 81.367188 18.007812 83.039062 18.007812 84.707031 C 16.003906 84.707031 13.996094 84.707031 11.992188 84.707031 C 11.992188 83.039062 11.992188 81.367188 11.992188 79.699219 Z M 11.992188 79.699219 "/>
<path style=" stroke:none;fill-rule:evenodd;fill:rgb(61.960784%,65.882353%,70.588235%);fill-opacity:1;" d="M 18.007812 79.699219 C 18.511719 79.699219 19.011719 79.699219 19.515625 79.699219 C 21.019531 79.699219 22.523438 79.699219 24.027344 79.699219 C 24.027344 81.367188 24.027344 83.039062 24.027344 84.707031 C 22.023438 84.707031 20.015625 84.707031 18.007812 84.707031 C 18.007812 83.039062 18.007812 81.367188 18.007812 79.699219 Z M 18.007812 79.699219 "/>
<path style=" stroke:none;fill-rule:evenodd;fill:rgb(54.901961%,65.098039%,77.647059%);fill-opacity:1;" d="M 1.457031 84.707031 C 1.960938 84.707031 2.460938 84.707031 2.960938 84.707031 C 2.960938 88.046875 2.960938 91.386719 2.960938 94.730469 C 2.460938 94.730469 1.960938 94.730469 1.457031 94.730469 C 1.457031 91.386719 1.457031 88.046875 1.457031 84.707031 Z M 1.457031 84.707031 "/>
<path style=" stroke:none;fill-rule:evenodd;fill:rgb(0%,71.764706%,93.72549%);fill-opacity:1;" d="M 5.972656 84.707031 C 7.976562 84.707031 9.984375 84.707031 11.992188 84.707031 C 13.996094 84.707031 16.003906 84.707031 18.007812 84.707031 C 20.015625 84.707031 22.023438 84.707031 24.027344 84.707031 C 24.027344 86.378906 24.027344 88.046875 24.027344 89.71875 C 23.023438 89.71875 22.023438 89.71875 21.019531 89.71875 C 20.015625 89.71875 19.011719 89.71875 18.007812 89.71875 C 16.003906 89.71875 13.996094 89.71875 11.992188 89.71875 C 10.988281 89.71875 9.984375 89.71875 8.980469 89.71875 C 7.976562 89.71875 6.976562 89.71875 5.972656 89.71875 C 5.972656 88.046875 5.972656 86.378906 5.972656 84.707031 Z M 5.972656 84.707031 "/>
<path style=" stroke:none;fill-rule:evenodd;fill:rgb(54.901961%,65.098039%,77.647059%);fill-opacity:1;" d="M 27.039062 84.707031 C 27.539062 84.707031 28.039062 84.707031 28.542969 84.707031 C 28.542969 88.046875 28.542969 91.386719 28.542969 94.730469 C 28.039062 94.730469 27.539062 94.730469 27.039062 94.730469 C 27.039062 91.386719 27.039062 88.046875 27.039062 84.707031 Z M 27.039062 84.707031 "/>
<path style=" stroke:none;fill-rule:evenodd;fill:rgb(61.960784%,65.882353%,70.588235%);fill-opacity:1;" d="M 5.972656 89.71875 C 6.976562 89.71875 7.976562 89.71875 8.980469 89.71875 C 8.980469 91.386719 8.980469 93.058594 8.980469 94.730469 C 8.480469 94.730469 7.976562 94.730469 7.476562 94.730469 C 7.476562 99.738281 7.476562 104.75 7.476562 109.761719 C 7.976562 109.761719 8.480469 109.761719 8.980469 109.761719 C 8.980469 111.429688 8.980469 113.101562 8.980469 114.769531 C 9.484375 114.769531 9.984375 114.769531 10.484375 114.769531 C 10.484375 116.441406 10.484375 118.109375 10.484375 119.78125 C 10.988281 119.78125 11.488281 119.78125 11.992188 119.78125 C 11.992188 121.449219 11.992188 123.121094 11.992188 124.792969 C 13.996094 124.792969 16.003906 124.792969 18.007812 124.792969 C 18.007812 123.121094 18.007812 121.449219 18.007812 119.78125 C 18.511719 119.78125 19.011719 119.78125 19.515625 119.78125 C 19.515625 118.109375 19.515625 116.441406 19.515625 114.769531 C 20.015625 114.769531 20.515625 114.769531 21.019531 114.769531 C 21.019531 113.101562 21.019531 111.429688 21.019531 109.761719 C 21.519531 109.761719 22.023438 109.761719 22.523438 109.761719 C 22.523438 104.75 22.523438 99.738281 22.523438 94.730469 C 22.023438 94.730469 21.519531 94.730469 21.019531 94.730469 C 21.019531 93.058594 21.019531 91.386719 21.019531 89.71875 C 22.023438 89.71875 23.023438 89.71875 24.027344 89.71875 C 24.027344 98.070312 24.027344 106.417969 24.027344 114.769531 C 23.527344 114.769531 23.023438 114.769531 22.523438 114.769531 C 22.523438 116.441406 22.523438 118.109375 22.523438 119.78125 C 22.023438 119.78125 21.519531 119.78125 21.019531 119.78125 C 21.019531 121.449219 21.019531 123.121094 21.019531 124.792969 C 20.515625 124.792969 20.015625 124.792969 19.515625 124.792969 C 19.515625 126.460938 19.515625 128.132812 19.515625 129.800781 C 16.503906 129.800781 13.496094 129.800781 10.484375 129.800781 C 10.484375 128.132812 10.484375 126.460938 10.484375 124.792969 C 9.984375 124.792969 9.484375 124.792969 8.980469 124.792969 C 8.980469 123.121094 8.980469 121.449219 8.980469 119.78125 C 8.480469 119.78125 7.976562 119.78125 7.476562 119.78125 C 7.476562 118.109375 7.476562 116.441406 7.476562 114.769531 C 6.976562 114.769531 6.472656 114.769531 5.972656 114.769531 C 5.972656 106.417969 5.972656 98.070312 5.972656 89.71875 Z M 5.972656 89.71875 "/>
<path style=" stroke:none;fill-rule:evenodd;fill:rgb(43.921569%,60.392157%,81.960784%);fill-opacity:1;" d="M 8.980469 89.71875 C 9.984375 89.71875 10.988281 89.71875 11.992188 89.71875 C 11.992188 91.386719 11.992188 93.058594 11.992188 94.730469 C 11.488281 94.730469 10.988281 94.730469 10.484375 94.730469 C 10.484375 96.398438 10.484375 98.070312 10.484375 99.738281 C 9.984375 99.738281 9.484375 99.738281 8.980469 99.738281 C 8.980469 103.078125 8.980469 106.417969 8.980469 109.761719 C 8.480469 109.761719 7.976562 109.761719 7.476562 109.761719 C 7.476562 104.75 7.476562 99.738281 7.476562 94.730469 C 7.976562 94.730469 8.480469 94.730469 8.980469 94.730469 C 8.980469 93.058594 8.980469 91.386719 8.980469 89.71875 Z M 8.980469 89.71875 "/>
<path style=" stroke:none;fill-rule:evenodd;fill:rgb(61.960784%,65.882353%,70.588235%);fill-opacity:1;" d="M 11.992188 89.71875 C 13.996094 89.71875 16.003906 89.71875 18.007812 89.71875 C 18.007812 91.386719 18.007812 93.058594 18.007812 94.730469 C 16.003906 94.730469 13.996094 94.730469 11.992188 94.730469 C 11.992188 93.058594 11.992188 91.386719 11.992188 89.71875 Z M 11.992188 89.71875 "/>
<path style=" stroke:none;fill-rule:evenodd;fill:rgb(43.921569%,60.392157%,81.960784%);fill-opacity:1;" d="M 18.007812 89.71875 C 19.011719 89.71875 20.015625 89.71875 21.019531 89.71875 C 21.019531 91.386719 21.019531 93.058594 21.019531 94.730469 C 21.519531 94.730469 22.023438 94.730469 22.523438 94.730469 C 22.523438 99.738281 22.523438 104.75 22.523438 109.761719 C 22.023438 109.761719 21.519531 109.761719 21.019531 109.761719 C 21.019531 106.417969 21.019531 103.078125 21.019531 99.738281 C 20.515625 99.738281 20.015625 99.738281 19.515625 99.738281 C 19.515625 98.070312 19.515625 96.398438 19.515625 94.730469 C 19.011719 94.730469 18.511719 94.730469 18.007812 94.730469 C 18.007812 93.058594 18.007812 91.386719 18.007812 89.71875 Z M 18.007812 89.71875 "/>
<path style=" stroke:none;fill-rule:evenodd;fill:rgb(43.921569%,60.392157%,81.960784%);fill-opacity:1;" d="M 1.457031 94.730469 C 1.960938 94.730469 2.460938 94.730469 2.960938 94.730469 C 2.960938 98.070312 2.960938 101.410156 2.960938 104.75 C 2.460938 104.75 1.960938 104.75 1.457031 104.75 C 1.457031 101.410156 1.457031 98.070312 1.457031 94.730469 Z M 1.457031 94.730469 "/>
<path style=" stroke:none;fill-rule:evenodd;fill:rgb(60%,85.098039%,91.372549%);fill-opacity:1;" d="M 11.992188 94.730469 C 13.996094 94.730469 16.003906 94.730469 18.007812 94.730469 C 18.511719 94.730469 19.011719 94.730469 19.515625 94.730469 C 19.515625 96.398438 19.515625 98.070312 19.515625 99.738281 C 19.515625 103.078125 19.515625 106.417969 19.515625 109.761719 C 19.011719 109.761719 18.511719 109.761719 18.007812 109.761719 C 18.007812 111.429688 18.007812 113.101562 18.007812 114.769531 C 17.507812 114.769531 17.007812 114.769531 16.503906 114.769531 C 16.503906 116.441406 16.503906 118.109375 16.503906 119.78125 C 15.5 119.78125 14.5 119.78125 13.496094 119.78125 C 13.496094 118.109375 13.496094 116.441406 13.496094 114.769531 C 12.992188 114.769531 12.492188 114.769531 11.992188 114.769531 C 11.992188 113.101562 11.992188 111.429688 11.992188 109.761719 C 11.488281 109.761719 10.988281 109.761719 10.484375 109.761719 C 10.484375 106.417969 10.484375 103.078125 10.484375 99.738281 C 10.484375 98.070312 10.484375 96.398438 10.484375 94.730469 C 10.988281 94.730469 11.488281 94.730469 11.992188 94.730469 Z M 11.992188 94.730469 "/>
<path style=" stroke:none;fill-rule:evenodd;fill:rgb(43.921569%,60.392157%,81.960784%);fill-opacity:1;" d="M 27.039062 94.730469 C 27.539062 94.730469 28.039062 94.730469 28.542969 94.730469 C 28.542969 98.070312 28.542969 101.410156 28.542969 104.75 C 28.039062 104.75 27.539062 104.75 27.039062 104.75 C 27.039062 101.410156 27.039062 98.070312 27.039062 94.730469 Z M 27.039062 94.730469 "/>
<path style=" stroke:none;fill-rule:evenodd;fill:rgb(0%,71.764706%,93.72549%);fill-opacity:1;" d="M 10.484375 99.738281 C 10.484375 103.078125 10.484375 106.417969 10.484375 109.761719 C 10.988281 109.761719 11.488281 109.761719 11.992188 109.761719 C 11.992188 111.429688 11.992188 113.101562 11.992188 114.769531 C 12.492188 114.769531 12.992188 114.769531 13.496094 114.769531 C 13.496094 116.441406 13.496094 118.109375 13.496094 119.78125 C 14.5 119.78125 15.5 119.78125 16.503906 119.78125 C 16.503906 118.109375 16.503906 116.441406 16.503906 114.769531 C 17.007812 114.769531 17.507812 114.769531 18.007812 114.769531 C 18.007812 113.101562 18.007812 111.429688 18.007812 109.761719 C 18.511719 109.761719 19.011719 109.761719 19.515625 109.761719 C 19.515625 106.417969 19.515625 103.078125 19.515625 99.738281 C 20.015625 99.738281 20.515625 99.738281 21.019531 99.738281 C 21.019531 103.078125 21.019531 106.417969 21.019531 109.761719 C 21.019531 111.429688 21.019531 113.101562 21.019531 114.769531 C 20.515625 114.769531 20.015625 114.769531 19.515625 114.769531 C 19.515625 116.441406 19.515625 118.109375 19.515625 119.78125 C 19.011719 119.78125 18.511719 119.78125 18.007812 119.78125 C 18.007812 121.449219 18.007812 123.121094 18.007812 124.792969 C 16.003906 124.792969 13.996094 124.792969 11.992188 124.792969 C 11.992188 123.121094 11.992188 121.449219 11.992188 119.78125 C 11.488281 119.78125 10.988281 119.78125 10.484375 119.78125 C 10.484375 118.109375 10.484375 116.441406 10.484375 114.769531 C 9.984375 114.769531 9.484375 114.769531 8.980469 114.769531 C 8.980469 113.101562 8.980469 111.429688 8.980469 109.761719 C 8.980469 106.417969 8.980469 103.078125 8.980469 99.738281 C 9.484375 99.738281 9.984375 99.738281 10.484375 99.738281 Z M 10.484375 99.738281 "/>
<path style=" stroke:none;fill-rule:evenodd;fill:rgb(30.196078%,42.745098%,95.294118%);fill-opacity:1;" d="M 1.457031 104.75 C 1.960938 104.75 2.460938 104.75 2.960938 104.75 C 2.960938 108.089844 2.960938 111.429688 2.960938 114.769531 C 2.460938 114.769531 1.960938 114.769531 1.457031 114.769531 C 1.457031 111.429688 1.457031 108.089844 1.457031 104.75 Z M 1.457031 104.75 "/>
<path style=" stroke:none;fill-rule:evenodd;fill:rgb(30.196078%,42.745098%,95.294118%);fill-opacity:1;" d="M 27.039062 104.75 C 27.539062 104.75 28.039062 104.75 28.542969 104.75 C 28.542969 108.089844 28.542969 111.429688 28.542969 114.769531 C 28.039062 114.769531 27.539062 114.769531 27.039062 114.769531 C 27.039062 111.429688 27.039062 108.089844 27.039062 104.75 Z M 27.039062 104.75 "/>
<path style=" stroke:none;fill-rule:evenodd;fill:rgb(18.431373%,20.784314%,60%);fill-opacity:1;" d="M 1.457031 114.769531 C 1.960938 114.769531 2.460938 114.769531 2.960938 114.769531 C 2.960938 118.109375 2.960938 121.449219 2.960938 124.792969 C 2.460938 124.792969 1.960938 124.792969 1.457031 124.792969 C 1.457031 121.449219 1.457031 118.109375 1.457031 114.769531 Z M 1.457031 114.769531 "/>
<path style=" stroke:none;fill-rule:evenodd;fill:rgb(42.745098%,47.45098%,53.72549%);fill-opacity:1;" d="M 5.972656 114.769531 C 6.472656 114.769531 6.976562 114.769531 7.476562 114.769531 C 7.476562 116.441406 7.476562 118.109375 7.476562 119.78125 C 7.976562 119.78125 8.480469 119.78125 8.980469 119.78125 C 8.980469 121.449219 8.980469 123.121094 8.980469 124.792969 C 7.976562 124.792969 6.976562 124.792969 5.972656 124.792969 C 5.972656 121.449219 5.972656 118.109375 5.972656 114.769531 Z M 5.972656 114.769531 "/>
<path style=" stroke:none;fill-rule:evenodd;fill:rgb(42.745098%,47.45098%,53.72549%);fill-opacity:1;" d="M 24.027344 114.769531 C 24.027344 118.109375 24.027344 121.449219 24.027344 124.792969 C 23.023438 124.792969 22.023438 124.792969 21.019531 124.792969 C 21.019531 123.121094 21.019531 121.449219 21.019531 119.78125 C 21.519531 119.78125 22.023438 119.78125 22.523438 119.78125 C 22.523438 118.109375 22.523438 116.441406 22.523438 114.769531 C 23.023438 114.769531 23.527344 114.769531 24.027344 114.769531 Z M 24.027344 114.769531 "/>
<path style=" stroke:none;fill-rule:evenodd;fill:rgb(18.431373%,20.784314%,60%);fill-opacity:1;" d="M 27.039062 114.769531 C 27.539062 114.769531 28.039062 114.769531 28.542969 114.769531 C 28.542969 118.109375 28.542969 121.449219 28.542969 124.792969 C 28.039062 124.792969 27.539062 124.792969 27.039062 124.792969 C 27.039062 121.449219 27.039062 118.109375 27.039062 114.769531 Z M 27.039062 114.769531 "/>
<path style=" stroke:none;fill-rule:evenodd;fill:rgb(18.431373%,20.784314%,60%);fill-opacity:1;" d="M 1.457031 129.800781 C 3.964844 129.800781 6.472656 129.800781 8.980469 129.800781 C 8.980469 131.472656 8.980469 133.140625 8.980469 134.8125 C 8.480469 134.8125 7.976562 134.8125 7.476562 134.8125 C 7.476562 136.480469 7.476562 138.152344 7.476562 139.824219 C 5.972656 139.824219 4.46875 139.824219 2.960938 139.824219 C 2.960938 138.152344 2.960938 136.480469 2.960938 134.8125 C 2.460938 134.8125 1.960938 134.8125 1.457031 134.8125 C 1.457031 133.140625 1.457031 131.472656 1.457031 129.800781 Z M 1.457031 129.800781 "/>
<path style=" stroke:none;fill-rule:evenodd;fill:rgb(18.431373%,20.784314%,60%);fill-opacity:1;" d="M 28.542969 129.800781 C 28.542969 131.472656 28.542969 133.140625 28.542969 134.8125 C 28.039062 134.8125 27.539062 134.8125 27.039062 134.8125 C 27.039062 136.480469 27.039062 138.152344 27.039062 139.824219 C 25.53125 139.824219 24.027344 139.824219 22.523438 139.824219 C 22.523438 138.152344 22.523438 136.480469 22.523438 134.8125 C 22.023438 134.8125 21.519531 134.8125 21.019531 134.8125 C 21.019531 133.140625 21.019531 131.472656 21.019531 129.800781 C 23.527344 129.800781 26.035156 129.800781 28.542969 129.800781 Z M 28.542969 129.800781 "/>
<path style=" stroke:none;fill-rule:evenodd;fill:rgb(12.156863%,13.72549%,38.039216%);fill-opacity:1;" d="M 1.457031 134.8125 C 1.960938 134.8125 2.460938 134.8125 2.960938 134.8125 C 2.960938 136.480469 2.960938 138.152344 2.960938 139.824219 C 2.460938 139.824219 1.960938 139.824219 1.457031 139.824219 C 1.457031 138.152344 1.457031 136.480469 1.457031 134.8125 Z M 1.457031 134.8125 "/>
<path style=" stroke:none;fill-rule:evenodd;fill:rgb(18.431373%,20.784314%,60%);fill-opacity:1;" d="M 16.503906 144.832031 C 15.5 144.832031 14.5 144.832031 13.496094 144.832031 C 13.496094 141.492188 13.496094 138.152344 13.496094 134.8125 C 14.5 134.8125 15.5 134.8125 16.503906 134.8125 C 16.503906 138.152344 16.503906 141.492188 16.503906 144.832031 Z M 16.503906 144.832031 "/>
<path style=" stroke:none;fill-rule:evenodd;fill:rgb(12.156863%,13.72549%,38.039216%);fill-opacity:1;" d="M 28.542969 134.8125 C 28.542969 136.480469 28.542969 138.152344 28.542969 139.824219 C 28.039062 139.824219 27.539062 139.824219 27.039062 139.824219 C 27.039062 138.152344 27.039062 136.480469 27.039062 134.8125 C 27.539062 134.8125 28.039062 134.8125 28.542969 134.8125 Z M 28.542969 134.8125 "/>
<path style=" stroke:none;fill-rule:evenodd;fill:rgb(0%,71.764706%,93.72549%);fill-opacity:1;" d="M 1.457031 139.824219 C 1.960938 139.824219 2.460938 139.824219 2.960938 139.824219 C 2.960938 141.492188 2.960938 143.164062 2.960938 144.832031 C 2.460938 144.832031 1.960938 144.832031 1.457031 144.832031 C 1.457031 143.164062 1.457031 141.492188 1.457031 139.824219 Z M 1.457031 139.824219 "/>
<path style=" stroke:none;fill-rule:evenodd;fill:rgb(60%,85.098039%,91.372549%);fill-opacity:1;" d="M 2.960938 139.824219 C 4.46875 139.824219 5.972656 139.824219 7.476562 139.824219 C 7.976562 139.824219 8.480469 139.824219 8.980469 139.824219 C 8.980469 141.492188 8.980469 143.164062 8.980469 144.832031 C 6.976562 144.832031 4.96875 144.832031 2.960938 144.832031 C 2.960938 143.164062 2.960938 141.492188 2.960938 139.824219 Z M 2.960938 139.824219 "/>
<path style=" stroke:none;fill-rule:evenodd;fill:rgb(0%,71.764706%,93.72549%);fill-opacity:1;" d="M 8.980469 139.824219 C 9.484375 139.824219 9.984375 139.824219 10.484375 139.824219 C 10.484375 141.492188 10.484375 143.164062 10.484375 144.832031 C 9.984375 144.832031 9.484375 144.832031 8.980469 144.832031 C 8.980469 143.164062 8.980469 141.492188 8.980469 139.824219 Z M 8.980469 139.824219 "/>
<path style=" stroke:none;fill-rule:evenodd;fill:rgb(0%,71.764706%,93.72549%);fill-opacity:1;" d="M 21.019531 139.824219 C 21.019531 141.492188 21.019531 143.164062 21.019531 144.832031 C 20.515625 144.832031 20.015625 144.832031 19.515625 144.832031 C 19.515625 143.164062 19.515625 141.492188 19.515625 139.824219 C 20.015625 139.824219 20.515625 139.824219 21.019531 139.824219 Z M 21.019531 139.824219 "/>
<path style=" stroke:none;fill-rule:evenodd;fill:rgb(60%,85.098039%,91.372549%);fill-opacity:1;" d="M 21.019531 139.824219 C 21.519531 139.824219 22.023438 139.824219 22.523438 139.824219 C 24.027344 139.824219 25.53125 139.824219 27.039062 139.824219 C 27.039062 141.492188 27.039062 143.164062 27.039062 144.832031 C 25.03125 144.832031 23.023438 144.832031 21.019531 144.832031 C 21.019531 143.164062 21.019531 141.492188 21.019531 139.824219 Z M 21.019531 139.824219 "/>
<path style=" stroke:none;fill-rule:evenodd;fill:rgb(0%,71.764706%,93.72549%);fill-opacity:1;" d="M 27.039062 139.824219 C 27.539062 139.824219 28.039062 139.824219 28.542969 139.824219 C 28.542969 141.492188 28.542969 143.164062 28.542969 144.832031 C 28.039062 144.832031 27.539062 144.832031 27.039062 144.832031 C 27.039062 143.164062 27.039062 141.492188 27.039062 139.824219 Z M 27.039062 139.824219 "/>
</g>
</svg>
