<?xml version="1.0" encoding="UTF-8"?>
<svg xmlns="http://www.w3.org/2000/svg" xmlns:xlink="http://www.w3.org/1999/xlink" width="30px" height="150px" viewBox="0 0 30 150" version="1.1">
<g id="surface1">
<path style=" stroke:none;fill-rule:evenodd;fill:rgb(27.058824%,27.45098%,27.058824%);fill-opacity:1;" d="M -0.046875 -0.15625 C 9.953125 -0.15625 19.953125 -0.15625 29.953125 -0.15625 C 29.953125 49.84375 29.953125 99.84375 29.953125 149.84375 C 27.976562 149.84375 26.003906 149.84375 24.027344 149.84375 C 24.027344 148.171875 24.027344 146.503906 24.027344 144.832031 C 25.03125 144.832031 26.035156 144.832031 27.039062 144.832031 C 27.539062 144.832031 28.039062 144.832031 28.542969 144.832031 C 28.542969 143.164062 28.542969 141.492188 28.542969 139.824219 C 28.542969 138.152344 28.542969 136.480469 28.542969 134.8125 C 28.542969 133.140625 28.542969 131.472656 28.542969 129.800781 C 28.542969 128.132812 28.542969 126.460938 28.542969 124.792969 C 28.542969 121.449219 28.542969 118.109375 28.542969 114.769531 C 28.542969 111.429688 28.542969 108.089844 28.542969 104.75 C 28.542969 101.410156 28.542969 98.070312 28.542969 94.730469 C 28.542969 91.386719 28.542969 88.046875 28.542969 84.707031 C 28.542969 78.027344 28.542969 71.347656 28.542969 64.664062 C 28.542969 61.324219 28.542969 57.984375 28.542969 54.644531 C 28.542969 51.304688 28.542969 47.964844 28.542969 44.625 C 28.542969 41.285156 28.542969 37.945312 28.542969 34.601562 C 28.542969 31.261719 28.542969 27.921875 28.542969 24.582031 C 28.542969 22.914062 28.542969 21.242188 28.542969 19.570312 C 28.542969 17.902344 28.542969 16.230469 28.542969 14.5625 C 28.542969 12.890625 28.542969 11.222656 28.542969 9.550781 C 28.542969 7.882812 28.542969 6.210938 28.542969 4.539062 C 28.039062 4.539062 27.539062 4.539062 27.039062 4.539062 C 25.03125 4.539062 23.023438 4.539062 21.019531 4.539062 C 20.515625 4.539062 20.015625 4.539062 19.515625 4.539062 C 18.511719 4.539062 17.507812 4.539062 16.503906 4.539062 C 15.5 4.539062 14.5 4.539062 13.496094 4.539062 C 12.492188 4.539062 11.488281 4.539062 10.484375 4.539062 C 9.984375 4.539062 9.484375 4.539062 8.980469 4.539062 C 6.976562 4.539062 4.96875 4.539062 2.960938 4.539062 C 2.460938 4.539062 1.960938 4.539062 1.457031 4.539062 C 1.457031 6.210938 1.457031 7.882812 1.457031 9.550781 C 1.457031 11.222656 1.457031 12.890625 1.457031 14.5625 C 1.457031 16.230469 1.457031 17.902344 1.457031 19.570312 C 1.457031 21.242188 1.457031 22.914062 1.457031 24.582031 C 1.457031 27.921875 1.457031 31.261719 1.457031 34.601562 C 1.457031 37.945312 1.457031 41.285156 1.457031 44.625 C 1.457031 47.964844 1.457031 51.304688 1.457031 54.644531 C 1.457031 57.984375 1.457031 61.324219 1.457031 64.664062 C 1.457031 71.347656 1.457031 78.027344 1.457031 84.707031 C 1.457031 88.046875 1.457031 91.386719 1.457031 94.730469 C 1.457031 98.070312 1.457031 101.410156 1.457031 104.75 C 1.457031 108.089844 1.457031 111.429688 1.457031 114.769531 C 1.457031 118.109375 1.457031 121.449219 1.457031 124.792969 C 1.457031 126.460938 1.457031 128.132812 1.457031 129.800781 C 1.457031 131.472656 1.457031 133.140625 1.457031 134.8125 C 1.457031 136.480469 1.457031 138.152344 1.457031 139.824219 C 1.457031 141.492188 1.457031 143.164062 1.457031 144.832031 C 1.960938 144.832031 2.460938 144.832031 2.960938 144.832031 C 3.964844 144.832031 4.96875 144.832031 5.972656 144.832031 C 5.972656 146.503906 5.972656 148.171875 5.972656 149.84375 C 3.964844 149.84375 1.960938 149.84375 -0.046875 149.84375 C -0.046875 99.84375 -0.046875 49.84375 -0.046875 -0.15625 Z M -0.046875 -0.15625 "/>
<path style=" stroke:none;fill-rule:evenodd;fill:rgb(0%,71.764706%,93.72549%);fill-opacity:1;" d="M 2.960938 4.539062 C 2.960938 6.210938 2.960938 7.882812 2.960938 9.550781 C 2.460938 9.550781 1.960938 9.550781 1.457031 9.550781 C 1.457031 7.882812 1.457031 6.210938 1.457031 4.539062 C 1.960938 4.539062 2.460938 4.539062 2.960938 4.539062 Z M 2.960938 4.539062 "/>
<path style=" stroke:none;fill-rule:evenodd;fill:rgb(60%,85.098039%,91.372549%);fill-opacity:1;" d="M 2.960938 4.539062 C 4.96875 4.539062 6.976562 4.539062 8.980469 4.539062 C 8.980469 6.210938 8.980469 7.882812 8.980469 9.550781 C 8.480469 9.550781 7.976562 9.550781 7.476562 9.550781 C 5.972656 9.550781 4.46875 9.550781 2.960938 9.550781 C 2.960938 7.882812 2.960938 6.210938 2.960938 4.539062 Z M 2.960938 4.539062 "/>
<path style=" stroke:none;fill-rule:evenodd;fill:rgb(0%,71.764706%,93.72549%);fill-opacity:1;" d="M 8.980469 4.539062 C 9.484375 4.539062 9.984375 4.539062 10.484375 4.539062 C 10.484375 6.210938 10.484375 7.882812 10.484375 9.550781 C 9.984375 9.550781 9.484375 9.550781 8.980469 9.550781 C 8.980469 7.882812 8.980469 6.210938 8.980469 4.539062 Z M 8.980469 4.539062 "/>
<path style=" stroke:none;fill-rule:evenodd;fill:rgb(12.156863%,13.72549%,38.039216%);fill-opacity:1;" d="M 10.484375 4.539062 C 11.488281 4.539062 12.492188 4.539062 13.496094 4.539062 C 13.496094 7.882812 13.496094 11.222656 13.496094 14.5625 C 14.5 14.5625 15.5 14.5625 16.503906 14.5625 C 16.503906 11.222656 16.503906 7.882812 16.503906 4.539062 C 17.507812 4.539062 18.511719 4.539062 19.515625 4.539062 C 19.515625 6.210938 19.515625 7.882812 19.515625 9.550781 C 20.015625 9.550781 20.515625 9.550781 21.019531 9.550781 C 21.519531 9.550781 22.023438 9.550781 22.523438 9.550781 C 22.523438 11.222656 22.523438 12.890625 22.523438 14.5625 C 22.023438 14.5625 21.519531 14.5625 21.019531 14.5625 C 21.019531 16.230469 21.019531 17.902344 21.019531 19.570312 C 23.527344 19.570312 26.035156 19.570312 28.542969 19.570312 C 28.542969 21.242188 28.542969 22.914062 28.542969 24.582031 C 28.039062 24.582031 27.539062 24.582031 27.039062 24.582031 C 27.039062 27.921875 27.039062 31.261719 27.039062 34.601562 C 27.039062 37.945312 27.039062 41.285156 27.039062 44.625 C 27.039062 47.964844 27.039062 51.304688 27.039062 54.644531 C 27.039062 57.984375 27.039062 61.324219 27.039062 64.664062 C 27.039062 71.347656 27.039062 78.027344 27.039062 84.707031 C 27.039062 88.046875 27.039062 91.386719 27.039062 94.730469 C 27.039062 98.070312 27.039062 101.410156 27.039062 104.75 C 27.039062 108.089844 27.039062 111.429688 27.039062 114.769531 C 27.039062 118.109375 27.039062 121.449219 27.039062 124.792969 C 27.539062 124.792969 28.039062 124.792969 28.542969 124.792969 C 28.542969 126.460938 28.542969 128.132812 28.542969 129.800781 C 27.039062 129.800781 25.53125 129.800781 24.027344 129.800781 C 24.027344 98.070312 24.027344 66.335938 24.027344 34.601562 C 24.027344 31.261719 24.027344 27.921875 24.027344 24.582031 C 23.023438 24.582031 22.023438 24.582031 21.019531 24.582031 C 20.515625 24.582031 20.015625 24.582031 19.515625 24.582031 C 19.515625 22.914062 19.515625 21.242188 19.515625 19.570312 C 16.503906 19.570312 13.496094 19.570312 10.484375 19.570312 C 10.484375 21.242188 10.484375 22.914062 10.484375 24.582031 C 9.984375 24.582031 9.484375 24.582031 8.980469 24.582031 C 7.976562 24.582031 6.976562 24.582031 5.972656 24.582031 C 5.972656 27.921875 5.972656 31.261719 5.972656 34.601562 C 5.972656 66.335938 5.972656 98.070312 5.972656 129.800781 C 4.46875 129.800781 2.960938 129.800781 1.457031 129.800781 C 1.457031 128.132812 1.457031 126.460938 1.457031 124.792969 C 1.960938 124.792969 2.460938 124.792969 2.960938 124.792969 C 2.960938 121.449219 2.960938 118.109375 2.960938 114.769531 C 2.960938 111.429688 2.960938 108.089844 2.960938 104.75 C 2.960938 101.410156 2.960938 98.070312 2.960938 94.730469 C 2.960938 91.386719 2.960938 88.046875 2.960938 84.707031 C 2.960938 78.027344 2.960938 71.347656 2.960938 64.664062 C 2.960938 61.324219 2.960938 57.984375 2.960938 54.644531 C 2.960938 51.304688 2.960938 47.964844 2.960938 44.625 C 2.960938 41.285156 2.960938 37.945312 2.960938 34.601562 C 2.960938 31.261719 2.960938 27.921875 2.960938 24.582031 C 2.460938 24.582031 1.960938 24.582031 1.457031 24.582031 C 1.457031 22.914062 1.457031 21.242188 1.457031 19.570312 C 3.964844 19.570312 6.472656 19.570312 8.980469 19.570312 C 8.980469 17.902344 8.980469 16.230469 8.980469 14.5625 C 8.480469 14.5625 7.976562 14.5625 7.476562 14.5625 C 7.476562 12.890625 7.476562 11.222656 7.476562 9.550781 C 7.976562 9.550781 8.480469 9.550781 8.980469 9.550781 C 9.484375 9.550781 9.984375 9.550781 10.484375 9.550781 C 10.484375 7.882812 10.484375 6.210938 10.484375 4.539062 Z M 10.484375 4.539062 "/>
<path style=" stroke:none;fill-rule:evenodd;fill:rgb(18.431373%,20.784314%,60%);fill-opacity:1;" d="M 13.496094 4.539062 C 14.5 4.539062 15.5 4.539062 16.503906 4.539062 C 16.503906 7.882812 16.503906 11.222656 16.503906 14.5625 C 15.5 14.5625 14.5 14.5625 13.496094 14.5625 C 13.496094 11.222656 13.496094 7.882812 13.496094 4.539062 Z M 13.496094 4.539062 "/>
<path style=" stroke:none;fill-rule:evenodd;fill:rgb(0%,71.764706%,93.72549%);fill-opacity:1;" d="M 19.515625 4.539062 C 20.015625 4.539062 20.515625 4.539062 21.019531 4.539062 C 21.019531 6.210938 21.019531 7.882812 21.019531 9.550781 C 20.515625 9.550781 20.015625 9.550781 19.515625 9.550781 C 19.515625 7.882812 19.515625 6.210938 19.515625 4.539062 Z M 19.515625 4.539062 "/>
<path style=" stroke:none;fill-rule:evenodd;fill:rgb(60%,85.098039%,91.372549%);fill-opacity:1;" d="M 21.019531 4.539062 C 23.023438 4.539062 25.03125 4.539062 27.039062 4.539062 C 27.039062 6.210938 27.039062 7.882812 27.039062 9.550781 C 25.53125 9.550781 24.027344 9.550781 22.523438 9.550781 C 22.023438 9.550781 21.519531 9.550781 21.019531 9.550781 C 21.019531 7.882812 21.019531 6.210938 21.019531 4.539062 Z M 21.019531 4.539062 "/>
<path style=" stroke:none;fill-rule:evenodd;fill:rgb(0%,71.764706%,93.72549%);fill-opacity:1;" d="M 27.039062 4.539062 C 27.539062 4.539062 28.039062 4.539062 28.542969 4.539062 C 28.542969 6.210938 28.542969 7.882812 28.542969 9.550781 C 28.039062 9.550781 27.539062 9.550781 27.039062 9.550781 C 27.039062 7.882812 27.039062 6.210938 27.039062 4.539062 Z M 27.039062 4.539062 "/>
<path style=" stroke:none;fill-rule:evenodd;fill:rgb(12.156863%,13.72549%,38.039216%);fill-opacity:1;" d="M 1.457031 9.550781 C 1.960938 9.550781 2.460938 9.550781 2.960938 9.550781 C 2.960938 11.222656 2.960938 12.890625 2.960938 14.5625 C 2.460938 14.5625 1.960938 14.5625 1.457031 14.5625 C 1.457031 12.890625 1.457031 11.222656 1.457031 9.550781 Z M 1.457031 9.550781 "/>
<path style=" stroke:none;fill-rule:evenodd;fill:rgb(18.431373%,20.784314%,60%);fill-opacity:1;" d="M 2.960938 9.550781 C 4.46875 9.550781 5.972656 9.550781 7.476562 9.550781 C 7.476562 11.222656 7.476562 12.890625 7.476562 14.5625 C 7.976562 14.5625 8.480469 14.5625 8.980469 14.5625 C 8.980469 16.230469 8.980469 17.902344 8.980469 19.570312 C 6.472656 19.570312 3.964844 19.570312 1.457031 19.570312 C 1.457031 17.902344 1.457031 16.230469 1.457031 14.5625 C 1.960938 14.5625 2.460938 14.5625 2.960938 14.5625 C 2.960938 12.890625 2.960938 11.222656 2.960938 9.550781 Z M 2.960938 9.550781 "/>
<path style=" stroke:none;fill-rule:evenodd;fill:rgb(18.431373%,20.784314%,60%);fill-opacity:1;" d="M 22.523438 9.550781 C 24.027344 9.550781 25.53125 9.550781 27.039062 9.550781 C 27.039062 11.222656 27.039062 12.890625 27.039062 14.5625 C 27.539062 14.5625 28.039062 14.5625 28.542969 14.5625 C 28.542969 16.230469 28.542969 17.902344 28.542969 19.570312 C 26.035156 19.570312 23.527344 19.570312 21.019531 19.570312 C 21.019531 17.902344 21.019531 16.230469 21.019531 14.5625 C 21.519531 14.5625 22.023438 14.5625 22.523438 14.5625 C 22.523438 12.890625 22.523438 11.222656 22.523438 9.550781 Z M 22.523438 9.550781 "/>
<path style=" stroke:none;fill-rule:evenodd;fill:rgb(12.156863%,13.72549%,38.039216%);fill-opacity:1;" d="M 27.039062 9.550781 C 27.539062 9.550781 28.039062 9.550781 28.542969 9.550781 C 28.542969 11.222656 28.542969 12.890625 28.542969 14.5625 C 28.039062 14.5625 27.539062 14.5625 27.039062 14.5625 C 27.039062 12.890625 27.039062 11.222656 27.039062 9.550781 Z M 27.039062 9.550781 "/>
<path style=" stroke:none;fill-rule:evenodd;fill:rgb(61.960784%,65.882353%,70.588235%);fill-opacity:1;" d="M 21.019531 24.582031 C 21.019531 26.253906 21.019531 27.921875 21.019531 29.59375 C 21.519531 29.59375 22.023438 29.59375 22.523438 29.59375 C 22.523438 31.261719 22.523438 32.933594 22.523438 34.601562 C 23.023438 34.601562 23.527344 34.601562 24.027344 34.601562 C 24.027344 66.335938 24.027344 98.070312 24.027344 129.800781 C 24.027344 133.140625 24.027344 136.480469 24.027344 139.824219 C 24.027344 141.492188 24.027344 143.164062 24.027344 144.832031 C 24.027344 146.503906 24.027344 148.171875 24.027344 149.84375 C 23.589844 149.84375 23.152344 149.84375 22.710938 149.84375 C 22.710938 116.648438 22.710938 83.457031 22.710938 50.261719 C 22.429688 50.261719 22.148438 50.261719 21.863281 50.261719 C 21.863281 49.21875 21.863281 48.171875 21.863281 47.128906 C 21.582031 47.128906 21.300781 47.128906 21.019531 47.128906 C 21.019531 46.191406 21.019531 45.25 21.019531 44.3125 C 20.707031 44.3125 20.390625 44.3125 20.078125 44.3125 C 20.078125 43.265625 20.078125 42.222656 20.078125 41.179688 C 19.859375 41.179688 19.640625 41.179688 19.421875 41.179688 C 19.421875 40.34375 19.421875 39.507812 19.421875 38.675781 C 19.199219 38.675781 18.980469 38.675781 18.761719 38.675781 C 18.761719 37.421875 18.761719 36.167969 18.761719 34.917969 C 18.386719 34.917969 18.007812 34.917969 17.632812 34.917969 C 17.632812 33.664062 17.632812 32.410156 17.632812 31.160156 C 17.320312 31.160156 17.007812 31.160156 16.691406 31.160156 C 16.691406 29.488281 16.691406 27.820312 16.691406 26.148438 C 15.59375 26.148438 14.5 26.148438 13.402344 26.148438 C 13.402344 27.714844 13.402344 29.28125 13.402344 30.84375 C 12.992188 30.84375 12.585938 30.84375 12.179688 30.84375 C 12.179688 32.203125 12.179688 33.558594 12.179688 34.917969 C 11.800781 34.917969 11.425781 34.917969 11.050781 34.917969 C 11.050781 35.960938 11.050781 37.003906 11.050781 38.046875 C 10.738281 38.046875 10.421875 38.046875 10.109375 38.046875 C 10.109375 38.988281 10.109375 39.925781 10.109375 40.867188 C 9.859375 40.867188 9.609375 40.867188 9.355469 40.867188 C 9.355469 42.015625 9.355469 43.164062 9.355469 44.3125 C 9.042969 44.3125 8.730469 44.3125 8.417969 44.3125 C 8.417969 45.773438 8.417969 47.234375 8.417969 48.695312 C 8.101562 48.695312 7.789062 48.695312 7.476562 48.695312 C 7.476562 82.410156 7.476562 116.128906 7.476562 149.84375 C 6.976562 149.84375 6.472656 149.84375 5.972656 149.84375 C 5.972656 148.171875 5.972656 146.503906 5.972656 144.832031 C 5.972656 143.164062 5.972656 141.492188 5.972656 139.824219 C 5.972656 136.480469 5.972656 133.140625 5.972656 129.800781 C 5.972656 98.070312 5.972656 66.335938 5.972656 34.601562 C 6.472656 34.601562 6.976562 34.601562 7.476562 34.601562 C 7.476562 32.933594 7.476562 31.261719 7.476562 29.59375 C 7.976562 29.59375 8.480469 29.59375 8.980469 29.59375 C 8.980469 27.921875 8.980469 26.253906 8.980469 24.582031 C 9.484375 24.582031 9.984375 24.582031 10.484375 24.582031 C 10.484375 22.914062 10.484375 21.242188 10.484375 19.570312 C 13.496094 19.570312 16.503906 19.570312 19.515625 19.570312 C 19.515625 21.242188 19.515625 22.914062 19.515625 24.582031 C 20.015625 24.582031 20.515625 24.582031 21.019531 24.582031 Z M 21.019531 24.582031 "/>
<path style=" stroke:none;fill-rule:evenodd;fill:rgb(18.431373%,20.784314%,60%);fill-opacity:1;" d="M 1.457031 24.582031 C 1.960938 24.582031 2.460938 24.582031 2.960938 24.582031 C 2.960938 27.921875 2.960938 31.261719 2.960938 34.601562 C 2.460938 34.601562 1.960938 34.601562 1.457031 34.601562 C 1.457031 31.261719 1.457031 27.921875 1.457031 24.582031 Z M 1.457031 24.582031 "/>
<path style=" stroke:none;fill-rule:evenodd;fill:rgb(42.745098%,47.45098%,53.72549%);fill-opacity:1;" d="M 8.980469 24.582031 C 8.980469 26.253906 8.980469 27.921875 8.980469 29.59375 C 8.480469 29.59375 7.976562 29.59375 7.476562 29.59375 C 7.476562 31.261719 7.476562 32.933594 7.476562 34.601562 C 6.976562 34.601562 6.472656 34.601562 5.972656 34.601562 C 5.972656 31.261719 5.972656 27.921875 5.972656 24.582031 C 6.976562 24.582031 7.976562 24.582031 8.980469 24.582031 Z M 8.980469 24.582031 "/>
<path style=" stroke:none;fill-rule:evenodd;fill:rgb(42.745098%,47.45098%,53.72549%);fill-opacity:1;" d="M 21.019531 24.582031 C 22.023438 24.582031 23.023438 24.582031 24.027344 24.582031 C 24.027344 27.921875 24.027344 31.261719 24.027344 34.601562 C 23.527344 34.601562 23.023438 34.601562 22.523438 34.601562 C 22.523438 32.933594 22.523438 31.261719 22.523438 29.59375 C 22.023438 29.59375 21.519531 29.59375 21.019531 29.59375 C 21.019531 27.921875 21.019531 26.253906 21.019531 24.582031 Z M 21.019531 24.582031 "/>
<path style=" stroke:none;fill-rule:evenodd;fill:rgb(18.431373%,20.784314%,60%);fill-opacity:1;" d="M 28.542969 24.582031 C 28.542969 27.921875 28.542969 31.261719 28.542969 34.601562 C 28.039062 34.601562 27.539062 34.601562 27.039062 34.601562 C 27.039062 31.261719 27.039062 27.921875 27.039062 24.582031 C 27.539062 24.582031 28.039062 24.582031 28.542969 24.582031 Z M 28.542969 24.582031 "/>
<path style=" stroke:none;fill-rule:evenodd;fill:rgb(18.431373%,20.784314%,60%);fill-opacity:1;" d="M 22.710938 149.84375 C 20.863281 149.84375 19.011719 149.84375 17.164062 149.84375 C 17.164062 122.597656 17.164062 95.355469 17.164062 68.109375 C 18.292969 68.109375 19.421875 68.109375 20.546875 68.109375 C 20.5625 65.707031 20.546875 63.304688 20.5 60.90625 C 20.183594 60.609375 19.851562 60.503906 19.515625 60.59375 C 19.515625 59.027344 19.515625 57.464844 19.515625 55.898438 C 19.105469 55.898438 18.699219 55.898438 18.292969 55.898438 C 18.292969 54.957031 18.292969 54.019531 18.292969 53.078125 C 17.914062 53.078125 17.539062 53.078125 17.164062 53.078125 C 17.164062 51.617188 17.164062 50.15625 17.164062 48.695312 C 16.816406 48.695312 16.472656 48.695312 16.128906 48.695312 C 16.128906 47.652344 16.128906 46.605469 16.128906 45.5625 C 15.28125 45.5625 14.4375 45.5625 13.589844 45.5625 C 13.589844 46.605469 13.589844 47.652344 13.589844 48.695312 C 13.277344 48.695312 12.960938 48.695312 12.648438 48.695312 C 12.648438 50.15625 12.648438 51.617188 12.648438 53.078125 C 12.273438 53.078125 11.898438 53.078125 11.519531 53.078125 C 11.519531 54.019531 11.519531 54.957031 11.519531 55.898438 C 11.175781 55.898438 10.832031 55.898438 10.484375 55.898438 C 10.484375 57.464844 10.484375 59.027344 10.484375 60.59375 C 10.078125 60.59375 9.671875 60.59375 9.261719 60.59375 C 9.261719 63.101562 9.261719 65.605469 9.261719 68.109375 C 10.390625 68.109375 11.519531 68.109375 12.648438 68.109375 C 12.648438 95.355469 12.648438 122.597656 12.648438 149.84375 C 10.925781 149.84375 9.199219 149.84375 7.476562 149.84375 C 7.476562 116.128906 7.476562 82.410156 7.476562 48.695312 C 7.789062 48.695312 8.101562 48.695312 8.417969 48.695312 C 8.417969 47.234375 8.417969 45.773438 8.417969 44.3125 C 8.730469 44.3125 9.042969 44.3125 9.355469 44.3125 C 9.355469 43.164062 9.355469 42.015625 9.355469 40.867188 C 9.609375 40.867188 9.859375 40.867188 10.109375 40.867188 C 10.109375 39.925781 10.109375 38.988281 10.109375 38.046875 C 10.421875 38.046875 10.738281 38.046875 11.050781 38.046875 C 11.050781 37.003906 11.050781 35.960938 11.050781 34.917969 C 11.425781 34.917969 11.800781 34.917969 12.179688 34.917969 C 12.179688 33.558594 12.179688 32.203125 12.179688 30.84375 C 12.585938 30.84375 12.992188 30.84375 13.402344 30.84375 C 13.402344 29.28125 13.402344 27.714844 13.402344 26.148438 C 14.5 26.148438 15.59375 26.148438 16.691406 26.148438 C 16.691406 27.820312 16.691406 29.488281 16.691406 31.160156 C 17.007812 31.160156 17.320312 31.160156 17.632812 31.160156 C 17.632812 32.410156 17.632812 33.664062 17.632812 34.917969 C 18.007812 34.917969 18.386719 34.917969 18.761719 34.917969 C 18.761719 36.167969 18.761719 37.421875 18.761719 38.675781 C 18.980469 38.675781 19.199219 38.675781 19.421875 38.675781 C 19.421875 39.507812 19.421875 40.34375 19.421875 41.179688 C 19.640625 41.179688 19.859375 41.179688 20.078125 41.179688 C 20.078125 42.222656 20.078125 43.265625 20.078125 44.3125 C 20.390625 44.3125 20.707031 44.3125 21.019531 44.3125 C 21.019531 45.25 21.019531 46.191406 21.019531 47.128906 C 21.300781 47.128906 21.582031 47.128906 21.863281 47.128906 C 21.863281 48.171875 21.863281 49.21875 21.863281 50.261719 C 22.148438 50.261719 22.429688 50.261719 22.710938 50.261719 C 22.710938 83.457031 22.710938 116.648438 22.710938 149.84375 Z M 22.710938 149.84375 "/>
<path style=" stroke:none;fill-rule:evenodd;fill:rgb(30.196078%,42.745098%,95.294118%);fill-opacity:1;" d="M 1.457031 34.601562 C 1.960938 34.601562 2.460938 34.601562 2.960938 34.601562 C 2.960938 37.945312 2.960938 41.285156 2.960938 44.625 C 2.460938 44.625 1.960938 44.625 1.457031 44.625 C 1.457031 41.285156 1.457031 37.945312 1.457031 34.601562 Z M 1.457031 34.601562 "/>
<path style=" stroke:none;fill-rule:evenodd;fill:rgb(30.196078%,42.745098%,95.294118%);fill-opacity:1;" d="M 27.039062 34.601562 C 27.539062 34.601562 28.039062 34.601562 28.542969 34.601562 C 28.542969 37.945312 28.542969 41.285156 28.542969 44.625 C 28.039062 44.625 27.539062 44.625 27.039062 44.625 C 27.039062 41.285156 27.039062 37.945312 27.039062 34.601562 Z M 27.039062 34.601562 "/>
<path style=" stroke:none;fill-rule:evenodd;fill:rgb(43.921569%,60.392157%,81.960784%);fill-opacity:1;" d="M 1.457031 44.625 C 1.960938 44.625 2.460938 44.625 2.960938 44.625 C 2.960938 47.964844 2.960938 51.304688 2.960938 54.644531 C 2.460938 54.644531 1.960938 54.644531 1.457031 54.644531 C 1.457031 51.304688 1.457031 47.964844 1.457031 44.625 Z M 1.457031 44.625 "/>
<path style=" stroke:none;fill-rule:evenodd;fill:rgb(43.921569%,60.392157%,81.960784%);fill-opacity:1;" d="M 27.039062 44.625 C 27.539062 44.625 28.039062 44.625 28.542969 44.625 C 28.542969 47.964844 28.542969 51.304688 28.542969 54.644531 C 28.039062 54.644531 27.539062 54.644531 27.039062 54.644531 C 27.039062 51.304688 27.039062 47.964844 27.039062 44.625 Z M 27.039062 44.625 "/>
<path style=" stroke:none;fill-rule:evenodd;fill:rgb(60%,85.098039%,91.372549%);fill-opacity:1;" d="M 17.164062 149.84375 C 15.660156 149.84375 14.152344 149.84375 12.648438 149.84375 C 12.648438 122.597656 12.648438 95.355469 12.648438 68.109375 C 11.519531 68.109375 10.390625 68.109375 9.261719 68.109375 C 9.261719 65.605469 9.261719 63.101562 9.261719 60.59375 C 9.671875 60.59375 10.078125 60.59375 10.484375 60.59375 C 10.484375 59.027344 10.484375 57.464844 10.484375 55.898438 C 10.832031 55.898438 11.175781 55.898438 11.519531 55.898438 C 11.519531 54.957031 11.519531 54.019531 11.519531 53.078125 C 11.898438 53.078125 12.273438 53.078125 12.648438 53.078125 C 12.648438 51.617188 12.648438 50.15625 12.648438 48.695312 C 12.960938 48.695312 13.277344 48.695312 13.589844 48.695312 C 13.589844 47.652344 13.589844 46.605469 13.589844 45.5625 C 14.4375 45.5625 15.28125 45.5625 16.128906 45.5625 C 16.128906 46.605469 16.128906 47.652344 16.128906 48.695312 C 16.472656 48.695312 16.816406 48.695312 17.164062 48.695312 C 17.164062 50.15625 17.164062 51.617188 17.164062 53.078125 C 17.539062 53.078125 17.914062 53.078125 18.292969 53.078125 C 18.292969 54.019531 18.292969 54.957031 18.292969 55.898438 C 18.699219 55.898438 19.105469 55.898438 19.515625 55.898438 C 19.515625 57.464844 19.515625 59.027344 19.515625 60.59375 C 19.851562 60.503906 20.183594 60.609375 20.5 60.90625 C 20.546875 63.304688 20.5625 65.707031 20.546875 68.109375 C 19.421875 68.109375 18.292969 68.109375 17.164062 68.109375 C 17.164062 95.355469 17.164062 122.597656 17.164062 149.84375 Z M 17.164062 149.84375 "/>
<path style=" stroke:none;fill-rule:evenodd;fill:rgb(54.901961%,65.098039%,77.647059%);fill-opacity:1;" d="M 1.457031 54.644531 C 1.960938 54.644531 2.460938 54.644531 2.960938 54.644531 C 2.960938 57.984375 2.960938 61.324219 2.960938 64.664062 C 2.460938 64.664062 1.960938 64.664062 1.457031 64.664062 C 1.457031 61.324219 1.457031 57.984375 1.457031 54.644531 Z M 1.457031 54.644531 "/>
<path style=" stroke:none;fill-rule:evenodd;fill:rgb(54.901961%,65.098039%,77.647059%);fill-opacity:1;" d="M 27.039062 54.644531 C 27.539062 54.644531 28.039062 54.644531 28.542969 54.644531 C 28.542969 57.984375 28.542969 61.324219 28.542969 64.664062 C 28.039062 64.664062 27.539062 64.664062 27.039062 64.664062 C 27.039062 61.324219 27.039062 57.984375 27.039062 54.644531 Z M 27.039062 54.644531 "/>
<path style=" stroke:none;fill-rule:evenodd;fill:rgb(68.627451%,78.431373%,90.588235%);fill-opacity:1;" d="M 1.457031 64.664062 C 1.960938 64.664062 2.460938 64.664062 2.960938 64.664062 C 2.960938 71.347656 2.960938 78.027344 2.960938 84.707031 C 2.460938 84.707031 1.960938 84.707031 1.457031 84.707031 C 1.457031 78.027344 1.457031 71.347656 1.457031 64.664062 Z M 1.457031 64.664062 "/>
<path style=" stroke:none;fill-rule:evenodd;fill:rgb(68.627451%,78.431373%,90.588235%);fill-opacity:1;" d="M 27.039062 64.664062 C 27.539062 64.664062 28.039062 64.664062 28.542969 64.664062 C 28.542969 71.347656 28.542969 78.027344 28.542969 84.707031 C 28.039062 84.707031 27.539062 84.707031 27.039062 84.707031 C 27.039062 78.027344 27.039062 71.347656 27.039062 64.664062 Z M 27.039062 64.664062 "/>
<path style=" stroke:none;fill-rule:evenodd;fill:rgb(54.901961%,65.098039%,77.647059%);fill-opacity:1;" d="M 1.457031 84.707031 C 1.960938 84.707031 2.460938 84.707031 2.960938 84.707031 C 2.960938 88.046875 2.960938 91.386719 2.960938 94.730469 C 2.460938 94.730469 1.960938 94.730469 1.457031 94.730469 C 1.457031 91.386719 1.457031 88.046875 1.457031 84.707031 Z M 1.457031 84.707031 "/>
<path style=" stroke:none;fill-rule:evenodd;fill:rgb(54.901961%,65.098039%,77.647059%);fill-opacity:1;" d="M 27.039062 84.707031 C 27.539062 84.707031 28.039062 84.707031 28.542969 84.707031 C 28.542969 88.046875 28.542969 91.386719 28.542969 94.730469 C 28.039062 94.730469 27.539062 94.730469 27.039062 94.730469 C 27.039062 91.386719 27.039062 88.046875 27.039062 84.707031 Z M 27.039062 84.707031 "/>
<path style=" stroke:none;fill-rule:evenodd;fill:rgb(43.921569%,60.392157%,81.960784%);fill-opacity:1;" d="M 1.457031 94.730469 C 1.960938 94.730469 2.460938 94.730469 2.960938 94.730469 C 2.960938 98.070312 2.960938 101.410156 2.960938 104.75 C 2.460938 104.75 1.960938 104.75 1.457031 104.75 C 1.457031 101.410156 1.457031 98.070312 1.457031 94.730469 Z M 1.457031 94.730469 "/>
<path style=" stroke:none;fill-rule:evenodd;fill:rgb(43.921569%,60.392157%,81.960784%);fill-opacity:1;" d="M 27.039062 94.730469 C 27.539062 94.730469 28.039062 94.730469 28.542969 94.730469 C 28.542969 98.070312 28.542969 101.410156 28.542969 104.75 C 28.039062 104.75 27.539062 104.75 27.039062 104.75 C 27.039062 101.410156 27.039062 98.070312 27.039062 94.730469 Z M 27.039062 94.730469 "/>
<path style=" stroke:none;fill-rule:evenodd;fill:rgb(30.196078%,42.745098%,95.294118%);fill-opacity:1;" d="M 1.457031 104.75 C 1.960938 104.75 2.460938 104.75 2.960938 104.75 C 2.960938 108.089844 2.960938 111.429688 2.960938 114.769531 C 2.460938 114.769531 1.960938 114.769531 1.457031 114.769531 C 1.457031 111.429688 1.457031 108.089844 1.457031 104.75 Z M 1.457031 104.75 "/>
<path style=" stroke:none;fill-rule:evenodd;fill:rgb(30.196078%,42.745098%,95.294118%);fill-opacity:1;" d="M 27.039062 104.75 C 27.539062 104.75 28.039062 104.75 28.542969 104.75 C 28.542969 108.089844 28.542969 111.429688 28.542969 114.769531 C 28.039062 114.769531 27.539062 114.769531 27.039062 114.769531 C 27.039062 111.429688 27.039062 108.089844 27.039062 104.75 Z M 27.039062 104.75 "/>
<path style=" stroke:none;fill-rule:evenodd;fill:rgb(18.431373%,20.784314%,60%);fill-opacity:1;" d="M 1.457031 114.769531 C 1.960938 114.769531 2.460938 114.769531 2.960938 114.769531 C 2.960938 118.109375 2.960938 121.449219 2.960938 124.792969 C 2.460938 124.792969 1.960938 124.792969 1.457031 124.792969 C 1.457031 121.449219 1.457031 118.109375 1.457031 114.769531 Z M 1.457031 114.769531 "/>
<path style=" stroke:none;fill-rule:evenodd;fill:rgb(18.431373%,20.784314%,60%);fill-opacity:1;" d="M 27.039062 114.769531 C 27.539062 114.769531 28.039062 114.769531 28.542969 114.769531 C 28.542969 118.109375 28.542969 121.449219 28.542969 124.792969 C 28.039062 124.792969 27.539062 124.792969 27.039062 124.792969 C 27.039062 121.449219 27.039062 118.109375 27.039062 114.769531 Z M 27.039062 114.769531 "/>
<path style=" stroke:none;fill-rule:evenodd;fill:rgb(18.431373%,20.784314%,60%);fill-opacity:1;" d="M 1.457031 129.800781 C 2.960938 129.800781 4.46875 129.800781 5.972656 129.800781 C 5.972656 133.140625 5.972656 136.480469 5.972656 139.824219 C 4.96875 139.824219 3.964844 139.824219 2.960938 139.824219 C 2.960938 138.152344 2.960938 136.480469 2.960938 134.8125 C 2.460938 134.8125 1.960938 134.8125 1.457031 134.8125 C 1.457031 133.140625 1.457031 131.472656 1.457031 129.800781 Z M 1.457031 129.800781 "/>
<path style=" stroke:none;fill-rule:evenodd;fill:rgb(18.431373%,20.784314%,60%);fill-opacity:1;" d="M 24.027344 129.800781 C 25.53125 129.800781 27.039062 129.800781 28.542969 129.800781 C 28.542969 131.472656 28.542969 133.140625 28.542969 134.8125 C 28.039062 134.8125 27.539062 134.8125 27.039062 134.8125 C 27.039062 136.480469 27.039062 138.152344 27.039062 139.824219 C 26.035156 139.824219 25.03125 139.824219 24.027344 139.824219 C 24.027344 136.480469 24.027344 133.140625 24.027344 129.800781 Z M 24.027344 129.800781 "/>
<path style=" stroke:none;fill-rule:evenodd;fill:rgb(12.156863%,13.72549%,38.039216%);fill-opacity:1;" d="M 1.457031 134.8125 C 1.960938 134.8125 2.460938 134.8125 2.960938 134.8125 C 2.960938 136.480469 2.960938 138.152344 2.960938 139.824219 C 2.460938 139.824219 1.960938 139.824219 1.457031 139.824219 C 1.457031 138.152344 1.457031 136.480469 1.457031 134.8125 Z M 1.457031 134.8125 "/>
<path style=" stroke:none;fill-rule:evenodd;fill:rgb(12.156863%,13.72549%,38.039216%);fill-opacity:1;" d="M 28.542969 134.8125 C 28.542969 136.480469 28.542969 138.152344 28.542969 139.824219 C 28.039062 139.824219 27.539062 139.824219 27.039062 139.824219 C 27.039062 138.152344 27.039062 136.480469 27.039062 134.8125 C 27.539062 134.8125 28.039062 134.8125 28.542969 134.8125 Z M 28.542969 134.8125 "/>
<path style=" stroke:none;fill-rule:evenodd;fill:rgb(0%,71.764706%,93.72549%);fill-opacity:1;" d="M 1.457031 139.824219 C 1.960938 139.824219 2.460938 139.824219 2.960938 139.824219 C 2.960938 141.492188 2.960938 143.164062 2.960938 144.832031 C 2.460938 144.832031 1.960938 144.832031 1.457031 144.832031 C 1.457031 143.164062 1.457031 141.492188 1.457031 139.824219 Z M 1.457031 139.824219 "/>
<path style=" stroke:none;fill-rule:evenodd;fill:rgb(60%,85.098039%,91.372549%);fill-opacity:1;" d="M 2.960938 139.824219 C 3.964844 139.824219 4.96875 139.824219 5.972656 139.824219 C 5.972656 141.492188 5.972656 143.164062 5.972656 144.832031 C 4.96875 144.832031 3.964844 144.832031 2.960938 144.832031 C 2.960938 143.164062 2.960938 141.492188 2.960938 139.824219 Z M 2.960938 139.824219 "/>
<path style=" stroke:none;fill-rule:evenodd;fill:rgb(60%,85.098039%,91.372549%);fill-opacity:1;" d="M 24.027344 139.824219 C 25.03125 139.824219 26.035156 139.824219 27.039062 139.824219 C 27.039062 141.492188 27.039062 143.164062 27.039062 144.832031 C 26.035156 144.832031 25.03125 144.832031 24.027344 144.832031 C 24.027344 143.164062 24.027344 141.492188 24.027344 139.824219 Z M 24.027344 139.824219 "/>
<path style=" stroke:none;fill-rule:evenodd;fill:rgb(0%,71.764706%,93.72549%);fill-opacity:1;" d="M 27.039062 139.824219 C 27.539062 139.824219 28.039062 139.824219 28.542969 139.824219 C 28.542969 141.492188 28.542969 143.164062 28.542969 144.832031 C 28.039062 144.832031 27.539062 144.832031 27.039062 144.832031 C 27.039062 143.164062 27.039062 141.492188 27.039062 139.824219 Z M 27.039062 139.824219 "/>
</g>
</svg>
